M48
; DRILL file {KiCad (5.1.7)-1} date 01/12/21 16:09:15
; FORMAT={-:-/ absolute / inch / decimal}
; #@! TF.CreationDate,2021-01-12T16:09:15+01:00
; #@! TF.GenerationSoftware,Kicad,Pcbnew,(5.1.7)-1
; #@! TF.FileFunction,Plated,1,2,PTH
FMAT,2
INCH
T1C0.0157
T2C0.0197
T3C0.0394
%
G90
G05
T1
X7.0Y-2.625
X7.12Y-3.49
X7.1474Y-2.975
X7.275Y-3.175
X7.275Y-3.3
X7.325Y-3.238
X7.5Y-3.54
X7.5Y-3.825
X7.575Y-3.585
X7.575Y-3.6175
X7.575Y-3.65
X7.625Y-3.775
X7.625Y-3.825
X7.65Y-3.8
X7.675Y-2.475
X7.675Y-2.5075
X7.675Y-2.54
X7.675Y-3.775
X7.675Y-3.825
X7.75Y-3.225
X7.8125Y-3.3375
X7.85Y-3.425
X7.875Y-2.4
X7.875Y-2.45
X7.875Y-2.55
X7.9276Y-3.2
X8.0Y-2.35
T2
X7.275Y-3.125
X7.315Y-3.815
X7.4Y-3.075
X7.845Y-3.65
X8.0Y-2.65
X8.03Y-3.475
T3
X6.75Y-2.1
X6.75Y-2.2
X6.75Y-2.3
X6.75Y-2.4
X6.75Y-2.5
X6.75Y-2.6
X6.75Y-2.7
X6.75Y-2.8
X6.75Y-2.9
X6.75Y-3.0
X6.75Y-3.1
X6.75Y-3.2
X6.75Y-3.3
X6.75Y-3.4
X6.75Y-3.5
X6.75Y-3.6
X6.75Y-3.7
X6.75Y-3.8
X6.75Y-3.9
X6.75Y-4.0
X6.75Y-4.1
X6.75Y-4.2
X7.725Y-2.125
X8.25Y-2.1
X8.25Y-2.2
X8.25Y-2.3
X8.25Y-2.4
X8.25Y-2.5
X8.25Y-2.6
X8.25Y-2.7
X8.25Y-2.8
X8.25Y-2.9
X8.25Y-3.0
X8.25Y-3.1
X8.25Y-3.2
X8.25Y-3.3
X8.25Y-3.4
X8.25Y-3.5
X8.25Y-3.6
X8.25Y-3.7
X8.25Y-3.8
X8.25Y-3.9
X8.25Y-4.0
X8.25Y-4.1
X8.25Y-4.2
X7.275Y-2.125
T0
M30
