%TF.GenerationSoftware,KiCad,Pcbnew,(5.1.7)-1*%
%TF.CreationDate,2021-01-12T16:12:08+01:00*%
%TF.ProjectId,slckb,736c636b-622e-46b6-9963-61645f706362,rev?*%
%TF.SameCoordinates,Original*%
%TF.FileFunction,Soldermask,Top*%
%TF.FilePolarity,Negative*%
%FSLAX46Y46*%
G04 Gerber Fmt 4.6, Leading zero omitted, Abs format (unit mm)*
G04 Created by KiCad (PCBNEW (5.1.7)-1) date 2021-01-12 16:12:08*
%MOMM*%
%LPD*%
G01*
G04 APERTURE LIST*
%ADD10O,1.800000X1.800000*%
%ADD11C,2.100000*%
%ADD12C,1.600000*%
%ADD13C,0.900000*%
%ADD14C,1.100000*%
%ADD15C,1.200000*%
%ADD16C,0.100000*%
G04 APERTURE END LIST*
G36*
G01*
X204070000Y-81411276D02*
X204070000Y-82418724D01*
G75*
G02*
X203798724Y-82690000I-271276J0D01*
G01*
X203066276Y-82690000D01*
G75*
G02*
X202795000Y-82418724I0J271276D01*
G01*
X202795000Y-81411276D01*
G75*
G02*
X203066276Y-81140000I271276J0D01*
G01*
X203798724Y-81140000D01*
G75*
G02*
X204070000Y-81411276I0J-271276D01*
G01*
G37*
G36*
G01*
X206145000Y-81411276D02*
X206145000Y-82418724D01*
G75*
G02*
X205873724Y-82690000I-271276J0D01*
G01*
X205141276Y-82690000D01*
G75*
G02*
X204870000Y-82418724I0J271276D01*
G01*
X204870000Y-81411276D01*
G75*
G02*
X205141276Y-81140000I271276J0D01*
G01*
X205873724Y-81140000D01*
G75*
G02*
X206145000Y-81411276I0J-271276D01*
G01*
G37*
G36*
G01*
X204820000Y-79215612D02*
X204820000Y-78264388D01*
G75*
G02*
X205094388Y-77990000I274388J0D01*
G01*
X205670612Y-77990000D01*
G75*
G02*
X205945000Y-78264388I0J-274388D01*
G01*
X205945000Y-79215612D01*
G75*
G02*
X205670612Y-79490000I-274388J0D01*
G01*
X205094388Y-79490000D01*
G75*
G02*
X204820000Y-79215612I0J274388D01*
G01*
G37*
G36*
G01*
X202995000Y-79215612D02*
X202995000Y-78264388D01*
G75*
G02*
X203269388Y-77990000I274388J0D01*
G01*
X203845612Y-77990000D01*
G75*
G02*
X204120000Y-78264388I0J-274388D01*
G01*
X204120000Y-79215612D01*
G75*
G02*
X203845612Y-79490000I-274388J0D01*
G01*
X203269388Y-79490000D01*
G75*
G02*
X202995000Y-79215612I0J274388D01*
G01*
G37*
G36*
G01*
X204820000Y-76675612D02*
X204820000Y-75724388D01*
G75*
G02*
X205094388Y-75450000I274388J0D01*
G01*
X205670612Y-75450000D01*
G75*
G02*
X205945000Y-75724388I0J-274388D01*
G01*
X205945000Y-76675612D01*
G75*
G02*
X205670612Y-76950000I-274388J0D01*
G01*
X205094388Y-76950000D01*
G75*
G02*
X204820000Y-76675612I0J274388D01*
G01*
G37*
G36*
G01*
X202995000Y-76675612D02*
X202995000Y-75724388D01*
G75*
G02*
X203269388Y-75450000I274388J0D01*
G01*
X203845612Y-75450000D01*
G75*
G02*
X204120000Y-75724388I0J-274388D01*
G01*
X204120000Y-76675612D01*
G75*
G02*
X203845612Y-76950000I-274388J0D01*
G01*
X203269388Y-76950000D01*
G75*
G02*
X202995000Y-76675612I0J274388D01*
G01*
G37*
G36*
G01*
X204820000Y-74135612D02*
X204820000Y-73184388D01*
G75*
G02*
X205094388Y-72910000I274388J0D01*
G01*
X205670612Y-72910000D01*
G75*
G02*
X205945000Y-73184388I0J-274388D01*
G01*
X205945000Y-74135612D01*
G75*
G02*
X205670612Y-74410000I-274388J0D01*
G01*
X205094388Y-74410000D01*
G75*
G02*
X204820000Y-74135612I0J274388D01*
G01*
G37*
G36*
G01*
X202995000Y-74135612D02*
X202995000Y-73184388D01*
G75*
G02*
X203269388Y-72910000I274388J0D01*
G01*
X203845612Y-72910000D01*
G75*
G02*
X204120000Y-73184388I0J-274388D01*
G01*
X204120000Y-74135612D01*
G75*
G02*
X203845612Y-74410000I-274388J0D01*
G01*
X203269388Y-74410000D01*
G75*
G02*
X202995000Y-74135612I0J274388D01*
G01*
G37*
G36*
G01*
X179356388Y-65835000D02*
X180307612Y-65835000D01*
G75*
G02*
X180582000Y-66109388I0J-274388D01*
G01*
X180582000Y-66685612D01*
G75*
G02*
X180307612Y-66960000I-274388J0D01*
G01*
X179356388Y-66960000D01*
G75*
G02*
X179082000Y-66685612I0J274388D01*
G01*
X179082000Y-66109388D01*
G75*
G02*
X179356388Y-65835000I274388J0D01*
G01*
G37*
G36*
G01*
X179356388Y-67660000D02*
X180307612Y-67660000D01*
G75*
G02*
X180582000Y-67934388I0J-274388D01*
G01*
X180582000Y-68510612D01*
G75*
G02*
X180307612Y-68785000I-274388J0D01*
G01*
X179356388Y-68785000D01*
G75*
G02*
X179082000Y-68510612I0J274388D01*
G01*
X179082000Y-67934388D01*
G75*
G02*
X179356388Y-67660000I274388J0D01*
G01*
G37*
G36*
G01*
X192713500Y-88043388D02*
X192713500Y-88994612D01*
G75*
G02*
X192439112Y-89269000I-274388J0D01*
G01*
X191862888Y-89269000D01*
G75*
G02*
X191588500Y-88994612I0J274388D01*
G01*
X191588500Y-88043388D01*
G75*
G02*
X191862888Y-87769000I274388J0D01*
G01*
X192439112Y-87769000D01*
G75*
G02*
X192713500Y-88043388I0J-274388D01*
G01*
G37*
G36*
G01*
X194538500Y-88043388D02*
X194538500Y-88994612D01*
G75*
G02*
X194264112Y-89269000I-274388J0D01*
G01*
X193687888Y-89269000D01*
G75*
G02*
X193413500Y-88994612I0J274388D01*
G01*
X193413500Y-88043388D01*
G75*
G02*
X193687888Y-87769000I274388J0D01*
G01*
X194264112Y-87769000D01*
G75*
G02*
X194538500Y-88043388I0J-274388D01*
G01*
G37*
D10*
X209550000Y-106680000D03*
X209550000Y-104140000D03*
X209550000Y-101600000D03*
X209550000Y-99060000D03*
X209550000Y-96520000D03*
X209550000Y-93980000D03*
X209550000Y-91440000D03*
X209550000Y-88900000D03*
X209550000Y-86360000D03*
X209550000Y-83820000D03*
X209550000Y-81280000D03*
X209550000Y-78740000D03*
X209550000Y-76200000D03*
X209550000Y-73660000D03*
X209550000Y-71120000D03*
X209550000Y-68580000D03*
X209550000Y-66040000D03*
X209550000Y-63500000D03*
X209550000Y-60960000D03*
X209550000Y-58420000D03*
X209550000Y-55880000D03*
G36*
G01*
X208650000Y-54190000D02*
X208650000Y-52490000D01*
G75*
G02*
X208700000Y-52440000I50000J0D01*
G01*
X210400000Y-52440000D01*
G75*
G02*
X210450000Y-52490000I0J-50000D01*
G01*
X210450000Y-54190000D01*
G75*
G02*
X210400000Y-54240000I-50000J0D01*
G01*
X208700000Y-54240000D01*
G75*
G02*
X208650000Y-54190000I0J50000D01*
G01*
G37*
X171450000Y-106680000D03*
X171450000Y-104140000D03*
X171450000Y-101600000D03*
X171450000Y-99060000D03*
X171450000Y-96520000D03*
X171450000Y-93980000D03*
X171450000Y-91440000D03*
X171450000Y-88900000D03*
X171450000Y-86360000D03*
X171450000Y-83820000D03*
X171450000Y-81280000D03*
X171450000Y-78740000D03*
X171450000Y-76200000D03*
X171450000Y-73660000D03*
X171450000Y-71120000D03*
X171450000Y-68580000D03*
X171450000Y-66040000D03*
X171450000Y-63500000D03*
X171450000Y-60960000D03*
X171450000Y-58420000D03*
X171450000Y-55880000D03*
G36*
G01*
X170550000Y-54190000D02*
X170550000Y-52490000D01*
G75*
G02*
X170600000Y-52440000I50000J0D01*
G01*
X172300000Y-52440000D01*
G75*
G02*
X172350000Y-52490000I0J-50000D01*
G01*
X172350000Y-54190000D01*
G75*
G02*
X172300000Y-54240000I-50000J0D01*
G01*
X170600000Y-54240000D01*
G75*
G02*
X170550000Y-54190000I0J50000D01*
G01*
G37*
G36*
G01*
X184596000Y-95388000D02*
X184596000Y-93588000D01*
G75*
G02*
X184646000Y-93538000I50000J0D01*
G01*
X186146000Y-93538000D01*
G75*
G02*
X186196000Y-93588000I0J-50000D01*
G01*
X186196000Y-95388000D01*
G75*
G02*
X186146000Y-95438000I-50000J0D01*
G01*
X184646000Y-95438000D01*
G75*
G02*
X184596000Y-95388000I0J50000D01*
G01*
G37*
G36*
G01*
X181596000Y-95388000D02*
X181596000Y-93588000D01*
G75*
G02*
X181646000Y-93538000I50000J0D01*
G01*
X183146000Y-93538000D01*
G75*
G02*
X183196000Y-93588000I0J-50000D01*
G01*
X183196000Y-95388000D01*
G75*
G02*
X183146000Y-95438000I-50000J0D01*
G01*
X181646000Y-95438000D01*
G75*
G02*
X181596000Y-95388000I0J50000D01*
G01*
G37*
G36*
G01*
X193445000Y-99666000D02*
X193445000Y-105566000D01*
G75*
G02*
X193395000Y-105616000I-50000J0D01*
G01*
X190945000Y-105616000D01*
G75*
G02*
X190895000Y-105566000I0J50000D01*
G01*
X190895000Y-99666000D01*
G75*
G02*
X190945000Y-99616000I50000J0D01*
G01*
X193395000Y-99616000D01*
G75*
G02*
X193445000Y-99666000I0J-50000D01*
G01*
G37*
G36*
G01*
X198995000Y-99666000D02*
X198995000Y-105566000D01*
G75*
G02*
X198945000Y-105616000I-50000J0D01*
G01*
X196495000Y-105616000D01*
G75*
G02*
X196445000Y-105566000I0J50000D01*
G01*
X196445000Y-99666000D01*
G75*
G02*
X196495000Y-99616000I50000J0D01*
G01*
X198945000Y-99616000D01*
G75*
G02*
X198995000Y-99666000I0J-50000D01*
G01*
G37*
G36*
G01*
X187314000Y-96585000D02*
X189114000Y-96585000D01*
G75*
G02*
X189164000Y-96635000I0J-50000D01*
G01*
X189164000Y-99135000D01*
G75*
G02*
X189114000Y-99185000I-50000J0D01*
G01*
X187314000Y-99185000D01*
G75*
G02*
X187264000Y-99135000I0J50000D01*
G01*
X187264000Y-96635000D01*
G75*
G02*
X187314000Y-96585000I50000J0D01*
G01*
G37*
G36*
G01*
X187314000Y-92585000D02*
X189114000Y-92585000D01*
G75*
G02*
X189164000Y-92635000I0J-50000D01*
G01*
X189164000Y-95135000D01*
G75*
G02*
X189114000Y-95185000I-50000J0D01*
G01*
X187314000Y-95185000D01*
G75*
G02*
X187264000Y-95135000I0J50000D01*
G01*
X187264000Y-92635000D01*
G75*
G02*
X187314000Y-92585000I50000J0D01*
G01*
G37*
G36*
G01*
X203415000Y-107176135D02*
X203415000Y-104913865D01*
G75*
G02*
X203683865Y-104645000I268865J0D01*
G01*
X204571135Y-104645000D01*
G75*
G02*
X204840000Y-104913865I0J-268865D01*
G01*
X204840000Y-107176135D01*
G75*
G02*
X204571135Y-107445000I-268865J0D01*
G01*
X203683865Y-107445000D01*
G75*
G02*
X203415000Y-107176135I0J268865D01*
G01*
G37*
G36*
G01*
X200290000Y-107176135D02*
X200290000Y-104913865D01*
G75*
G02*
X200558865Y-104645000I268865J0D01*
G01*
X201446135Y-104645000D01*
G75*
G02*
X201715000Y-104913865I0J-268865D01*
G01*
X201715000Y-107176135D01*
G75*
G02*
X201446135Y-107445000I-268865J0D01*
G01*
X200558865Y-107445000D01*
G75*
G02*
X200290000Y-107176135I0J268865D01*
G01*
G37*
D11*
X184785000Y-53975000D03*
X196215000Y-53975000D03*
G36*
G01*
X205285000Y-83995000D02*
X205285000Y-83645000D01*
G75*
G02*
X205460000Y-83470000I175000J0D01*
G01*
X207160000Y-83470000D01*
G75*
G02*
X207335000Y-83645000I0J-175000D01*
G01*
X207335000Y-83995000D01*
G75*
G02*
X207160000Y-84170000I-175000J0D01*
G01*
X205460000Y-84170000D01*
G75*
G02*
X205285000Y-83995000I0J175000D01*
G01*
G37*
G36*
G01*
X205285000Y-85265000D02*
X205285000Y-84915000D01*
G75*
G02*
X205460000Y-84740000I175000J0D01*
G01*
X207160000Y-84740000D01*
G75*
G02*
X207335000Y-84915000I0J-175000D01*
G01*
X207335000Y-85265000D01*
G75*
G02*
X207160000Y-85440000I-175000J0D01*
G01*
X205460000Y-85440000D01*
G75*
G02*
X205285000Y-85265000I0J175000D01*
G01*
G37*
G36*
G01*
X205285000Y-86535000D02*
X205285000Y-86185000D01*
G75*
G02*
X205460000Y-86010000I175000J0D01*
G01*
X207160000Y-86010000D01*
G75*
G02*
X207335000Y-86185000I0J-175000D01*
G01*
X207335000Y-86535000D01*
G75*
G02*
X207160000Y-86710000I-175000J0D01*
G01*
X205460000Y-86710000D01*
G75*
G02*
X205285000Y-86535000I0J175000D01*
G01*
G37*
G36*
G01*
X205285000Y-87805000D02*
X205285000Y-87455000D01*
G75*
G02*
X205460000Y-87280000I175000J0D01*
G01*
X207160000Y-87280000D01*
G75*
G02*
X207335000Y-87455000I0J-175000D01*
G01*
X207335000Y-87805000D01*
G75*
G02*
X207160000Y-87980000I-175000J0D01*
G01*
X205460000Y-87980000D01*
G75*
G02*
X205285000Y-87805000I0J175000D01*
G01*
G37*
G36*
G01*
X205285000Y-89075000D02*
X205285000Y-88725000D01*
G75*
G02*
X205460000Y-88550000I175000J0D01*
G01*
X207160000Y-88550000D01*
G75*
G02*
X207335000Y-88725000I0J-175000D01*
G01*
X207335000Y-89075000D01*
G75*
G02*
X207160000Y-89250000I-175000J0D01*
G01*
X205460000Y-89250000D01*
G75*
G02*
X205285000Y-89075000I0J175000D01*
G01*
G37*
G36*
G01*
X205285000Y-90345000D02*
X205285000Y-89995000D01*
G75*
G02*
X205460000Y-89820000I175000J0D01*
G01*
X207160000Y-89820000D01*
G75*
G02*
X207335000Y-89995000I0J-175000D01*
G01*
X207335000Y-90345000D01*
G75*
G02*
X207160000Y-90520000I-175000J0D01*
G01*
X205460000Y-90520000D01*
G75*
G02*
X205285000Y-90345000I0J175000D01*
G01*
G37*
G36*
G01*
X205285000Y-91615000D02*
X205285000Y-91265000D01*
G75*
G02*
X205460000Y-91090000I175000J0D01*
G01*
X207160000Y-91090000D01*
G75*
G02*
X207335000Y-91265000I0J-175000D01*
G01*
X207335000Y-91615000D01*
G75*
G02*
X207160000Y-91790000I-175000J0D01*
G01*
X205460000Y-91790000D01*
G75*
G02*
X205285000Y-91615000I0J175000D01*
G01*
G37*
G36*
G01*
X205285000Y-92885000D02*
X205285000Y-92535000D01*
G75*
G02*
X205460000Y-92360000I175000J0D01*
G01*
X207160000Y-92360000D01*
G75*
G02*
X207335000Y-92535000I0J-175000D01*
G01*
X207335000Y-92885000D01*
G75*
G02*
X207160000Y-93060000I-175000J0D01*
G01*
X205460000Y-93060000D01*
G75*
G02*
X205285000Y-92885000I0J175000D01*
G01*
G37*
G36*
G01*
X200335000Y-92885000D02*
X200335000Y-92535000D01*
G75*
G02*
X200510000Y-92360000I175000J0D01*
G01*
X202210000Y-92360000D01*
G75*
G02*
X202385000Y-92535000I0J-175000D01*
G01*
X202385000Y-92885000D01*
G75*
G02*
X202210000Y-93060000I-175000J0D01*
G01*
X200510000Y-93060000D01*
G75*
G02*
X200335000Y-92885000I0J175000D01*
G01*
G37*
G36*
G01*
X200335000Y-91615000D02*
X200335000Y-91265000D01*
G75*
G02*
X200510000Y-91090000I175000J0D01*
G01*
X202210000Y-91090000D01*
G75*
G02*
X202385000Y-91265000I0J-175000D01*
G01*
X202385000Y-91615000D01*
G75*
G02*
X202210000Y-91790000I-175000J0D01*
G01*
X200510000Y-91790000D01*
G75*
G02*
X200335000Y-91615000I0J175000D01*
G01*
G37*
G36*
G01*
X200335000Y-90345000D02*
X200335000Y-89995000D01*
G75*
G02*
X200510000Y-89820000I175000J0D01*
G01*
X202210000Y-89820000D01*
G75*
G02*
X202385000Y-89995000I0J-175000D01*
G01*
X202385000Y-90345000D01*
G75*
G02*
X202210000Y-90520000I-175000J0D01*
G01*
X200510000Y-90520000D01*
G75*
G02*
X200335000Y-90345000I0J175000D01*
G01*
G37*
G36*
G01*
X200335000Y-89075000D02*
X200335000Y-88725000D01*
G75*
G02*
X200510000Y-88550000I175000J0D01*
G01*
X202210000Y-88550000D01*
G75*
G02*
X202385000Y-88725000I0J-175000D01*
G01*
X202385000Y-89075000D01*
G75*
G02*
X202210000Y-89250000I-175000J0D01*
G01*
X200510000Y-89250000D01*
G75*
G02*
X200335000Y-89075000I0J175000D01*
G01*
G37*
G36*
G01*
X200335000Y-87805000D02*
X200335000Y-87455000D01*
G75*
G02*
X200510000Y-87280000I175000J0D01*
G01*
X202210000Y-87280000D01*
G75*
G02*
X202385000Y-87455000I0J-175000D01*
G01*
X202385000Y-87805000D01*
G75*
G02*
X202210000Y-87980000I-175000J0D01*
G01*
X200510000Y-87980000D01*
G75*
G02*
X200335000Y-87805000I0J175000D01*
G01*
G37*
G36*
G01*
X200335000Y-86535000D02*
X200335000Y-86185000D01*
G75*
G02*
X200510000Y-86010000I175000J0D01*
G01*
X202210000Y-86010000D01*
G75*
G02*
X202385000Y-86185000I0J-175000D01*
G01*
X202385000Y-86535000D01*
G75*
G02*
X202210000Y-86710000I-175000J0D01*
G01*
X200510000Y-86710000D01*
G75*
G02*
X200335000Y-86535000I0J175000D01*
G01*
G37*
G36*
G01*
X200335000Y-85265000D02*
X200335000Y-84915000D01*
G75*
G02*
X200510000Y-84740000I175000J0D01*
G01*
X202210000Y-84740000D01*
G75*
G02*
X202385000Y-84915000I0J-175000D01*
G01*
X202385000Y-85265000D01*
G75*
G02*
X202210000Y-85440000I-175000J0D01*
G01*
X200510000Y-85440000D01*
G75*
G02*
X200335000Y-85265000I0J175000D01*
G01*
G37*
G36*
G01*
X200335000Y-83995000D02*
X200335000Y-83645000D01*
G75*
G02*
X200510000Y-83470000I175000J0D01*
G01*
X202210000Y-83470000D01*
G75*
G02*
X202385000Y-83645000I0J-175000D01*
G01*
X202385000Y-83995000D01*
G75*
G02*
X202210000Y-84170000I-175000J0D01*
G01*
X200510000Y-84170000D01*
G75*
G02*
X200335000Y-83995000I0J175000D01*
G01*
G37*
D12*
X189294999Y-55245000D03*
X191895001Y-55245000D03*
G36*
G01*
X183115000Y-88142276D02*
X183115000Y-89149724D01*
G75*
G02*
X182843724Y-89421000I-271276J0D01*
G01*
X182111276Y-89421000D01*
G75*
G02*
X181840000Y-89149724I0J271276D01*
G01*
X181840000Y-88142276D01*
G75*
G02*
X182111276Y-87871000I271276J0D01*
G01*
X182843724Y-87871000D01*
G75*
G02*
X183115000Y-88142276I0J-271276D01*
G01*
G37*
G36*
G01*
X185190000Y-88142276D02*
X185190000Y-89149724D01*
G75*
G02*
X184918724Y-89421000I-271276J0D01*
G01*
X184186276Y-89421000D01*
G75*
G02*
X183915000Y-89149724I0J271276D01*
G01*
X183915000Y-88142276D01*
G75*
G02*
X184186276Y-87871000I271276J0D01*
G01*
X184918724Y-87871000D01*
G75*
G02*
X185190000Y-88142276I0J-271276D01*
G01*
G37*
G36*
G01*
X196845724Y-74545000D02*
X195838276Y-74545000D01*
G75*
G02*
X195567000Y-74273724I0J271276D01*
G01*
X195567000Y-73541276D01*
G75*
G02*
X195838276Y-73270000I271276J0D01*
G01*
X196845724Y-73270000D01*
G75*
G02*
X197117000Y-73541276I0J-271276D01*
G01*
X197117000Y-74273724D01*
G75*
G02*
X196845724Y-74545000I-271276J0D01*
G01*
G37*
G36*
G01*
X196845724Y-76620000D02*
X195838276Y-76620000D01*
G75*
G02*
X195567000Y-76348724I0J271276D01*
G01*
X195567000Y-75616276D01*
G75*
G02*
X195838276Y-75345000I271276J0D01*
G01*
X196845724Y-75345000D01*
G75*
G02*
X197117000Y-75616276I0J-271276D01*
G01*
X197117000Y-76348724D01*
G75*
G02*
X196845724Y-76620000I-271276J0D01*
G01*
G37*
G36*
G01*
X178670000Y-74426276D02*
X178670000Y-75433724D01*
G75*
G02*
X178398724Y-75705000I-271276J0D01*
G01*
X177666276Y-75705000D01*
G75*
G02*
X177395000Y-75433724I0J271276D01*
G01*
X177395000Y-74426276D01*
G75*
G02*
X177666276Y-74155000I271276J0D01*
G01*
X178398724Y-74155000D01*
G75*
G02*
X178670000Y-74426276I0J-271276D01*
G01*
G37*
G36*
G01*
X180745000Y-74426276D02*
X180745000Y-75433724D01*
G75*
G02*
X180473724Y-75705000I-271276J0D01*
G01*
X179741276Y-75705000D01*
G75*
G02*
X179470000Y-75433724I0J271276D01*
G01*
X179470000Y-74426276D01*
G75*
G02*
X179741276Y-74155000I271276J0D01*
G01*
X180473724Y-74155000D01*
G75*
G02*
X180745000Y-74426276I0J-271276D01*
G01*
G37*
G36*
G01*
X195838276Y-87141000D02*
X196845724Y-87141000D01*
G75*
G02*
X197117000Y-87412276I0J-271276D01*
G01*
X197117000Y-88144724D01*
G75*
G02*
X196845724Y-88416000I-271276J0D01*
G01*
X195838276Y-88416000D01*
G75*
G02*
X195567000Y-88144724I0J271276D01*
G01*
X195567000Y-87412276D01*
G75*
G02*
X195838276Y-87141000I271276J0D01*
G01*
G37*
G36*
G01*
X195838276Y-85066000D02*
X196845724Y-85066000D01*
G75*
G02*
X197117000Y-85337276I0J-271276D01*
G01*
X197117000Y-86069724D01*
G75*
G02*
X196845724Y-86341000I-271276J0D01*
G01*
X195838276Y-86341000D01*
G75*
G02*
X195567000Y-86069724I0J271276D01*
G01*
X195567000Y-85337276D01*
G75*
G02*
X195838276Y-85066000I271276J0D01*
G01*
G37*
G36*
G01*
X204070000Y-57281276D02*
X204070000Y-58288724D01*
G75*
G02*
X203798724Y-58560000I-271276J0D01*
G01*
X203066276Y-58560000D01*
G75*
G02*
X202795000Y-58288724I0J271276D01*
G01*
X202795000Y-57281276D01*
G75*
G02*
X203066276Y-57010000I271276J0D01*
G01*
X203798724Y-57010000D01*
G75*
G02*
X204070000Y-57281276I0J-271276D01*
G01*
G37*
G36*
G01*
X206145000Y-57281276D02*
X206145000Y-58288724D01*
G75*
G02*
X205873724Y-58560000I-271276J0D01*
G01*
X205141276Y-58560000D01*
G75*
G02*
X204870000Y-58288724I0J271276D01*
G01*
X204870000Y-57281276D01*
G75*
G02*
X205141276Y-57010000I271276J0D01*
G01*
X205873724Y-57010000D01*
G75*
G02*
X206145000Y-57281276I0J-271276D01*
G01*
G37*
G36*
G01*
X178343000Y-83595000D02*
X177143000Y-83595000D01*
G75*
G02*
X177093000Y-83545000I0J50000D01*
G01*
X177093000Y-81745000D01*
G75*
G02*
X177143000Y-81695000I50000J0D01*
G01*
X178343000Y-81695000D01*
G75*
G02*
X178393000Y-81745000I0J-50000D01*
G01*
X178393000Y-83545000D01*
G75*
G02*
X178343000Y-83595000I-50000J0D01*
G01*
G37*
G36*
G01*
X178343000Y-79595000D02*
X177143000Y-79595000D01*
G75*
G02*
X177093000Y-79545000I0J50000D01*
G01*
X177093000Y-77745000D01*
G75*
G02*
X177143000Y-77695000I50000J0D01*
G01*
X178343000Y-77695000D01*
G75*
G02*
X178393000Y-77745000I0J-50000D01*
G01*
X178393000Y-79545000D01*
G75*
G02*
X178343000Y-79595000I-50000J0D01*
G01*
G37*
G36*
G01*
X180743000Y-79595000D02*
X179543000Y-79595000D01*
G75*
G02*
X179493000Y-79545000I0J50000D01*
G01*
X179493000Y-77745000D01*
G75*
G02*
X179543000Y-77695000I50000J0D01*
G01*
X180743000Y-77695000D01*
G75*
G02*
X180793000Y-77745000I0J-50000D01*
G01*
X180793000Y-79545000D01*
G75*
G02*
X180743000Y-79595000I-50000J0D01*
G01*
G37*
G36*
G01*
X180743000Y-83595000D02*
X179543000Y-83595000D01*
G75*
G02*
X179493000Y-83545000I0J50000D01*
G01*
X179493000Y-81745000D01*
G75*
G02*
X179543000Y-81695000I50000J0D01*
G01*
X180743000Y-81695000D01*
G75*
G02*
X180793000Y-81745000I0J-50000D01*
G01*
X180793000Y-83545000D01*
G75*
G02*
X180743000Y-83595000I-50000J0D01*
G01*
G37*
G36*
G01*
X192320000Y-74145000D02*
X192870000Y-74145000D01*
G75*
G02*
X192920000Y-74195000I0J-50000D01*
G01*
X192920000Y-75695000D01*
G75*
G02*
X192870000Y-75745000I-50000J0D01*
G01*
X192320000Y-75745000D01*
G75*
G02*
X192270000Y-75695000I0J50000D01*
G01*
X192270000Y-74195000D01*
G75*
G02*
X192320000Y-74145000I50000J0D01*
G01*
G37*
G36*
G01*
X191520000Y-74145000D02*
X192070000Y-74145000D01*
G75*
G02*
X192120000Y-74195000I0J-50000D01*
G01*
X192120000Y-75695000D01*
G75*
G02*
X192070000Y-75745000I-50000J0D01*
G01*
X191520000Y-75745000D01*
G75*
G02*
X191470000Y-75695000I0J50000D01*
G01*
X191470000Y-74195000D01*
G75*
G02*
X191520000Y-74145000I50000J0D01*
G01*
G37*
G36*
G01*
X190720000Y-74145000D02*
X191270000Y-74145000D01*
G75*
G02*
X191320000Y-74195000I0J-50000D01*
G01*
X191320000Y-75695000D01*
G75*
G02*
X191270000Y-75745000I-50000J0D01*
G01*
X190720000Y-75745000D01*
G75*
G02*
X190670000Y-75695000I0J50000D01*
G01*
X190670000Y-74195000D01*
G75*
G02*
X190720000Y-74145000I50000J0D01*
G01*
G37*
G36*
G01*
X189920000Y-74145000D02*
X190470000Y-74145000D01*
G75*
G02*
X190520000Y-74195000I0J-50000D01*
G01*
X190520000Y-75695000D01*
G75*
G02*
X190470000Y-75745000I-50000J0D01*
G01*
X189920000Y-75745000D01*
G75*
G02*
X189870000Y-75695000I0J50000D01*
G01*
X189870000Y-74195000D01*
G75*
G02*
X189920000Y-74145000I50000J0D01*
G01*
G37*
G36*
G01*
X189120000Y-74145000D02*
X189670000Y-74145000D01*
G75*
G02*
X189720000Y-74195000I0J-50000D01*
G01*
X189720000Y-75695000D01*
G75*
G02*
X189670000Y-75745000I-50000J0D01*
G01*
X189120000Y-75745000D01*
G75*
G02*
X189070000Y-75695000I0J50000D01*
G01*
X189070000Y-74195000D01*
G75*
G02*
X189120000Y-74145000I50000J0D01*
G01*
G37*
G36*
G01*
X188320000Y-74145000D02*
X188870000Y-74145000D01*
G75*
G02*
X188920000Y-74195000I0J-50000D01*
G01*
X188920000Y-75695000D01*
G75*
G02*
X188870000Y-75745000I-50000J0D01*
G01*
X188320000Y-75745000D01*
G75*
G02*
X188270000Y-75695000I0J50000D01*
G01*
X188270000Y-74195000D01*
G75*
G02*
X188320000Y-74145000I50000J0D01*
G01*
G37*
G36*
G01*
X187520000Y-74145000D02*
X188070000Y-74145000D01*
G75*
G02*
X188120000Y-74195000I0J-50000D01*
G01*
X188120000Y-75695000D01*
G75*
G02*
X188070000Y-75745000I-50000J0D01*
G01*
X187520000Y-75745000D01*
G75*
G02*
X187470000Y-75695000I0J50000D01*
G01*
X187470000Y-74195000D01*
G75*
G02*
X187520000Y-74145000I50000J0D01*
G01*
G37*
G36*
G01*
X186720000Y-74145000D02*
X187270000Y-74145000D01*
G75*
G02*
X187320000Y-74195000I0J-50000D01*
G01*
X187320000Y-75695000D01*
G75*
G02*
X187270000Y-75745000I-50000J0D01*
G01*
X186720000Y-75745000D01*
G75*
G02*
X186670000Y-75695000I0J50000D01*
G01*
X186670000Y-74195000D01*
G75*
G02*
X186720000Y-74145000I50000J0D01*
G01*
G37*
G36*
G01*
X185920000Y-74145000D02*
X186470000Y-74145000D01*
G75*
G02*
X186520000Y-74195000I0J-50000D01*
G01*
X186520000Y-75695000D01*
G75*
G02*
X186470000Y-75745000I-50000J0D01*
G01*
X185920000Y-75745000D01*
G75*
G02*
X185870000Y-75695000I0J50000D01*
G01*
X185870000Y-74195000D01*
G75*
G02*
X185920000Y-74145000I50000J0D01*
G01*
G37*
G36*
G01*
X185120000Y-74145000D02*
X185670000Y-74145000D01*
G75*
G02*
X185720000Y-74195000I0J-50000D01*
G01*
X185720000Y-75695000D01*
G75*
G02*
X185670000Y-75745000I-50000J0D01*
G01*
X185120000Y-75745000D01*
G75*
G02*
X185070000Y-75695000I0J50000D01*
G01*
X185070000Y-74195000D01*
G75*
G02*
X185120000Y-74145000I50000J0D01*
G01*
G37*
G36*
G01*
X184320000Y-74145000D02*
X184870000Y-74145000D01*
G75*
G02*
X184920000Y-74195000I0J-50000D01*
G01*
X184920000Y-75695000D01*
G75*
G02*
X184870000Y-75745000I-50000J0D01*
G01*
X184320000Y-75745000D01*
G75*
G02*
X184270000Y-75695000I0J50000D01*
G01*
X184270000Y-74195000D01*
G75*
G02*
X184320000Y-74145000I50000J0D01*
G01*
G37*
G36*
G01*
X182095000Y-76920000D02*
X182095000Y-76370000D01*
G75*
G02*
X182145000Y-76320000I50000J0D01*
G01*
X183645000Y-76320000D01*
G75*
G02*
X183695000Y-76370000I0J-50000D01*
G01*
X183695000Y-76920000D01*
G75*
G02*
X183645000Y-76970000I-50000J0D01*
G01*
X182145000Y-76970000D01*
G75*
G02*
X182095000Y-76920000I0J50000D01*
G01*
G37*
G36*
G01*
X182095000Y-77720000D02*
X182095000Y-77170000D01*
G75*
G02*
X182145000Y-77120000I50000J0D01*
G01*
X183645000Y-77120000D01*
G75*
G02*
X183695000Y-77170000I0J-50000D01*
G01*
X183695000Y-77720000D01*
G75*
G02*
X183645000Y-77770000I-50000J0D01*
G01*
X182145000Y-77770000D01*
G75*
G02*
X182095000Y-77720000I0J50000D01*
G01*
G37*
G36*
G01*
X182095000Y-78520000D02*
X182095000Y-77970000D01*
G75*
G02*
X182145000Y-77920000I50000J0D01*
G01*
X183645000Y-77920000D01*
G75*
G02*
X183695000Y-77970000I0J-50000D01*
G01*
X183695000Y-78520000D01*
G75*
G02*
X183645000Y-78570000I-50000J0D01*
G01*
X182145000Y-78570000D01*
G75*
G02*
X182095000Y-78520000I0J50000D01*
G01*
G37*
G36*
G01*
X182095000Y-79320000D02*
X182095000Y-78770000D01*
G75*
G02*
X182145000Y-78720000I50000J0D01*
G01*
X183645000Y-78720000D01*
G75*
G02*
X183695000Y-78770000I0J-50000D01*
G01*
X183695000Y-79320000D01*
G75*
G02*
X183645000Y-79370000I-50000J0D01*
G01*
X182145000Y-79370000D01*
G75*
G02*
X182095000Y-79320000I0J50000D01*
G01*
G37*
G36*
G01*
X182095000Y-80120000D02*
X182095000Y-79570000D01*
G75*
G02*
X182145000Y-79520000I50000J0D01*
G01*
X183645000Y-79520000D01*
G75*
G02*
X183695000Y-79570000I0J-50000D01*
G01*
X183695000Y-80120000D01*
G75*
G02*
X183645000Y-80170000I-50000J0D01*
G01*
X182145000Y-80170000D01*
G75*
G02*
X182095000Y-80120000I0J50000D01*
G01*
G37*
G36*
G01*
X182095000Y-80920000D02*
X182095000Y-80370000D01*
G75*
G02*
X182145000Y-80320000I50000J0D01*
G01*
X183645000Y-80320000D01*
G75*
G02*
X183695000Y-80370000I0J-50000D01*
G01*
X183695000Y-80920000D01*
G75*
G02*
X183645000Y-80970000I-50000J0D01*
G01*
X182145000Y-80970000D01*
G75*
G02*
X182095000Y-80920000I0J50000D01*
G01*
G37*
G36*
G01*
X182095000Y-81720000D02*
X182095000Y-81170000D01*
G75*
G02*
X182145000Y-81120000I50000J0D01*
G01*
X183645000Y-81120000D01*
G75*
G02*
X183695000Y-81170000I0J-50000D01*
G01*
X183695000Y-81720000D01*
G75*
G02*
X183645000Y-81770000I-50000J0D01*
G01*
X182145000Y-81770000D01*
G75*
G02*
X182095000Y-81720000I0J50000D01*
G01*
G37*
G36*
G01*
X182095000Y-82520000D02*
X182095000Y-81970000D01*
G75*
G02*
X182145000Y-81920000I50000J0D01*
G01*
X183645000Y-81920000D01*
G75*
G02*
X183695000Y-81970000I0J-50000D01*
G01*
X183695000Y-82520000D01*
G75*
G02*
X183645000Y-82570000I-50000J0D01*
G01*
X182145000Y-82570000D01*
G75*
G02*
X182095000Y-82520000I0J50000D01*
G01*
G37*
G36*
G01*
X182095000Y-83320000D02*
X182095000Y-82770000D01*
G75*
G02*
X182145000Y-82720000I50000J0D01*
G01*
X183645000Y-82720000D01*
G75*
G02*
X183695000Y-82770000I0J-50000D01*
G01*
X183695000Y-83320000D01*
G75*
G02*
X183645000Y-83370000I-50000J0D01*
G01*
X182145000Y-83370000D01*
G75*
G02*
X182095000Y-83320000I0J50000D01*
G01*
G37*
G36*
G01*
X182095000Y-84120000D02*
X182095000Y-83570000D01*
G75*
G02*
X182145000Y-83520000I50000J0D01*
G01*
X183645000Y-83520000D01*
G75*
G02*
X183695000Y-83570000I0J-50000D01*
G01*
X183695000Y-84120000D01*
G75*
G02*
X183645000Y-84170000I-50000J0D01*
G01*
X182145000Y-84170000D01*
G75*
G02*
X182095000Y-84120000I0J50000D01*
G01*
G37*
G36*
G01*
X182095000Y-84920000D02*
X182095000Y-84370000D01*
G75*
G02*
X182145000Y-84320000I50000J0D01*
G01*
X183645000Y-84320000D01*
G75*
G02*
X183695000Y-84370000I0J-50000D01*
G01*
X183695000Y-84920000D01*
G75*
G02*
X183645000Y-84970000I-50000J0D01*
G01*
X182145000Y-84970000D01*
G75*
G02*
X182095000Y-84920000I0J50000D01*
G01*
G37*
G36*
G01*
X184320000Y-85545000D02*
X184870000Y-85545000D01*
G75*
G02*
X184920000Y-85595000I0J-50000D01*
G01*
X184920000Y-87095000D01*
G75*
G02*
X184870000Y-87145000I-50000J0D01*
G01*
X184320000Y-87145000D01*
G75*
G02*
X184270000Y-87095000I0J50000D01*
G01*
X184270000Y-85595000D01*
G75*
G02*
X184320000Y-85545000I50000J0D01*
G01*
G37*
G36*
G01*
X185120000Y-85545000D02*
X185670000Y-85545000D01*
G75*
G02*
X185720000Y-85595000I0J-50000D01*
G01*
X185720000Y-87095000D01*
G75*
G02*
X185670000Y-87145000I-50000J0D01*
G01*
X185120000Y-87145000D01*
G75*
G02*
X185070000Y-87095000I0J50000D01*
G01*
X185070000Y-85595000D01*
G75*
G02*
X185120000Y-85545000I50000J0D01*
G01*
G37*
G36*
G01*
X185920000Y-85545000D02*
X186470000Y-85545000D01*
G75*
G02*
X186520000Y-85595000I0J-50000D01*
G01*
X186520000Y-87095000D01*
G75*
G02*
X186470000Y-87145000I-50000J0D01*
G01*
X185920000Y-87145000D01*
G75*
G02*
X185870000Y-87095000I0J50000D01*
G01*
X185870000Y-85595000D01*
G75*
G02*
X185920000Y-85545000I50000J0D01*
G01*
G37*
G36*
G01*
X186720000Y-85545000D02*
X187270000Y-85545000D01*
G75*
G02*
X187320000Y-85595000I0J-50000D01*
G01*
X187320000Y-87095000D01*
G75*
G02*
X187270000Y-87145000I-50000J0D01*
G01*
X186720000Y-87145000D01*
G75*
G02*
X186670000Y-87095000I0J50000D01*
G01*
X186670000Y-85595000D01*
G75*
G02*
X186720000Y-85545000I50000J0D01*
G01*
G37*
G36*
G01*
X187520000Y-85545000D02*
X188070000Y-85545000D01*
G75*
G02*
X188120000Y-85595000I0J-50000D01*
G01*
X188120000Y-87095000D01*
G75*
G02*
X188070000Y-87145000I-50000J0D01*
G01*
X187520000Y-87145000D01*
G75*
G02*
X187470000Y-87095000I0J50000D01*
G01*
X187470000Y-85595000D01*
G75*
G02*
X187520000Y-85545000I50000J0D01*
G01*
G37*
G36*
G01*
X188320000Y-85545000D02*
X188870000Y-85545000D01*
G75*
G02*
X188920000Y-85595000I0J-50000D01*
G01*
X188920000Y-87095000D01*
G75*
G02*
X188870000Y-87145000I-50000J0D01*
G01*
X188320000Y-87145000D01*
G75*
G02*
X188270000Y-87095000I0J50000D01*
G01*
X188270000Y-85595000D01*
G75*
G02*
X188320000Y-85545000I50000J0D01*
G01*
G37*
G36*
G01*
X189120000Y-85545000D02*
X189670000Y-85545000D01*
G75*
G02*
X189720000Y-85595000I0J-50000D01*
G01*
X189720000Y-87095000D01*
G75*
G02*
X189670000Y-87145000I-50000J0D01*
G01*
X189120000Y-87145000D01*
G75*
G02*
X189070000Y-87095000I0J50000D01*
G01*
X189070000Y-85595000D01*
G75*
G02*
X189120000Y-85545000I50000J0D01*
G01*
G37*
G36*
G01*
X189920000Y-85545000D02*
X190470000Y-85545000D01*
G75*
G02*
X190520000Y-85595000I0J-50000D01*
G01*
X190520000Y-87095000D01*
G75*
G02*
X190470000Y-87145000I-50000J0D01*
G01*
X189920000Y-87145000D01*
G75*
G02*
X189870000Y-87095000I0J50000D01*
G01*
X189870000Y-85595000D01*
G75*
G02*
X189920000Y-85545000I50000J0D01*
G01*
G37*
G36*
G01*
X190720000Y-85545000D02*
X191270000Y-85545000D01*
G75*
G02*
X191320000Y-85595000I0J-50000D01*
G01*
X191320000Y-87095000D01*
G75*
G02*
X191270000Y-87145000I-50000J0D01*
G01*
X190720000Y-87145000D01*
G75*
G02*
X190670000Y-87095000I0J50000D01*
G01*
X190670000Y-85595000D01*
G75*
G02*
X190720000Y-85545000I50000J0D01*
G01*
G37*
G36*
G01*
X191520000Y-85545000D02*
X192070000Y-85545000D01*
G75*
G02*
X192120000Y-85595000I0J-50000D01*
G01*
X192120000Y-87095000D01*
G75*
G02*
X192070000Y-87145000I-50000J0D01*
G01*
X191520000Y-87145000D01*
G75*
G02*
X191470000Y-87095000I0J50000D01*
G01*
X191470000Y-85595000D01*
G75*
G02*
X191520000Y-85545000I50000J0D01*
G01*
G37*
G36*
G01*
X192320000Y-85545000D02*
X192870000Y-85545000D01*
G75*
G02*
X192920000Y-85595000I0J-50000D01*
G01*
X192920000Y-87095000D01*
G75*
G02*
X192870000Y-87145000I-50000J0D01*
G01*
X192320000Y-87145000D01*
G75*
G02*
X192270000Y-87095000I0J50000D01*
G01*
X192270000Y-85595000D01*
G75*
G02*
X192320000Y-85545000I50000J0D01*
G01*
G37*
G36*
G01*
X193495000Y-84920000D02*
X193495000Y-84370000D01*
G75*
G02*
X193545000Y-84320000I50000J0D01*
G01*
X195045000Y-84320000D01*
G75*
G02*
X195095000Y-84370000I0J-50000D01*
G01*
X195095000Y-84920000D01*
G75*
G02*
X195045000Y-84970000I-50000J0D01*
G01*
X193545000Y-84970000D01*
G75*
G02*
X193495000Y-84920000I0J50000D01*
G01*
G37*
G36*
G01*
X193495000Y-84120000D02*
X193495000Y-83570000D01*
G75*
G02*
X193545000Y-83520000I50000J0D01*
G01*
X195045000Y-83520000D01*
G75*
G02*
X195095000Y-83570000I0J-50000D01*
G01*
X195095000Y-84120000D01*
G75*
G02*
X195045000Y-84170000I-50000J0D01*
G01*
X193545000Y-84170000D01*
G75*
G02*
X193495000Y-84120000I0J50000D01*
G01*
G37*
G36*
G01*
X193495000Y-83320000D02*
X193495000Y-82770000D01*
G75*
G02*
X193545000Y-82720000I50000J0D01*
G01*
X195045000Y-82720000D01*
G75*
G02*
X195095000Y-82770000I0J-50000D01*
G01*
X195095000Y-83320000D01*
G75*
G02*
X195045000Y-83370000I-50000J0D01*
G01*
X193545000Y-83370000D01*
G75*
G02*
X193495000Y-83320000I0J50000D01*
G01*
G37*
G36*
G01*
X193495000Y-82520000D02*
X193495000Y-81970000D01*
G75*
G02*
X193545000Y-81920000I50000J0D01*
G01*
X195045000Y-81920000D01*
G75*
G02*
X195095000Y-81970000I0J-50000D01*
G01*
X195095000Y-82520000D01*
G75*
G02*
X195045000Y-82570000I-50000J0D01*
G01*
X193545000Y-82570000D01*
G75*
G02*
X193495000Y-82520000I0J50000D01*
G01*
G37*
G36*
G01*
X193495000Y-81720000D02*
X193495000Y-81170000D01*
G75*
G02*
X193545000Y-81120000I50000J0D01*
G01*
X195045000Y-81120000D01*
G75*
G02*
X195095000Y-81170000I0J-50000D01*
G01*
X195095000Y-81720000D01*
G75*
G02*
X195045000Y-81770000I-50000J0D01*
G01*
X193545000Y-81770000D01*
G75*
G02*
X193495000Y-81720000I0J50000D01*
G01*
G37*
G36*
G01*
X193495000Y-80920000D02*
X193495000Y-80370000D01*
G75*
G02*
X193545000Y-80320000I50000J0D01*
G01*
X195045000Y-80320000D01*
G75*
G02*
X195095000Y-80370000I0J-50000D01*
G01*
X195095000Y-80920000D01*
G75*
G02*
X195045000Y-80970000I-50000J0D01*
G01*
X193545000Y-80970000D01*
G75*
G02*
X193495000Y-80920000I0J50000D01*
G01*
G37*
G36*
G01*
X193495000Y-80120000D02*
X193495000Y-79570000D01*
G75*
G02*
X193545000Y-79520000I50000J0D01*
G01*
X195045000Y-79520000D01*
G75*
G02*
X195095000Y-79570000I0J-50000D01*
G01*
X195095000Y-80120000D01*
G75*
G02*
X195045000Y-80170000I-50000J0D01*
G01*
X193545000Y-80170000D01*
G75*
G02*
X193495000Y-80120000I0J50000D01*
G01*
G37*
G36*
G01*
X193495000Y-79320000D02*
X193495000Y-78770000D01*
G75*
G02*
X193545000Y-78720000I50000J0D01*
G01*
X195045000Y-78720000D01*
G75*
G02*
X195095000Y-78770000I0J-50000D01*
G01*
X195095000Y-79320000D01*
G75*
G02*
X195045000Y-79370000I-50000J0D01*
G01*
X193545000Y-79370000D01*
G75*
G02*
X193495000Y-79320000I0J50000D01*
G01*
G37*
G36*
G01*
X193495000Y-78520000D02*
X193495000Y-77970000D01*
G75*
G02*
X193545000Y-77920000I50000J0D01*
G01*
X195045000Y-77920000D01*
G75*
G02*
X195095000Y-77970000I0J-50000D01*
G01*
X195095000Y-78520000D01*
G75*
G02*
X195045000Y-78570000I-50000J0D01*
G01*
X193545000Y-78570000D01*
G75*
G02*
X193495000Y-78520000I0J50000D01*
G01*
G37*
G36*
G01*
X193495000Y-77720000D02*
X193495000Y-77170000D01*
G75*
G02*
X193545000Y-77120000I50000J0D01*
G01*
X195045000Y-77120000D01*
G75*
G02*
X195095000Y-77170000I0J-50000D01*
G01*
X195095000Y-77720000D01*
G75*
G02*
X195045000Y-77770000I-50000J0D01*
G01*
X193545000Y-77770000D01*
G75*
G02*
X193495000Y-77720000I0J50000D01*
G01*
G37*
G36*
G01*
X193495000Y-76920000D02*
X193495000Y-76370000D01*
G75*
G02*
X193545000Y-76320000I50000J0D01*
G01*
X195045000Y-76320000D01*
G75*
G02*
X195095000Y-76370000I0J-50000D01*
G01*
X195095000Y-76920000D01*
G75*
G02*
X195045000Y-76970000I-50000J0D01*
G01*
X193545000Y-76970000D01*
G75*
G02*
X193495000Y-76920000I0J50000D01*
G01*
G37*
G36*
G01*
X205285000Y-59865000D02*
X205285000Y-59515000D01*
G75*
G02*
X205460000Y-59340000I175000J0D01*
G01*
X207160000Y-59340000D01*
G75*
G02*
X207335000Y-59515000I0J-175000D01*
G01*
X207335000Y-59865000D01*
G75*
G02*
X207160000Y-60040000I-175000J0D01*
G01*
X205460000Y-60040000D01*
G75*
G02*
X205285000Y-59865000I0J175000D01*
G01*
G37*
G36*
G01*
X205285000Y-61135000D02*
X205285000Y-60785000D01*
G75*
G02*
X205460000Y-60610000I175000J0D01*
G01*
X207160000Y-60610000D01*
G75*
G02*
X207335000Y-60785000I0J-175000D01*
G01*
X207335000Y-61135000D01*
G75*
G02*
X207160000Y-61310000I-175000J0D01*
G01*
X205460000Y-61310000D01*
G75*
G02*
X205285000Y-61135000I0J175000D01*
G01*
G37*
G36*
G01*
X205285000Y-62405000D02*
X205285000Y-62055000D01*
G75*
G02*
X205460000Y-61880000I175000J0D01*
G01*
X207160000Y-61880000D01*
G75*
G02*
X207335000Y-62055000I0J-175000D01*
G01*
X207335000Y-62405000D01*
G75*
G02*
X207160000Y-62580000I-175000J0D01*
G01*
X205460000Y-62580000D01*
G75*
G02*
X205285000Y-62405000I0J175000D01*
G01*
G37*
G36*
G01*
X205285000Y-63675000D02*
X205285000Y-63325000D01*
G75*
G02*
X205460000Y-63150000I175000J0D01*
G01*
X207160000Y-63150000D01*
G75*
G02*
X207335000Y-63325000I0J-175000D01*
G01*
X207335000Y-63675000D01*
G75*
G02*
X207160000Y-63850000I-175000J0D01*
G01*
X205460000Y-63850000D01*
G75*
G02*
X205285000Y-63675000I0J175000D01*
G01*
G37*
G36*
G01*
X205285000Y-64945000D02*
X205285000Y-64595000D01*
G75*
G02*
X205460000Y-64420000I175000J0D01*
G01*
X207160000Y-64420000D01*
G75*
G02*
X207335000Y-64595000I0J-175000D01*
G01*
X207335000Y-64945000D01*
G75*
G02*
X207160000Y-65120000I-175000J0D01*
G01*
X205460000Y-65120000D01*
G75*
G02*
X205285000Y-64945000I0J175000D01*
G01*
G37*
G36*
G01*
X205285000Y-66215000D02*
X205285000Y-65865000D01*
G75*
G02*
X205460000Y-65690000I175000J0D01*
G01*
X207160000Y-65690000D01*
G75*
G02*
X207335000Y-65865000I0J-175000D01*
G01*
X207335000Y-66215000D01*
G75*
G02*
X207160000Y-66390000I-175000J0D01*
G01*
X205460000Y-66390000D01*
G75*
G02*
X205285000Y-66215000I0J175000D01*
G01*
G37*
G36*
G01*
X205285000Y-67485000D02*
X205285000Y-67135000D01*
G75*
G02*
X205460000Y-66960000I175000J0D01*
G01*
X207160000Y-66960000D01*
G75*
G02*
X207335000Y-67135000I0J-175000D01*
G01*
X207335000Y-67485000D01*
G75*
G02*
X207160000Y-67660000I-175000J0D01*
G01*
X205460000Y-67660000D01*
G75*
G02*
X205285000Y-67485000I0J175000D01*
G01*
G37*
G36*
G01*
X205285000Y-68755000D02*
X205285000Y-68405000D01*
G75*
G02*
X205460000Y-68230000I175000J0D01*
G01*
X207160000Y-68230000D01*
G75*
G02*
X207335000Y-68405000I0J-175000D01*
G01*
X207335000Y-68755000D01*
G75*
G02*
X207160000Y-68930000I-175000J0D01*
G01*
X205460000Y-68930000D01*
G75*
G02*
X205285000Y-68755000I0J175000D01*
G01*
G37*
G36*
G01*
X200335000Y-68755000D02*
X200335000Y-68405000D01*
G75*
G02*
X200510000Y-68230000I175000J0D01*
G01*
X202210000Y-68230000D01*
G75*
G02*
X202385000Y-68405000I0J-175000D01*
G01*
X202385000Y-68755000D01*
G75*
G02*
X202210000Y-68930000I-175000J0D01*
G01*
X200510000Y-68930000D01*
G75*
G02*
X200335000Y-68755000I0J175000D01*
G01*
G37*
G36*
G01*
X200335000Y-67485000D02*
X200335000Y-67135000D01*
G75*
G02*
X200510000Y-66960000I175000J0D01*
G01*
X202210000Y-66960000D01*
G75*
G02*
X202385000Y-67135000I0J-175000D01*
G01*
X202385000Y-67485000D01*
G75*
G02*
X202210000Y-67660000I-175000J0D01*
G01*
X200510000Y-67660000D01*
G75*
G02*
X200335000Y-67485000I0J175000D01*
G01*
G37*
G36*
G01*
X200335000Y-66215000D02*
X200335000Y-65865000D01*
G75*
G02*
X200510000Y-65690000I175000J0D01*
G01*
X202210000Y-65690000D01*
G75*
G02*
X202385000Y-65865000I0J-175000D01*
G01*
X202385000Y-66215000D01*
G75*
G02*
X202210000Y-66390000I-175000J0D01*
G01*
X200510000Y-66390000D01*
G75*
G02*
X200335000Y-66215000I0J175000D01*
G01*
G37*
G36*
G01*
X200335000Y-64945000D02*
X200335000Y-64595000D01*
G75*
G02*
X200510000Y-64420000I175000J0D01*
G01*
X202210000Y-64420000D01*
G75*
G02*
X202385000Y-64595000I0J-175000D01*
G01*
X202385000Y-64945000D01*
G75*
G02*
X202210000Y-65120000I-175000J0D01*
G01*
X200510000Y-65120000D01*
G75*
G02*
X200335000Y-64945000I0J175000D01*
G01*
G37*
G36*
G01*
X200335000Y-63675000D02*
X200335000Y-63325000D01*
G75*
G02*
X200510000Y-63150000I175000J0D01*
G01*
X202210000Y-63150000D01*
G75*
G02*
X202385000Y-63325000I0J-175000D01*
G01*
X202385000Y-63675000D01*
G75*
G02*
X202210000Y-63850000I-175000J0D01*
G01*
X200510000Y-63850000D01*
G75*
G02*
X200335000Y-63675000I0J175000D01*
G01*
G37*
G36*
G01*
X200335000Y-62405000D02*
X200335000Y-62055000D01*
G75*
G02*
X200510000Y-61880000I175000J0D01*
G01*
X202210000Y-61880000D01*
G75*
G02*
X202385000Y-62055000I0J-175000D01*
G01*
X202385000Y-62405000D01*
G75*
G02*
X202210000Y-62580000I-175000J0D01*
G01*
X200510000Y-62580000D01*
G75*
G02*
X200335000Y-62405000I0J175000D01*
G01*
G37*
G36*
G01*
X200335000Y-61135000D02*
X200335000Y-60785000D01*
G75*
G02*
X200510000Y-60610000I175000J0D01*
G01*
X202210000Y-60610000D01*
G75*
G02*
X202385000Y-60785000I0J-175000D01*
G01*
X202385000Y-61135000D01*
G75*
G02*
X202210000Y-61310000I-175000J0D01*
G01*
X200510000Y-61310000D01*
G75*
G02*
X200335000Y-61135000I0J175000D01*
G01*
G37*
G36*
G01*
X200335000Y-59865000D02*
X200335000Y-59515000D01*
G75*
G02*
X200510000Y-59340000I175000J0D01*
G01*
X202210000Y-59340000D01*
G75*
G02*
X202385000Y-59515000I0J-175000D01*
G01*
X202385000Y-59865000D01*
G75*
G02*
X202210000Y-60040000I-175000J0D01*
G01*
X200510000Y-60040000D01*
G75*
G02*
X200335000Y-59865000I0J175000D01*
G01*
G37*
G36*
G01*
X192795001Y-68515000D02*
X190995001Y-68515000D01*
G75*
G02*
X190945001Y-68465000I0J50000D01*
G01*
X190945001Y-66965000D01*
G75*
G02*
X190995001Y-66915000I50000J0D01*
G01*
X192795001Y-66915000D01*
G75*
G02*
X192845001Y-66965000I0J-50000D01*
G01*
X192845001Y-68465000D01*
G75*
G02*
X192795001Y-68515000I-50000J0D01*
G01*
G37*
G36*
G01*
X192795001Y-71515000D02*
X190995001Y-71515000D01*
G75*
G02*
X190945001Y-71465000I0J50000D01*
G01*
X190945001Y-69965000D01*
G75*
G02*
X190995001Y-69915000I50000J0D01*
G01*
X192795001Y-69915000D01*
G75*
G02*
X192845001Y-69965000I0J-50000D01*
G01*
X192845001Y-71465000D01*
G75*
G02*
X192795001Y-71515000I-50000J0D01*
G01*
G37*
G36*
G01*
X190194999Y-68515000D02*
X188394999Y-68515000D01*
G75*
G02*
X188344999Y-68465000I0J50000D01*
G01*
X188344999Y-66965000D01*
G75*
G02*
X188394999Y-66915000I50000J0D01*
G01*
X190194999Y-66915000D01*
G75*
G02*
X190244999Y-66965000I0J-50000D01*
G01*
X190244999Y-68465000D01*
G75*
G02*
X190194999Y-68515000I-50000J0D01*
G01*
G37*
G36*
G01*
X190194999Y-71515000D02*
X188394999Y-71515000D01*
G75*
G02*
X188344999Y-71465000I0J50000D01*
G01*
X188344999Y-69965000D01*
G75*
G02*
X188394999Y-69915000I50000J0D01*
G01*
X190194999Y-69915000D01*
G75*
G02*
X190244999Y-69965000I0J-50000D01*
G01*
X190244999Y-71465000D01*
G75*
G02*
X190194999Y-71515000I-50000J0D01*
G01*
G37*
G36*
G01*
X196052457Y-58965000D02*
X193837543Y-58965000D01*
G75*
G02*
X193570000Y-58697457I0J267543D01*
G01*
X193570000Y-57707543D01*
G75*
G02*
X193837543Y-57440000I267543J0D01*
G01*
X196052457Y-57440000D01*
G75*
G02*
X196320000Y-57707543I0J-267543D01*
G01*
X196320000Y-58697457D01*
G75*
G02*
X196052457Y-58965000I-267543J0D01*
G01*
G37*
G36*
G01*
X196052457Y-61940000D02*
X193837543Y-61940000D01*
G75*
G02*
X193570000Y-61672457I0J267543D01*
G01*
X193570000Y-60682543D01*
G75*
G02*
X193837543Y-60415000I267543J0D01*
G01*
X196052457Y-60415000D01*
G75*
G02*
X196320000Y-60682543I0J-267543D01*
G01*
X196320000Y-61672457D01*
G75*
G02*
X196052457Y-61940000I-267543J0D01*
G01*
G37*
G36*
G01*
X186990135Y-69585000D02*
X185627865Y-69585000D01*
G75*
G02*
X185359000Y-69316135I0J268865D01*
G01*
X185359000Y-68428865D01*
G75*
G02*
X185627865Y-68160000I268865J0D01*
G01*
X186990135Y-68160000D01*
G75*
G02*
X187259000Y-68428865I0J-268865D01*
G01*
X187259000Y-69316135D01*
G75*
G02*
X186990135Y-69585000I-268865J0D01*
G01*
G37*
G36*
G01*
X186990135Y-66460000D02*
X185627865Y-66460000D01*
G75*
G02*
X185359000Y-66191135I0J268865D01*
G01*
X185359000Y-65303865D01*
G75*
G02*
X185627865Y-65035000I268865J0D01*
G01*
X186990135Y-65035000D01*
G75*
G02*
X187259000Y-65303865I0J-268865D01*
G01*
X187259000Y-66191135D01*
G75*
G02*
X186990135Y-66460000I-268865J0D01*
G01*
G37*
G36*
G01*
X184011135Y-66460000D02*
X181748865Y-66460000D01*
G75*
G02*
X181480000Y-66191135I0J268865D01*
G01*
X181480000Y-65303865D01*
G75*
G02*
X181748865Y-65035000I268865J0D01*
G01*
X184011135Y-65035000D01*
G75*
G02*
X184280000Y-65303865I0J-268865D01*
G01*
X184280000Y-66191135D01*
G75*
G02*
X184011135Y-66460000I-268865J0D01*
G01*
G37*
G36*
G01*
X184011135Y-69585000D02*
X181748865Y-69585000D01*
G75*
G02*
X181480000Y-69316135I0J268865D01*
G01*
X181480000Y-68428865D01*
G75*
G02*
X181748865Y-68160000I268865J0D01*
G01*
X184011135Y-68160000D01*
G75*
G02*
X184280000Y-68428865I0J-268865D01*
G01*
X184280000Y-69316135D01*
G75*
G02*
X184011135Y-69585000I-268865J0D01*
G01*
G37*
G36*
G01*
X176271724Y-81431000D02*
X175264276Y-81431000D01*
G75*
G02*
X174993000Y-81159724I0J271276D01*
G01*
X174993000Y-80427276D01*
G75*
G02*
X175264276Y-80156000I271276J0D01*
G01*
X176271724Y-80156000D01*
G75*
G02*
X176543000Y-80427276I0J-271276D01*
G01*
X176543000Y-81159724D01*
G75*
G02*
X176271724Y-81431000I-271276J0D01*
G01*
G37*
G36*
G01*
X176271724Y-79356000D02*
X175264276Y-79356000D01*
G75*
G02*
X174993000Y-79084724I0J271276D01*
G01*
X174993000Y-78352276D01*
G75*
G02*
X175264276Y-78081000I271276J0D01*
G01*
X176271724Y-78081000D01*
G75*
G02*
X176543000Y-78352276I0J-271276D01*
G01*
X176543000Y-79084724D01*
G75*
G02*
X176271724Y-79356000I-271276J0D01*
G01*
G37*
G36*
G01*
X178705500Y-84459276D02*
X178705500Y-85466724D01*
G75*
G02*
X178434224Y-85738000I-271276J0D01*
G01*
X177701776Y-85738000D01*
G75*
G02*
X177430500Y-85466724I0J271276D01*
G01*
X177430500Y-84459276D01*
G75*
G02*
X177701776Y-84188000I271276J0D01*
G01*
X178434224Y-84188000D01*
G75*
G02*
X178705500Y-84459276I0J-271276D01*
G01*
G37*
G36*
G01*
X180780500Y-84459276D02*
X180780500Y-85466724D01*
G75*
G02*
X180509224Y-85738000I-271276J0D01*
G01*
X179776776Y-85738000D01*
G75*
G02*
X179505500Y-85466724I0J271276D01*
G01*
X179505500Y-84459276D01*
G75*
G02*
X179776776Y-84188000I271276J0D01*
G01*
X180509224Y-84188000D01*
G75*
G02*
X180780500Y-84459276I0J-271276D01*
G01*
G37*
G36*
G01*
X193110000Y-97670000D02*
X193110000Y-95370000D01*
G75*
G02*
X193160000Y-95320000I50000J0D01*
G01*
X195460000Y-95320000D01*
G75*
G02*
X195510000Y-95370000I0J-50000D01*
G01*
X195510000Y-97670000D01*
G75*
G02*
X195460000Y-97720000I-50000J0D01*
G01*
X193160000Y-97720000D01*
G75*
G02*
X193110000Y-97670000I0J50000D01*
G01*
G37*
G36*
G01*
X195760000Y-94790000D02*
X195760000Y-94440000D01*
G75*
G02*
X195935000Y-94265000I175000J0D01*
G01*
X197635000Y-94265000D01*
G75*
G02*
X197810000Y-94440000I0J-175000D01*
G01*
X197810000Y-94790000D01*
G75*
G02*
X197635000Y-94965000I-175000J0D01*
G01*
X195935000Y-94965000D01*
G75*
G02*
X195760000Y-94790000I0J175000D01*
G01*
G37*
G36*
G01*
X195760000Y-96060000D02*
X195760000Y-95710000D01*
G75*
G02*
X195935000Y-95535000I175000J0D01*
G01*
X197635000Y-95535000D01*
G75*
G02*
X197810000Y-95710000I0J-175000D01*
G01*
X197810000Y-96060000D01*
G75*
G02*
X197635000Y-96235000I-175000J0D01*
G01*
X195935000Y-96235000D01*
G75*
G02*
X195760000Y-96060000I0J175000D01*
G01*
G37*
G36*
G01*
X195760000Y-97330000D02*
X195760000Y-96980000D01*
G75*
G02*
X195935000Y-96805000I175000J0D01*
G01*
X197635000Y-96805000D01*
G75*
G02*
X197810000Y-96980000I0J-175000D01*
G01*
X197810000Y-97330000D01*
G75*
G02*
X197635000Y-97505000I-175000J0D01*
G01*
X195935000Y-97505000D01*
G75*
G02*
X195760000Y-97330000I0J175000D01*
G01*
G37*
G36*
G01*
X195760000Y-98600000D02*
X195760000Y-98250000D01*
G75*
G02*
X195935000Y-98075000I175000J0D01*
G01*
X197635000Y-98075000D01*
G75*
G02*
X197810000Y-98250000I0J-175000D01*
G01*
X197810000Y-98600000D01*
G75*
G02*
X197635000Y-98775000I-175000J0D01*
G01*
X195935000Y-98775000D01*
G75*
G02*
X195760000Y-98600000I0J175000D01*
G01*
G37*
G36*
G01*
X190810000Y-98600000D02*
X190810000Y-98250000D01*
G75*
G02*
X190985000Y-98075000I175000J0D01*
G01*
X192685000Y-98075000D01*
G75*
G02*
X192860000Y-98250000I0J-175000D01*
G01*
X192860000Y-98600000D01*
G75*
G02*
X192685000Y-98775000I-175000J0D01*
G01*
X190985000Y-98775000D01*
G75*
G02*
X190810000Y-98600000I0J175000D01*
G01*
G37*
G36*
G01*
X190810000Y-97330000D02*
X190810000Y-96980000D01*
G75*
G02*
X190985000Y-96805000I175000J0D01*
G01*
X192685000Y-96805000D01*
G75*
G02*
X192860000Y-96980000I0J-175000D01*
G01*
X192860000Y-97330000D01*
G75*
G02*
X192685000Y-97505000I-175000J0D01*
G01*
X190985000Y-97505000D01*
G75*
G02*
X190810000Y-97330000I0J175000D01*
G01*
G37*
G36*
G01*
X190810000Y-96060000D02*
X190810000Y-95710000D01*
G75*
G02*
X190985000Y-95535000I175000J0D01*
G01*
X192685000Y-95535000D01*
G75*
G02*
X192860000Y-95710000I0J-175000D01*
G01*
X192860000Y-96060000D01*
G75*
G02*
X192685000Y-96235000I-175000J0D01*
G01*
X190985000Y-96235000D01*
G75*
G02*
X190810000Y-96060000I0J175000D01*
G01*
G37*
G36*
G01*
X190810000Y-94790000D02*
X190810000Y-94440000D01*
G75*
G02*
X190985000Y-94265000I175000J0D01*
G01*
X192685000Y-94265000D01*
G75*
G02*
X192860000Y-94440000I0J-175000D01*
G01*
X192860000Y-94790000D01*
G75*
G02*
X192685000Y-94965000I-175000J0D01*
G01*
X190985000Y-94965000D01*
G75*
G02*
X190810000Y-94790000I0J175000D01*
G01*
G37*
G36*
G01*
X196684000Y-93206135D02*
X196684000Y-90943865D01*
G75*
G02*
X196952865Y-90675000I268865J0D01*
G01*
X197840135Y-90675000D01*
G75*
G02*
X198109000Y-90943865I0J-268865D01*
G01*
X198109000Y-93206135D01*
G75*
G02*
X197840135Y-93475000I-268865J0D01*
G01*
X196952865Y-93475000D01*
G75*
G02*
X196684000Y-93206135I0J268865D01*
G01*
G37*
G36*
G01*
X193559000Y-93206135D02*
X193559000Y-90943865D01*
G75*
G02*
X193827865Y-90675000I268865J0D01*
G01*
X194715135Y-90675000D01*
G75*
G02*
X194984000Y-90943865I0J-268865D01*
G01*
X194984000Y-93206135D01*
G75*
G02*
X194715135Y-93475000I-268865J0D01*
G01*
X193827865Y-93475000D01*
G75*
G02*
X193559000Y-93206135I0J268865D01*
G01*
G37*
D13*
X193675000Y-95885000D03*
X194945000Y-97155000D03*
X193675000Y-97155000D03*
X194310000Y-96520000D03*
X194945000Y-95885000D03*
D14*
X180848000Y-88646000D03*
D15*
X184785000Y-79375000D03*
X187960000Y-78105000D03*
X185801000Y-96901000D03*
X203962000Y-88265000D03*
X199263000Y-92710000D03*
D13*
X194945000Y-63690500D03*
X194945000Y-64516000D03*
X192405000Y-91884500D03*
X192405000Y-91059000D03*
X192405000Y-92710000D03*
X194945000Y-62865000D03*
X181544998Y-75565000D03*
X177800000Y-66675000D03*
X199390000Y-86995000D03*
X200025000Y-64770000D03*
X198437500Y-84772500D03*
X200025000Y-62230000D03*
X196850000Y-81915000D03*
X200025000Y-60960000D03*
X203200000Y-59690000D03*
X201360000Y-81280000D03*
X190500000Y-97155000D03*
X190500000Y-89916000D03*
X184785000Y-83820000D03*
X186055000Y-82245000D03*
X184785000Y-80645000D03*
D14*
X203200000Y-67310000D03*
D16*
G36*
X192271732Y-85544000D02*
G01*
X192272000Y-85545000D01*
X192272000Y-87145000D01*
X192271000Y-87146732D01*
X192270000Y-87147000D01*
X192120000Y-87147000D01*
X192118268Y-87146000D01*
X192118000Y-87145000D01*
X192118000Y-85547000D01*
X191472000Y-85547000D01*
X191472000Y-87145000D01*
X191471000Y-87146732D01*
X191470000Y-87147000D01*
X191320000Y-87147000D01*
X191318268Y-87146000D01*
X191318000Y-87145000D01*
X191318000Y-85547000D01*
X190672000Y-85547000D01*
X190672000Y-87145000D01*
X190671000Y-87146732D01*
X190670000Y-87147000D01*
X190520000Y-87147000D01*
X190518268Y-87146000D01*
X190518000Y-87145000D01*
X190518000Y-85547000D01*
X189872000Y-85547000D01*
X189872000Y-87145000D01*
X189871000Y-87146732D01*
X189870000Y-87147000D01*
X189720000Y-87147000D01*
X189718268Y-87146000D01*
X189718000Y-87145000D01*
X189718000Y-85547000D01*
X189072000Y-85547000D01*
X189072000Y-87145000D01*
X189071000Y-87146732D01*
X189070000Y-87147000D01*
X188920000Y-87147000D01*
X188918268Y-87146000D01*
X188918000Y-87145000D01*
X188918000Y-85547000D01*
X188272000Y-85547000D01*
X188272000Y-87145000D01*
X188271000Y-87146732D01*
X188270000Y-87147000D01*
X188120000Y-87147000D01*
X188118268Y-87146000D01*
X188118000Y-87145000D01*
X188118000Y-85547000D01*
X187472000Y-85547000D01*
X187472000Y-87145000D01*
X187471000Y-87146732D01*
X187470000Y-87147000D01*
X187320000Y-87147000D01*
X187318268Y-87146000D01*
X187318000Y-87145000D01*
X187318000Y-85547000D01*
X186672000Y-85547000D01*
X186672000Y-87145000D01*
X186671000Y-87146732D01*
X186670000Y-87147000D01*
X186520000Y-87147000D01*
X186518268Y-87146000D01*
X186518000Y-87145000D01*
X186518000Y-85547000D01*
X185872000Y-85547000D01*
X185872000Y-87145000D01*
X185871000Y-87146732D01*
X185870000Y-87147000D01*
X185720000Y-87147000D01*
X185718268Y-87146000D01*
X185718000Y-87145000D01*
X185718000Y-85547000D01*
X185072000Y-85547000D01*
X185072000Y-87145000D01*
X185071000Y-87146732D01*
X185070000Y-87147000D01*
X184920000Y-87147000D01*
X184918268Y-87146000D01*
X184918000Y-87145000D01*
X184918000Y-85545000D01*
X184919000Y-85543268D01*
X184920000Y-85543000D01*
X192270000Y-85543000D01*
X192271732Y-85544000D01*
G37*
G36*
X195096732Y-84169000D02*
G01*
X195097000Y-84170000D01*
X195097000Y-84320000D01*
X195096000Y-84321732D01*
X195095000Y-84322000D01*
X193495000Y-84322000D01*
X193493268Y-84321000D01*
X193493000Y-84320000D01*
X193493000Y-84170000D01*
X193494000Y-84168268D01*
X193495000Y-84168000D01*
X195095000Y-84168000D01*
X195096732Y-84169000D01*
G37*
G36*
X183696732Y-84169000D02*
G01*
X183697000Y-84170000D01*
X183697000Y-84320000D01*
X183696000Y-84321732D01*
X183695000Y-84322000D01*
X182095000Y-84322000D01*
X182093268Y-84321000D01*
X182093000Y-84320000D01*
X182093000Y-84170000D01*
X182094000Y-84168268D01*
X182095000Y-84168000D01*
X183695000Y-84168000D01*
X183696732Y-84169000D01*
G37*
G36*
X183696732Y-83369000D02*
G01*
X183697000Y-83370000D01*
X183697000Y-83520000D01*
X183696000Y-83521732D01*
X183695000Y-83522000D01*
X182095000Y-83522000D01*
X182093268Y-83521000D01*
X182093000Y-83520000D01*
X182093000Y-83370000D01*
X182094000Y-83368268D01*
X182095000Y-83368000D01*
X183695000Y-83368000D01*
X183696732Y-83369000D01*
G37*
G36*
X195096732Y-83369000D02*
G01*
X195097000Y-83370000D01*
X195097000Y-83520000D01*
X195096000Y-83521732D01*
X195095000Y-83522000D01*
X193495000Y-83522000D01*
X193493268Y-83521000D01*
X193493000Y-83520000D01*
X193493000Y-83370000D01*
X193494000Y-83368268D01*
X193495000Y-83368000D01*
X195095000Y-83368000D01*
X195096732Y-83369000D01*
G37*
G36*
X195096732Y-82569000D02*
G01*
X195097000Y-82570000D01*
X195097000Y-82720000D01*
X195096000Y-82721732D01*
X195095000Y-82722000D01*
X193495000Y-82722000D01*
X193493268Y-82721000D01*
X193493000Y-82720000D01*
X193493000Y-82570000D01*
X193494000Y-82568268D01*
X193495000Y-82568000D01*
X195095000Y-82568000D01*
X195096732Y-82569000D01*
G37*
G36*
X183696732Y-82569000D02*
G01*
X183697000Y-82570000D01*
X183697000Y-82720000D01*
X183696000Y-82721732D01*
X183695000Y-82722000D01*
X182095000Y-82722000D01*
X182093268Y-82721000D01*
X182093000Y-82720000D01*
X182093000Y-82570000D01*
X182094000Y-82568268D01*
X182095000Y-82568000D01*
X183695000Y-82568000D01*
X183696732Y-82569000D01*
G37*
G36*
X195096732Y-81769000D02*
G01*
X195097000Y-81770000D01*
X195097000Y-81920000D01*
X195096000Y-81921732D01*
X195095000Y-81922000D01*
X193495000Y-81922000D01*
X193493268Y-81921000D01*
X193493000Y-81920000D01*
X193493000Y-81770000D01*
X193494000Y-81768268D01*
X193495000Y-81768000D01*
X195095000Y-81768000D01*
X195096732Y-81769000D01*
G37*
G36*
X183696732Y-81769000D02*
G01*
X183697000Y-81770000D01*
X183697000Y-81920000D01*
X183696000Y-81921732D01*
X183695000Y-81922000D01*
X182095000Y-81922000D01*
X182093268Y-81921000D01*
X182093000Y-81920000D01*
X182093000Y-81770000D01*
X182094000Y-81768268D01*
X182095000Y-81768000D01*
X183695000Y-81768000D01*
X183696732Y-81769000D01*
G37*
G36*
X183696732Y-80969000D02*
G01*
X183697000Y-80970000D01*
X183697000Y-81120000D01*
X183696000Y-81121732D01*
X183695000Y-81122000D01*
X182095000Y-81122000D01*
X182093268Y-81121000D01*
X182093000Y-81120000D01*
X182093000Y-80970000D01*
X182094000Y-80968268D01*
X182095000Y-80968000D01*
X183695000Y-80968000D01*
X183696732Y-80969000D01*
G37*
G36*
X195096732Y-80969000D02*
G01*
X195097000Y-80970000D01*
X195097000Y-81120000D01*
X195096000Y-81121732D01*
X195095000Y-81122000D01*
X193495000Y-81122000D01*
X193493268Y-81121000D01*
X193493000Y-81120000D01*
X193493000Y-80970000D01*
X193494000Y-80968268D01*
X193495000Y-80968000D01*
X195095000Y-80968000D01*
X195096732Y-80969000D01*
G37*
G36*
X195096732Y-80169000D02*
G01*
X195097000Y-80170000D01*
X195097000Y-80320000D01*
X195096000Y-80321732D01*
X195095000Y-80322000D01*
X193495000Y-80322000D01*
X193493268Y-80321000D01*
X193493000Y-80320000D01*
X193493000Y-80170000D01*
X193494000Y-80168268D01*
X193495000Y-80168000D01*
X195095000Y-80168000D01*
X195096732Y-80169000D01*
G37*
G36*
X183696732Y-80169000D02*
G01*
X183697000Y-80170000D01*
X183697000Y-80320000D01*
X183696000Y-80321732D01*
X183695000Y-80322000D01*
X182095000Y-80322000D01*
X182093268Y-80321000D01*
X182093000Y-80320000D01*
X182093000Y-80170000D01*
X182094000Y-80168268D01*
X182095000Y-80168000D01*
X183695000Y-80168000D01*
X183696732Y-80169000D01*
G37*
G36*
X195096732Y-79369000D02*
G01*
X195097000Y-79370000D01*
X195097000Y-79520000D01*
X195096000Y-79521732D01*
X195095000Y-79522000D01*
X193495000Y-79522000D01*
X193493268Y-79521000D01*
X193493000Y-79520000D01*
X193493000Y-79370000D01*
X193494000Y-79368268D01*
X193495000Y-79368000D01*
X195095000Y-79368000D01*
X195096732Y-79369000D01*
G37*
G36*
X183696732Y-79369000D02*
G01*
X183697000Y-79370000D01*
X183697000Y-79520000D01*
X183696000Y-79521732D01*
X183695000Y-79522000D01*
X182095000Y-79522000D01*
X182093268Y-79521000D01*
X182093000Y-79520000D01*
X182093000Y-79370000D01*
X182094000Y-79368268D01*
X182095000Y-79368000D01*
X183695000Y-79368000D01*
X183696732Y-79369000D01*
G37*
G36*
X183696732Y-78569000D02*
G01*
X183697000Y-78570000D01*
X183697000Y-78720000D01*
X183696000Y-78721732D01*
X183695000Y-78722000D01*
X182095000Y-78722000D01*
X182093268Y-78721000D01*
X182093000Y-78720000D01*
X182093000Y-78570000D01*
X182094000Y-78568268D01*
X182095000Y-78568000D01*
X183695000Y-78568000D01*
X183696732Y-78569000D01*
G37*
G36*
X195096732Y-78569000D02*
G01*
X195097000Y-78570000D01*
X195097000Y-78720000D01*
X195096000Y-78721732D01*
X195095000Y-78722000D01*
X193495000Y-78722000D01*
X193493268Y-78721000D01*
X193493000Y-78720000D01*
X193493000Y-78570000D01*
X193494000Y-78568268D01*
X193495000Y-78568000D01*
X195095000Y-78568000D01*
X195096732Y-78569000D01*
G37*
G36*
X183696732Y-77769000D02*
G01*
X183697000Y-77770000D01*
X183697000Y-77920000D01*
X183696000Y-77921732D01*
X183695000Y-77922000D01*
X182095000Y-77922000D01*
X182093268Y-77921000D01*
X182093000Y-77920000D01*
X182093000Y-77770000D01*
X182094000Y-77768268D01*
X182095000Y-77768000D01*
X183695000Y-77768000D01*
X183696732Y-77769000D01*
G37*
G36*
X195096732Y-77769000D02*
G01*
X195097000Y-77770000D01*
X195097000Y-77920000D01*
X195096000Y-77921732D01*
X195095000Y-77922000D01*
X193495000Y-77922000D01*
X193493268Y-77921000D01*
X193493000Y-77920000D01*
X193493000Y-77770000D01*
X193494000Y-77768268D01*
X193495000Y-77768000D01*
X195095000Y-77768000D01*
X195096732Y-77769000D01*
G37*
G36*
X183696732Y-76969000D02*
G01*
X183697000Y-76970000D01*
X183697000Y-77120000D01*
X183696000Y-77121732D01*
X183695000Y-77122000D01*
X182095000Y-77122000D01*
X182093268Y-77121000D01*
X182093000Y-77120000D01*
X182093000Y-76970000D01*
X182094000Y-76968268D01*
X182095000Y-76968000D01*
X183695000Y-76968000D01*
X183696732Y-76969000D01*
G37*
G36*
X195096732Y-76969000D02*
G01*
X195097000Y-76970000D01*
X195097000Y-77120000D01*
X195096000Y-77121732D01*
X195095000Y-77122000D01*
X193495000Y-77122000D01*
X193493268Y-77121000D01*
X193493000Y-77120000D01*
X193493000Y-76970000D01*
X193494000Y-76968268D01*
X193495000Y-76968000D01*
X195095000Y-76968000D01*
X195096732Y-76969000D01*
G37*
G36*
X192271732Y-74144000D02*
G01*
X192272000Y-74145000D01*
X192272000Y-75745000D01*
X192271000Y-75746732D01*
X192270000Y-75747000D01*
X192120000Y-75747000D01*
X192118268Y-75746000D01*
X192118000Y-75745000D01*
X192118000Y-74147000D01*
X191472000Y-74147000D01*
X191472000Y-75745000D01*
X191471000Y-75746732D01*
X191470000Y-75747000D01*
X191320000Y-75747000D01*
X191318268Y-75746000D01*
X191318000Y-75745000D01*
X191318000Y-74147000D01*
X190672000Y-74147000D01*
X190672000Y-75745000D01*
X190671000Y-75746732D01*
X190670000Y-75747000D01*
X190520000Y-75747000D01*
X190518268Y-75746000D01*
X190518000Y-75745000D01*
X190518000Y-74147000D01*
X189872000Y-74147000D01*
X189872000Y-75745000D01*
X189871000Y-75746732D01*
X189870000Y-75747000D01*
X189720000Y-75747000D01*
X189718268Y-75746000D01*
X189718000Y-75745000D01*
X189718000Y-74147000D01*
X189072000Y-74147000D01*
X189072000Y-75745000D01*
X189071000Y-75746732D01*
X189070000Y-75747000D01*
X188920000Y-75747000D01*
X188918268Y-75746000D01*
X188918000Y-75745000D01*
X188918000Y-74147000D01*
X188272000Y-74147000D01*
X188272000Y-75745000D01*
X188271000Y-75746732D01*
X188270000Y-75747000D01*
X188120000Y-75747000D01*
X188118268Y-75746000D01*
X188118000Y-75745000D01*
X188118000Y-74147000D01*
X187472000Y-74147000D01*
X187472000Y-75745000D01*
X187471000Y-75746732D01*
X187470000Y-75747000D01*
X187320000Y-75747000D01*
X187318268Y-75746000D01*
X187318000Y-75745000D01*
X187318000Y-74147000D01*
X186672000Y-74147000D01*
X186672000Y-75745000D01*
X186671000Y-75746732D01*
X186670000Y-75747000D01*
X186520000Y-75747000D01*
X186518268Y-75746000D01*
X186518000Y-75745000D01*
X186518000Y-74147000D01*
X185872000Y-74147000D01*
X185872000Y-75745000D01*
X185871000Y-75746732D01*
X185870000Y-75747000D01*
X185720000Y-75747000D01*
X185718268Y-75746000D01*
X185718000Y-75745000D01*
X185718000Y-74147000D01*
X185072000Y-74147000D01*
X185072000Y-75745000D01*
X185071000Y-75746732D01*
X185070000Y-75747000D01*
X184920000Y-75747000D01*
X184918268Y-75746000D01*
X184918000Y-75745000D01*
X184918000Y-74145000D01*
X184919000Y-74143268D01*
X184920000Y-74143000D01*
X192270000Y-74143000D01*
X192271732Y-74144000D01*
G37*
M02*
