%TF.GenerationSoftware,KiCad,Pcbnew,(5.1.7)-1*%
%TF.CreationDate,2021-01-12T16:12:08+01:00*%
%TF.ProjectId,slckb,736c636b-622e-46b6-9963-61645f706362,rev?*%
%TF.SameCoordinates,Original*%
%TF.FileFunction,Soldermask,Bot*%
%TF.FilePolarity,Negative*%
%FSLAX46Y46*%
G04 Gerber Fmt 4.6, Leading zero omitted, Abs format (unit mm)*
G04 Created by KiCad (PCBNEW (5.1.7)-1) date 2021-01-12 16:12:08*
%MOMM*%
%LPD*%
G01*
G04 APERTURE LIST*
%ADD10O,1.800000X1.800000*%
%ADD11C,2.100000*%
%ADD12C,0.900000*%
%ADD13C,1.100000*%
%ADD14C,1.200000*%
%ADD15C,0.100000*%
G04 APERTURE END LIST*
D10*
X209550000Y-106680000D03*
X209550000Y-104140000D03*
X209550000Y-101600000D03*
X209550000Y-99060000D03*
X209550000Y-96520000D03*
X209550000Y-93980000D03*
X209550000Y-91440000D03*
X209550000Y-88900000D03*
X209550000Y-86360000D03*
X209550000Y-83820000D03*
X209550000Y-81280000D03*
X209550000Y-78740000D03*
X209550000Y-76200000D03*
X209550000Y-73660000D03*
X209550000Y-71120000D03*
X209550000Y-68580000D03*
X209550000Y-66040000D03*
X209550000Y-63500000D03*
X209550000Y-60960000D03*
X209550000Y-58420000D03*
X209550000Y-55880000D03*
G36*
G01*
X208650000Y-54190000D02*
X208650000Y-52490000D01*
G75*
G02*
X208700000Y-52440000I50000J0D01*
G01*
X210400000Y-52440000D01*
G75*
G02*
X210450000Y-52490000I0J-50000D01*
G01*
X210450000Y-54190000D01*
G75*
G02*
X210400000Y-54240000I-50000J0D01*
G01*
X208700000Y-54240000D01*
G75*
G02*
X208650000Y-54190000I0J50000D01*
G01*
G37*
X171450000Y-106680000D03*
X171450000Y-104140000D03*
X171450000Y-101600000D03*
X171450000Y-99060000D03*
X171450000Y-96520000D03*
X171450000Y-93980000D03*
X171450000Y-91440000D03*
X171450000Y-88900000D03*
X171450000Y-86360000D03*
X171450000Y-83820000D03*
X171450000Y-81280000D03*
X171450000Y-78740000D03*
X171450000Y-76200000D03*
X171450000Y-73660000D03*
X171450000Y-71120000D03*
X171450000Y-68580000D03*
X171450000Y-66040000D03*
X171450000Y-63500000D03*
X171450000Y-60960000D03*
X171450000Y-58420000D03*
X171450000Y-55880000D03*
G36*
G01*
X170550000Y-54190000D02*
X170550000Y-52490000D01*
G75*
G02*
X170600000Y-52440000I50000J0D01*
G01*
X172300000Y-52440000D01*
G75*
G02*
X172350000Y-52490000I0J-50000D01*
G01*
X172350000Y-54190000D01*
G75*
G02*
X172300000Y-54240000I-50000J0D01*
G01*
X170600000Y-54240000D01*
G75*
G02*
X170550000Y-54190000I0J50000D01*
G01*
G37*
D11*
X184785000Y-53975000D03*
X196215000Y-53975000D03*
G36*
G01*
X181140000Y-65130000D02*
X179540000Y-65130000D01*
G75*
G02*
X179490000Y-65080000I0J50000D01*
G01*
X179490000Y-62900000D01*
G75*
G02*
X179540000Y-62850000I50000J0D01*
G01*
X181140000Y-62850000D01*
G75*
G02*
X181190000Y-62900000I0J-50000D01*
G01*
X181190000Y-65080000D01*
G75*
G02*
X181140000Y-65130000I-50000J0D01*
G01*
G37*
G36*
G01*
X181140000Y-74310000D02*
X179540000Y-74310000D01*
G75*
G02*
X179490000Y-74260000I0J50000D01*
G01*
X179490000Y-72080000D01*
G75*
G02*
X179540000Y-72030000I50000J0D01*
G01*
X181140000Y-72030000D01*
G75*
G02*
X181190000Y-72080000I0J-50000D01*
G01*
X181190000Y-74260000D01*
G75*
G02*
X181140000Y-74310000I-50000J0D01*
G01*
G37*
D12*
X193675000Y-95885000D03*
X194945000Y-97155000D03*
X193675000Y-97155000D03*
X194310000Y-96520000D03*
X194945000Y-95885000D03*
D13*
X180848000Y-88646000D03*
D14*
X184785000Y-79375000D03*
X187960000Y-78105000D03*
X185801000Y-96901000D03*
X203962000Y-88265000D03*
X199263000Y-92710000D03*
D12*
X194945000Y-63690500D03*
X194945000Y-64516000D03*
X192405000Y-91884500D03*
X192405000Y-91059000D03*
X192405000Y-92710000D03*
X194945000Y-62865000D03*
X181544998Y-75565000D03*
X177800000Y-66675000D03*
X199390000Y-86995000D03*
X200025000Y-64770000D03*
X198437500Y-84772500D03*
X200025000Y-62230000D03*
X196850000Y-81915000D03*
X200025000Y-60960000D03*
X203200000Y-59690000D03*
X201360000Y-81280000D03*
X190500000Y-97155000D03*
X190500000Y-89916000D03*
X184785000Y-83820000D03*
X186055000Y-82245000D03*
X184785000Y-80645000D03*
D13*
X203200000Y-67310000D03*
D15*
G36*
X194751734Y-96599897D02*
G01*
X194752405Y-96601597D01*
X194750983Y-96616027D01*
X194752865Y-96635140D01*
X194758443Y-96653526D01*
X194767498Y-96670467D01*
X194779684Y-96685316D01*
X194794532Y-96697502D01*
X194811474Y-96706557D01*
X194829859Y-96712134D01*
X194848973Y-96714017D01*
X194863403Y-96712595D01*
X194865225Y-96713420D01*
X194865421Y-96715410D01*
X194863989Y-96716547D01*
X194814954Y-96726301D01*
X194733818Y-96759908D01*
X194660797Y-96808699D01*
X194598699Y-96870797D01*
X194549908Y-96943818D01*
X194516301Y-97024954D01*
X194506547Y-97073989D01*
X194505228Y-97075493D01*
X194503266Y-97075103D01*
X194502595Y-97073403D01*
X194504017Y-97058973D01*
X194502135Y-97039860D01*
X194496557Y-97021474D01*
X194487502Y-97004533D01*
X194475316Y-96989684D01*
X194460468Y-96977498D01*
X194443526Y-96968443D01*
X194425141Y-96962866D01*
X194406027Y-96960983D01*
X194391597Y-96962405D01*
X194389775Y-96961580D01*
X194389579Y-96959590D01*
X194391011Y-96958453D01*
X194440046Y-96948699D01*
X194521182Y-96915092D01*
X194594203Y-96866301D01*
X194656301Y-96804203D01*
X194705092Y-96731182D01*
X194738699Y-96650046D01*
X194748453Y-96601011D01*
X194749772Y-96599507D01*
X194751734Y-96599897D01*
G37*
G36*
X193871547Y-96601011D02*
G01*
X193881301Y-96650046D01*
X193914908Y-96731182D01*
X193963699Y-96804203D01*
X194025797Y-96866301D01*
X194098818Y-96915092D01*
X194179954Y-96948699D01*
X194228989Y-96958453D01*
X194230493Y-96959772D01*
X194230103Y-96961734D01*
X194228403Y-96962405D01*
X194213973Y-96960983D01*
X194194860Y-96962865D01*
X194176474Y-96968443D01*
X194159533Y-96977498D01*
X194144684Y-96989684D01*
X194132498Y-97004532D01*
X194123443Y-97021474D01*
X194117866Y-97039859D01*
X194115983Y-97058973D01*
X194117405Y-97073403D01*
X194116580Y-97075225D01*
X194114590Y-97075421D01*
X194113453Y-97073989D01*
X194103699Y-97024954D01*
X194070092Y-96943818D01*
X194021301Y-96870797D01*
X193959203Y-96808699D01*
X193886182Y-96759908D01*
X193805046Y-96726301D01*
X193756011Y-96716547D01*
X193754507Y-96715228D01*
X193754897Y-96713266D01*
X193756597Y-96712595D01*
X193771027Y-96714017D01*
X193790140Y-96712135D01*
X193808526Y-96706557D01*
X193825467Y-96697502D01*
X193840316Y-96685316D01*
X193852502Y-96670468D01*
X193861557Y-96653526D01*
X193867134Y-96635141D01*
X193869017Y-96616027D01*
X193867595Y-96601597D01*
X193868420Y-96599775D01*
X193870410Y-96599579D01*
X193871547Y-96601011D01*
G37*
G36*
X194116734Y-95964897D02*
G01*
X194117405Y-95966597D01*
X194115983Y-95981027D01*
X194117865Y-96000140D01*
X194123443Y-96018526D01*
X194132498Y-96035467D01*
X194144684Y-96050316D01*
X194159532Y-96062502D01*
X194176474Y-96071557D01*
X194194859Y-96077134D01*
X194213973Y-96079017D01*
X194228403Y-96077595D01*
X194230225Y-96078420D01*
X194230421Y-96080410D01*
X194228989Y-96081547D01*
X194179954Y-96091301D01*
X194098818Y-96124908D01*
X194025797Y-96173699D01*
X193963699Y-96235797D01*
X193914908Y-96308818D01*
X193881301Y-96389954D01*
X193871547Y-96438989D01*
X193870228Y-96440493D01*
X193868266Y-96440103D01*
X193867595Y-96438403D01*
X193869017Y-96423973D01*
X193867135Y-96404860D01*
X193861557Y-96386474D01*
X193852502Y-96369533D01*
X193840316Y-96354684D01*
X193825468Y-96342498D01*
X193808526Y-96333443D01*
X193790141Y-96327866D01*
X193771027Y-96325983D01*
X193756597Y-96327405D01*
X193754775Y-96326580D01*
X193754579Y-96324590D01*
X193756011Y-96323453D01*
X193805046Y-96313699D01*
X193886182Y-96280092D01*
X193959203Y-96231301D01*
X194021301Y-96169203D01*
X194070092Y-96096182D01*
X194103699Y-96015046D01*
X194113453Y-95966011D01*
X194114772Y-95964507D01*
X194116734Y-95964897D01*
G37*
G36*
X194506547Y-95966011D02*
G01*
X194516301Y-96015046D01*
X194549908Y-96096182D01*
X194598699Y-96169203D01*
X194660797Y-96231301D01*
X194733818Y-96280092D01*
X194814954Y-96313699D01*
X194863989Y-96323453D01*
X194865493Y-96324772D01*
X194865103Y-96326734D01*
X194863403Y-96327405D01*
X194848973Y-96325983D01*
X194829860Y-96327865D01*
X194811474Y-96333443D01*
X194794533Y-96342498D01*
X194779684Y-96354684D01*
X194767498Y-96369532D01*
X194758443Y-96386474D01*
X194752866Y-96404859D01*
X194750983Y-96423973D01*
X194752405Y-96438403D01*
X194751580Y-96440225D01*
X194749590Y-96440421D01*
X194748453Y-96438989D01*
X194738699Y-96389954D01*
X194705092Y-96308818D01*
X194656301Y-96235797D01*
X194594203Y-96173699D01*
X194521182Y-96124908D01*
X194440046Y-96091301D01*
X194391011Y-96081547D01*
X194389507Y-96080228D01*
X194389897Y-96078266D01*
X194391597Y-96077595D01*
X194406027Y-96079017D01*
X194425140Y-96077135D01*
X194443526Y-96071557D01*
X194460467Y-96062502D01*
X194475316Y-96050316D01*
X194487502Y-96035468D01*
X194496557Y-96018526D01*
X194502134Y-96000141D01*
X194504017Y-95981027D01*
X194502595Y-95966597D01*
X194503420Y-95964775D01*
X194505410Y-95964579D01*
X194506547Y-95966011D01*
G37*
M02*
