%TF.GenerationSoftware,KiCad,Pcbnew,(5.1.7)-1*%
%TF.CreationDate,2021-01-12T16:12:07+01:00*%
%TF.ProjectId,slckb,736c636b-622e-46b6-9963-61645f706362,rev?*%
%TF.SameCoordinates,Original*%
%TF.FileFunction,Copper,L2,Bot*%
%TF.FilePolarity,Positive*%
%FSLAX46Y46*%
G04 Gerber Fmt 4.6, Leading zero omitted, Abs format (unit mm)*
G04 Created by KiCad (PCBNEW (5.1.7)-1) date 2021-01-12 16:12:07*
%MOMM*%
%LPD*%
G01*
G04 APERTURE LIST*
%TA.AperFunction,ComponentPad*%
%ADD10O,1.700000X1.700000*%
%TD*%
%TA.AperFunction,ComponentPad*%
%ADD11R,1.700000X1.700000*%
%TD*%
%TA.AperFunction,ComponentPad*%
%ADD12C,2.000000*%
%TD*%
%TA.AperFunction,SMDPad,CuDef*%
%ADD13R,1.600000X2.180000*%
%TD*%
%TA.AperFunction,ViaPad*%
%ADD14C,0.800000*%
%TD*%
%TA.AperFunction,ViaPad*%
%ADD15C,1.000000*%
%TD*%
%TA.AperFunction,ViaPad*%
%ADD16C,1.100000*%
%TD*%
%TA.AperFunction,Conductor*%
%ADD17C,1.000000*%
%TD*%
%TA.AperFunction,Conductor*%
%ADD18C,0.250000*%
%TD*%
%TA.AperFunction,Conductor*%
%ADD19C,0.400000*%
%TD*%
%TA.AperFunction,Conductor*%
%ADD20C,0.254000*%
%TD*%
%TA.AperFunction,Conductor*%
%ADD21C,0.100000*%
%TD*%
%TA.AperFunction,Conductor*%
%ADD22C,0.025400*%
%TD*%
G04 APERTURE END LIST*
D10*
X209550000Y-106680000D03*
X209550000Y-104140000D03*
X209550000Y-101600000D03*
X209550000Y-99060000D03*
X209550000Y-96520000D03*
X209550000Y-93980000D03*
X209550000Y-91440000D03*
X209550000Y-88900000D03*
X209550000Y-86360000D03*
X209550000Y-83820000D03*
X209550000Y-81280000D03*
X209550000Y-78740000D03*
X209550000Y-76200000D03*
X209550000Y-73660000D03*
X209550000Y-71120000D03*
X209550000Y-68580000D03*
X209550000Y-66040000D03*
X209550000Y-63500000D03*
X209550000Y-60960000D03*
X209550000Y-58420000D03*
X209550000Y-55880000D03*
D11*
X209550000Y-53340000D03*
D10*
X171450000Y-106680000D03*
X171450000Y-104140000D03*
X171450000Y-101600000D03*
X171450000Y-99060000D03*
X171450000Y-96520000D03*
X171450000Y-93980000D03*
X171450000Y-91440000D03*
X171450000Y-88900000D03*
X171450000Y-86360000D03*
X171450000Y-83820000D03*
X171450000Y-81280000D03*
X171450000Y-78740000D03*
X171450000Y-76200000D03*
X171450000Y-73660000D03*
X171450000Y-71120000D03*
X171450000Y-68580000D03*
X171450000Y-66040000D03*
X171450000Y-63500000D03*
X171450000Y-60960000D03*
X171450000Y-58420000D03*
X171450000Y-55880000D03*
D11*
X171450000Y-53340000D03*
D12*
X184785000Y-53975000D03*
X196215000Y-53975000D03*
D13*
X180340000Y-63990000D03*
X180340000Y-73170000D03*
D14*
X193675000Y-95885000D03*
X194945000Y-97155000D03*
X193675000Y-97155000D03*
X194310000Y-96520000D03*
X194945000Y-95885000D03*
D15*
X180848000Y-88646000D03*
D16*
X184785000Y-79375000D03*
X187960000Y-78105000D03*
X185801000Y-96901000D03*
X203962000Y-88265000D03*
X199263000Y-92710000D03*
D14*
X194945000Y-63690500D03*
X194945000Y-64516000D03*
X192405000Y-91884500D03*
X192405000Y-91059000D03*
X192405000Y-92710000D03*
X194945000Y-62865000D03*
X181544998Y-75565000D03*
X177800000Y-66675000D03*
X199390000Y-86995000D03*
X200025000Y-64770000D03*
X198437500Y-84772500D03*
X200025000Y-62230000D03*
X196850000Y-81915000D03*
X200025000Y-60960000D03*
X203200000Y-59690000D03*
X201360000Y-81280000D03*
X190500000Y-97155000D03*
X190500000Y-89916000D03*
X184785000Y-83820000D03*
X186055000Y-82245000D03*
X184785000Y-80645000D03*
D15*
X203200000Y-67310000D03*
D17*
X192405000Y-92710000D02*
X192405000Y-91059000D01*
X192405000Y-91059000D02*
X192405000Y-76835000D01*
X192405000Y-76835000D02*
X194945000Y-74295000D01*
X194945000Y-74295000D02*
X194945000Y-62865000D01*
X204470000Y-53340000D02*
X209550000Y-53340000D01*
X194945000Y-62865000D02*
X204470000Y-53340000D01*
D18*
X180340000Y-74360002D02*
X181544998Y-75565000D01*
X180340000Y-73170000D02*
X180340000Y-74360002D01*
X177800000Y-70630000D02*
X180340000Y-73170000D01*
X177800000Y-66675000D02*
X177800000Y-70630000D01*
X200025000Y-86360000D02*
X200025000Y-64770000D01*
X199390000Y-86995000D02*
X200025000Y-86360000D01*
X198437500Y-63817500D02*
X200025000Y-62230000D01*
X198437500Y-84772500D02*
X198437500Y-63817500D01*
X200025000Y-60960000D02*
X196850000Y-64135000D01*
X196850000Y-64135000D02*
X196850000Y-81915000D01*
X201360000Y-61530000D02*
X203200000Y-59690000D01*
X201360000Y-81280000D02*
X201360000Y-61530000D01*
D19*
X190500000Y-90170000D02*
X190500000Y-97155000D01*
X190500000Y-89916000D02*
X190500000Y-90170000D01*
X173990000Y-83820000D02*
X171450000Y-81280000D01*
X184785000Y-83820000D02*
X173990000Y-83820000D01*
X174955000Y-82245000D02*
X171450000Y-78740000D01*
X186055000Y-82245000D02*
X174955000Y-82245000D01*
X175895000Y-80645000D02*
X171450000Y-76200000D01*
X184785000Y-80645000D02*
X175895000Y-80645000D01*
X208915000Y-73660000D02*
X209550000Y-73660000D01*
X203200000Y-67310000D02*
X209550000Y-73660000D01*
D20*
X211049001Y-108179000D02*
X169951000Y-108179000D01*
X169951000Y-106558757D01*
X170219000Y-106558757D01*
X170219000Y-106801243D01*
X170266307Y-107039069D01*
X170359102Y-107263097D01*
X170493820Y-107464717D01*
X170665283Y-107636180D01*
X170866903Y-107770898D01*
X171090931Y-107863693D01*
X171328757Y-107911000D01*
X171571243Y-107911000D01*
X171809069Y-107863693D01*
X172033097Y-107770898D01*
X172234717Y-107636180D01*
X172406180Y-107464717D01*
X172540898Y-107263097D01*
X172633693Y-107039069D01*
X172681000Y-106801243D01*
X172681000Y-106558757D01*
X208319000Y-106558757D01*
X208319000Y-106801243D01*
X208366307Y-107039069D01*
X208459102Y-107263097D01*
X208593820Y-107464717D01*
X208765283Y-107636180D01*
X208966903Y-107770898D01*
X209190931Y-107863693D01*
X209428757Y-107911000D01*
X209671243Y-107911000D01*
X209909069Y-107863693D01*
X210133097Y-107770898D01*
X210334717Y-107636180D01*
X210506180Y-107464717D01*
X210640898Y-107263097D01*
X210733693Y-107039069D01*
X210781000Y-106801243D01*
X210781000Y-106558757D01*
X210733693Y-106320931D01*
X210640898Y-106096903D01*
X210506180Y-105895283D01*
X210334717Y-105723820D01*
X210133097Y-105589102D01*
X209909069Y-105496307D01*
X209671243Y-105449000D01*
X209428757Y-105449000D01*
X209190931Y-105496307D01*
X208966903Y-105589102D01*
X208765283Y-105723820D01*
X208593820Y-105895283D01*
X208459102Y-106096903D01*
X208366307Y-106320931D01*
X208319000Y-106558757D01*
X172681000Y-106558757D01*
X172633693Y-106320931D01*
X172540898Y-106096903D01*
X172406180Y-105895283D01*
X172234717Y-105723820D01*
X172033097Y-105589102D01*
X171809069Y-105496307D01*
X171571243Y-105449000D01*
X171328757Y-105449000D01*
X171090931Y-105496307D01*
X170866903Y-105589102D01*
X170665283Y-105723820D01*
X170493820Y-105895283D01*
X170359102Y-106096903D01*
X170266307Y-106320931D01*
X170219000Y-106558757D01*
X169951000Y-106558757D01*
X169951000Y-104018757D01*
X170219000Y-104018757D01*
X170219000Y-104261243D01*
X170266307Y-104499069D01*
X170359102Y-104723097D01*
X170493820Y-104924717D01*
X170665283Y-105096180D01*
X170866903Y-105230898D01*
X171090931Y-105323693D01*
X171328757Y-105371000D01*
X171571243Y-105371000D01*
X171809069Y-105323693D01*
X172033097Y-105230898D01*
X172234717Y-105096180D01*
X172406180Y-104924717D01*
X172540898Y-104723097D01*
X172633693Y-104499069D01*
X172681000Y-104261243D01*
X172681000Y-104018757D01*
X208319000Y-104018757D01*
X208319000Y-104261243D01*
X208366307Y-104499069D01*
X208459102Y-104723097D01*
X208593820Y-104924717D01*
X208765283Y-105096180D01*
X208966903Y-105230898D01*
X209190931Y-105323693D01*
X209428757Y-105371000D01*
X209671243Y-105371000D01*
X209909069Y-105323693D01*
X210133097Y-105230898D01*
X210334717Y-105096180D01*
X210506180Y-104924717D01*
X210640898Y-104723097D01*
X210733693Y-104499069D01*
X210781000Y-104261243D01*
X210781000Y-104018757D01*
X210733693Y-103780931D01*
X210640898Y-103556903D01*
X210506180Y-103355283D01*
X210334717Y-103183820D01*
X210133097Y-103049102D01*
X209909069Y-102956307D01*
X209671243Y-102909000D01*
X209428757Y-102909000D01*
X209190931Y-102956307D01*
X208966903Y-103049102D01*
X208765283Y-103183820D01*
X208593820Y-103355283D01*
X208459102Y-103556903D01*
X208366307Y-103780931D01*
X208319000Y-104018757D01*
X172681000Y-104018757D01*
X172633693Y-103780931D01*
X172540898Y-103556903D01*
X172406180Y-103355283D01*
X172234717Y-103183820D01*
X172033097Y-103049102D01*
X171809069Y-102956307D01*
X171571243Y-102909000D01*
X171328757Y-102909000D01*
X171090931Y-102956307D01*
X170866903Y-103049102D01*
X170665283Y-103183820D01*
X170493820Y-103355283D01*
X170359102Y-103556903D01*
X170266307Y-103780931D01*
X170219000Y-104018757D01*
X169951000Y-104018757D01*
X169951000Y-101478757D01*
X170219000Y-101478757D01*
X170219000Y-101721243D01*
X170266307Y-101959069D01*
X170359102Y-102183097D01*
X170493820Y-102384717D01*
X170665283Y-102556180D01*
X170866903Y-102690898D01*
X171090931Y-102783693D01*
X171328757Y-102831000D01*
X171571243Y-102831000D01*
X171809069Y-102783693D01*
X172033097Y-102690898D01*
X172234717Y-102556180D01*
X172406180Y-102384717D01*
X172540898Y-102183097D01*
X172633693Y-101959069D01*
X172681000Y-101721243D01*
X172681000Y-101478757D01*
X208319000Y-101478757D01*
X208319000Y-101721243D01*
X208366307Y-101959069D01*
X208459102Y-102183097D01*
X208593820Y-102384717D01*
X208765283Y-102556180D01*
X208966903Y-102690898D01*
X209190931Y-102783693D01*
X209428757Y-102831000D01*
X209671243Y-102831000D01*
X209909069Y-102783693D01*
X210133097Y-102690898D01*
X210334717Y-102556180D01*
X210506180Y-102384717D01*
X210640898Y-102183097D01*
X210733693Y-101959069D01*
X210781000Y-101721243D01*
X210781000Y-101478757D01*
X210733693Y-101240931D01*
X210640898Y-101016903D01*
X210506180Y-100815283D01*
X210334717Y-100643820D01*
X210133097Y-100509102D01*
X209909069Y-100416307D01*
X209671243Y-100369000D01*
X209428757Y-100369000D01*
X209190931Y-100416307D01*
X208966903Y-100509102D01*
X208765283Y-100643820D01*
X208593820Y-100815283D01*
X208459102Y-101016903D01*
X208366307Y-101240931D01*
X208319000Y-101478757D01*
X172681000Y-101478757D01*
X172633693Y-101240931D01*
X172540898Y-101016903D01*
X172406180Y-100815283D01*
X172234717Y-100643820D01*
X172033097Y-100509102D01*
X171809069Y-100416307D01*
X171571243Y-100369000D01*
X171328757Y-100369000D01*
X171090931Y-100416307D01*
X170866903Y-100509102D01*
X170665283Y-100643820D01*
X170493820Y-100815283D01*
X170359102Y-101016903D01*
X170266307Y-101240931D01*
X170219000Y-101478757D01*
X169951000Y-101478757D01*
X169951000Y-98938757D01*
X170219000Y-98938757D01*
X170219000Y-99181243D01*
X170266307Y-99419069D01*
X170359102Y-99643097D01*
X170493820Y-99844717D01*
X170665283Y-100016180D01*
X170866903Y-100150898D01*
X171090931Y-100243693D01*
X171328757Y-100291000D01*
X171571243Y-100291000D01*
X171809069Y-100243693D01*
X172033097Y-100150898D01*
X172234717Y-100016180D01*
X172406180Y-99844717D01*
X172540898Y-99643097D01*
X172633693Y-99419069D01*
X172681000Y-99181243D01*
X172681000Y-98938757D01*
X208319000Y-98938757D01*
X208319000Y-99181243D01*
X208366307Y-99419069D01*
X208459102Y-99643097D01*
X208593820Y-99844717D01*
X208765283Y-100016180D01*
X208966903Y-100150898D01*
X209190931Y-100243693D01*
X209428757Y-100291000D01*
X209671243Y-100291000D01*
X209909069Y-100243693D01*
X210133097Y-100150898D01*
X210334717Y-100016180D01*
X210506180Y-99844717D01*
X210640898Y-99643097D01*
X210733693Y-99419069D01*
X210781000Y-99181243D01*
X210781000Y-98938757D01*
X210733693Y-98700931D01*
X210640898Y-98476903D01*
X210506180Y-98275283D01*
X210334717Y-98103820D01*
X210133097Y-97969102D01*
X209909069Y-97876307D01*
X209671243Y-97829000D01*
X209428757Y-97829000D01*
X209190931Y-97876307D01*
X208966903Y-97969102D01*
X208765283Y-98103820D01*
X208593820Y-98275283D01*
X208459102Y-98476903D01*
X208366307Y-98700931D01*
X208319000Y-98938757D01*
X172681000Y-98938757D01*
X172633693Y-98700931D01*
X172540898Y-98476903D01*
X172406180Y-98275283D01*
X172234717Y-98103820D01*
X172033097Y-97969102D01*
X171809069Y-97876307D01*
X171571243Y-97829000D01*
X171328757Y-97829000D01*
X171090931Y-97876307D01*
X170866903Y-97969102D01*
X170665283Y-98103820D01*
X170493820Y-98275283D01*
X170359102Y-98476903D01*
X170266307Y-98700931D01*
X170219000Y-98938757D01*
X169951000Y-98938757D01*
X169951000Y-96398757D01*
X170219000Y-96398757D01*
X170219000Y-96641243D01*
X170266307Y-96879069D01*
X170359102Y-97103097D01*
X170493820Y-97304717D01*
X170665283Y-97476180D01*
X170866903Y-97610898D01*
X171090931Y-97703693D01*
X171328757Y-97751000D01*
X171571243Y-97751000D01*
X171809069Y-97703693D01*
X172033097Y-97610898D01*
X172234717Y-97476180D01*
X172406180Y-97304717D01*
X172540898Y-97103097D01*
X172633693Y-96879069D01*
X172681000Y-96641243D01*
X172681000Y-96398757D01*
X172633693Y-96160931D01*
X172540898Y-95936903D01*
X172406180Y-95735283D01*
X172234717Y-95563820D01*
X172033097Y-95429102D01*
X171809069Y-95336307D01*
X171571243Y-95289000D01*
X171328757Y-95289000D01*
X171090931Y-95336307D01*
X170866903Y-95429102D01*
X170665283Y-95563820D01*
X170493820Y-95735283D01*
X170359102Y-95936903D01*
X170266307Y-96160931D01*
X170219000Y-96398757D01*
X169951000Y-96398757D01*
X169951000Y-93858757D01*
X170219000Y-93858757D01*
X170219000Y-94101243D01*
X170266307Y-94339069D01*
X170359102Y-94563097D01*
X170493820Y-94764717D01*
X170665283Y-94936180D01*
X170866903Y-95070898D01*
X171090931Y-95163693D01*
X171328757Y-95211000D01*
X171571243Y-95211000D01*
X171809069Y-95163693D01*
X172033097Y-95070898D01*
X172234717Y-94936180D01*
X172406180Y-94764717D01*
X172540898Y-94563097D01*
X172633693Y-94339069D01*
X172681000Y-94101243D01*
X172681000Y-93858757D01*
X172633693Y-93620931D01*
X172540898Y-93396903D01*
X172406180Y-93195283D01*
X172234717Y-93023820D01*
X172033097Y-92889102D01*
X171809069Y-92796307D01*
X171571243Y-92749000D01*
X171328757Y-92749000D01*
X171090931Y-92796307D01*
X170866903Y-92889102D01*
X170665283Y-93023820D01*
X170493820Y-93195283D01*
X170359102Y-93396903D01*
X170266307Y-93620931D01*
X170219000Y-93858757D01*
X169951000Y-93858757D01*
X169951000Y-91318757D01*
X170219000Y-91318757D01*
X170219000Y-91561243D01*
X170266307Y-91799069D01*
X170359102Y-92023097D01*
X170493820Y-92224717D01*
X170665283Y-92396180D01*
X170866903Y-92530898D01*
X171090931Y-92623693D01*
X171328757Y-92671000D01*
X171571243Y-92671000D01*
X171809069Y-92623693D01*
X172033097Y-92530898D01*
X172234717Y-92396180D01*
X172406180Y-92224717D01*
X172540898Y-92023097D01*
X172633693Y-91799069D01*
X172681000Y-91561243D01*
X172681000Y-91318757D01*
X172633693Y-91080931D01*
X172540898Y-90856903D01*
X172406180Y-90655283D01*
X172234717Y-90483820D01*
X172033097Y-90349102D01*
X171809069Y-90256307D01*
X171571243Y-90209000D01*
X171328757Y-90209000D01*
X171090931Y-90256307D01*
X170866903Y-90349102D01*
X170665283Y-90483820D01*
X170493820Y-90655283D01*
X170359102Y-90856903D01*
X170266307Y-91080931D01*
X170219000Y-91318757D01*
X169951000Y-91318757D01*
X169951000Y-88778757D01*
X170219000Y-88778757D01*
X170219000Y-89021243D01*
X170266307Y-89259069D01*
X170359102Y-89483097D01*
X170493820Y-89684717D01*
X170665283Y-89856180D01*
X170866903Y-89990898D01*
X171090931Y-90083693D01*
X171328757Y-90131000D01*
X171571243Y-90131000D01*
X171809069Y-90083693D01*
X172033097Y-89990898D01*
X172234717Y-89856180D01*
X172251819Y-89839078D01*
X189719000Y-89839078D01*
X189719000Y-89992922D01*
X189749013Y-90143809D01*
X189807887Y-90285942D01*
X189893358Y-90413859D01*
X189903807Y-90424308D01*
X189903981Y-90425210D01*
X189908680Y-90459239D01*
X189912904Y-90503580D01*
X189916187Y-90557269D01*
X189918265Y-90619634D01*
X189919000Y-90691915D01*
X189919001Y-96629962D01*
X189918959Y-96631540D01*
X189893358Y-96657141D01*
X189807887Y-96785058D01*
X189749013Y-96927191D01*
X189719000Y-97078078D01*
X189719000Y-97231922D01*
X189749013Y-97382809D01*
X189807887Y-97524942D01*
X189893358Y-97652859D01*
X190002141Y-97761642D01*
X190130058Y-97847113D01*
X190272191Y-97905987D01*
X190423078Y-97936000D01*
X190576922Y-97936000D01*
X190727809Y-97905987D01*
X190869942Y-97847113D01*
X190997859Y-97761642D01*
X191106642Y-97652859D01*
X191192113Y-97524942D01*
X191250987Y-97382809D01*
X191281000Y-97231922D01*
X191281000Y-97078078D01*
X191250987Y-96927191D01*
X191192113Y-96785058D01*
X191106642Y-96657141D01*
X191081041Y-96631540D01*
X191081000Y-96629993D01*
X191081000Y-96398757D01*
X208319000Y-96398757D01*
X208319000Y-96641243D01*
X208366307Y-96879069D01*
X208459102Y-97103097D01*
X208593820Y-97304717D01*
X208765283Y-97476180D01*
X208966903Y-97610898D01*
X209190931Y-97703693D01*
X209428757Y-97751000D01*
X209671243Y-97751000D01*
X209909069Y-97703693D01*
X210133097Y-97610898D01*
X210334717Y-97476180D01*
X210506180Y-97304717D01*
X210640898Y-97103097D01*
X210733693Y-96879069D01*
X210781000Y-96641243D01*
X210781000Y-96398757D01*
X210733693Y-96160931D01*
X210640898Y-95936903D01*
X210506180Y-95735283D01*
X210334717Y-95563820D01*
X210133097Y-95429102D01*
X209909069Y-95336307D01*
X209671243Y-95289000D01*
X209428757Y-95289000D01*
X209190931Y-95336307D01*
X208966903Y-95429102D01*
X208765283Y-95563820D01*
X208593820Y-95735283D01*
X208459102Y-95936903D01*
X208366307Y-96160931D01*
X208319000Y-96398757D01*
X191081000Y-96398757D01*
X191081000Y-93858757D01*
X208319000Y-93858757D01*
X208319000Y-94101243D01*
X208366307Y-94339069D01*
X208459102Y-94563097D01*
X208593820Y-94764717D01*
X208765283Y-94936180D01*
X208966903Y-95070898D01*
X209190931Y-95163693D01*
X209428757Y-95211000D01*
X209671243Y-95211000D01*
X209909069Y-95163693D01*
X210133097Y-95070898D01*
X210334717Y-94936180D01*
X210506180Y-94764717D01*
X210640898Y-94563097D01*
X210733693Y-94339069D01*
X210781000Y-94101243D01*
X210781000Y-93858757D01*
X210733693Y-93620931D01*
X210640898Y-93396903D01*
X210506180Y-93195283D01*
X210334717Y-93023820D01*
X210133097Y-92889102D01*
X209909069Y-92796307D01*
X209671243Y-92749000D01*
X209428757Y-92749000D01*
X209190931Y-92796307D01*
X208966903Y-92889102D01*
X208765283Y-93023820D01*
X208593820Y-93195283D01*
X208459102Y-93396903D01*
X208366307Y-93620931D01*
X208319000Y-93858757D01*
X191081000Y-93858757D01*
X191081000Y-90691907D01*
X191081735Y-90619634D01*
X191083813Y-90557269D01*
X191087096Y-90503580D01*
X191091320Y-90459239D01*
X191096019Y-90425210D01*
X191096193Y-90424308D01*
X191106642Y-90413859D01*
X191192113Y-90285942D01*
X191250987Y-90143809D01*
X191281000Y-89992922D01*
X191281000Y-89839078D01*
X191250987Y-89688191D01*
X191192113Y-89546058D01*
X191106642Y-89418141D01*
X190997859Y-89309358D01*
X190869942Y-89223887D01*
X190727809Y-89165013D01*
X190576922Y-89135000D01*
X190423078Y-89135000D01*
X190272191Y-89165013D01*
X190130058Y-89223887D01*
X190002141Y-89309358D01*
X189893358Y-89418141D01*
X189807887Y-89546058D01*
X189749013Y-89688191D01*
X189719000Y-89839078D01*
X172251819Y-89839078D01*
X172406180Y-89684717D01*
X172540898Y-89483097D01*
X172633693Y-89259069D01*
X172681000Y-89021243D01*
X172681000Y-88778757D01*
X172633693Y-88540931D01*
X172540898Y-88316903D01*
X172406180Y-88115283D01*
X172234717Y-87943820D01*
X172033097Y-87809102D01*
X171809069Y-87716307D01*
X171571243Y-87669000D01*
X171328757Y-87669000D01*
X171090931Y-87716307D01*
X170866903Y-87809102D01*
X170665283Y-87943820D01*
X170493820Y-88115283D01*
X170359102Y-88316903D01*
X170266307Y-88540931D01*
X170219000Y-88778757D01*
X169951000Y-88778757D01*
X169951000Y-86238757D01*
X170219000Y-86238757D01*
X170219000Y-86481243D01*
X170266307Y-86719069D01*
X170359102Y-86943097D01*
X170493820Y-87144717D01*
X170665283Y-87316180D01*
X170866903Y-87450898D01*
X171090931Y-87543693D01*
X171328757Y-87591000D01*
X171571243Y-87591000D01*
X171809069Y-87543693D01*
X172033097Y-87450898D01*
X172234717Y-87316180D01*
X172406180Y-87144717D01*
X172540898Y-86943097D01*
X172633693Y-86719069D01*
X172681000Y-86481243D01*
X172681000Y-86238757D01*
X172633693Y-86000931D01*
X172540898Y-85776903D01*
X172406180Y-85575283D01*
X172234717Y-85403820D01*
X172033097Y-85269102D01*
X171809069Y-85176307D01*
X171571243Y-85129000D01*
X171328757Y-85129000D01*
X171090931Y-85176307D01*
X170866903Y-85269102D01*
X170665283Y-85403820D01*
X170493820Y-85575283D01*
X170359102Y-85776903D01*
X170266307Y-86000931D01*
X170219000Y-86238757D01*
X169951000Y-86238757D01*
X169951000Y-76078757D01*
X170219000Y-76078757D01*
X170219000Y-76321243D01*
X170266307Y-76559069D01*
X170359102Y-76783097D01*
X170493820Y-76984717D01*
X170665283Y-77156180D01*
X170866903Y-77290898D01*
X171090931Y-77383693D01*
X171328757Y-77431000D01*
X171454785Y-77431000D01*
X171542279Y-77433417D01*
X171618366Y-77441481D01*
X171690922Y-77455178D01*
X171760569Y-77474431D01*
X171827949Y-77499317D01*
X171893714Y-77530096D01*
X171958353Y-77567134D01*
X172022296Y-77610930D01*
X172085742Y-77661971D01*
X172153498Y-77725155D01*
X172166746Y-77738403D01*
X172033097Y-77649102D01*
X171809069Y-77556307D01*
X171571243Y-77509000D01*
X171328757Y-77509000D01*
X171090931Y-77556307D01*
X170866903Y-77649102D01*
X170665283Y-77783820D01*
X170493820Y-77955283D01*
X170359102Y-78156903D01*
X170266307Y-78380931D01*
X170219000Y-78618757D01*
X170219000Y-78861243D01*
X170266307Y-79099069D01*
X170359102Y-79323097D01*
X170493820Y-79524717D01*
X170665283Y-79696180D01*
X170866903Y-79830898D01*
X171090931Y-79923693D01*
X171328757Y-79971000D01*
X171454785Y-79971000D01*
X171542279Y-79973417D01*
X171618366Y-79981481D01*
X171690922Y-79995178D01*
X171760569Y-80014431D01*
X171827949Y-80039317D01*
X171893714Y-80070096D01*
X171958353Y-80107134D01*
X172022296Y-80150930D01*
X172085742Y-80201971D01*
X172153497Y-80265154D01*
X172166746Y-80278403D01*
X172033097Y-80189102D01*
X171809069Y-80096307D01*
X171571243Y-80049000D01*
X171328757Y-80049000D01*
X171090931Y-80096307D01*
X170866903Y-80189102D01*
X170665283Y-80323820D01*
X170493820Y-80495283D01*
X170359102Y-80696903D01*
X170266307Y-80920931D01*
X170219000Y-81158757D01*
X170219000Y-81401243D01*
X170266307Y-81639069D01*
X170359102Y-81863097D01*
X170493820Y-82064717D01*
X170665283Y-82236180D01*
X170866903Y-82370898D01*
X171090931Y-82463693D01*
X171328757Y-82511000D01*
X171454785Y-82511000D01*
X171542279Y-82513417D01*
X171618366Y-82521481D01*
X171690922Y-82535178D01*
X171760569Y-82554431D01*
X171827949Y-82579317D01*
X171893714Y-82610096D01*
X171958353Y-82647134D01*
X172022296Y-82690930D01*
X172085742Y-82741971D01*
X172153495Y-82805153D01*
X172166746Y-82818403D01*
X172033097Y-82729102D01*
X171809069Y-82636307D01*
X171571243Y-82589000D01*
X171328757Y-82589000D01*
X171090931Y-82636307D01*
X170866903Y-82729102D01*
X170665283Y-82863820D01*
X170493820Y-83035283D01*
X170359102Y-83236903D01*
X170266307Y-83460931D01*
X170219000Y-83698757D01*
X170219000Y-83941243D01*
X170266307Y-84179069D01*
X170359102Y-84403097D01*
X170493820Y-84604717D01*
X170665283Y-84776180D01*
X170866903Y-84910898D01*
X171090931Y-85003693D01*
X171328757Y-85051000D01*
X171571243Y-85051000D01*
X171809069Y-85003693D01*
X172033097Y-84910898D01*
X172234717Y-84776180D01*
X172406180Y-84604717D01*
X172540898Y-84403097D01*
X172633693Y-84179069D01*
X172681000Y-83941243D01*
X172681000Y-83698757D01*
X172633693Y-83460931D01*
X172540898Y-83236903D01*
X172451597Y-83103255D01*
X173558987Y-84210645D01*
X173577183Y-84232817D01*
X173665652Y-84305421D01*
X173766585Y-84359371D01*
X173876104Y-84392593D01*
X173961460Y-84401000D01*
X173961462Y-84401000D01*
X173989999Y-84403811D01*
X174018536Y-84401000D01*
X184259997Y-84401000D01*
X184261540Y-84401041D01*
X184287141Y-84426642D01*
X184415058Y-84512113D01*
X184557191Y-84570987D01*
X184708078Y-84601000D01*
X184861922Y-84601000D01*
X185012809Y-84570987D01*
X185154942Y-84512113D01*
X185282859Y-84426642D01*
X185391642Y-84317859D01*
X185477113Y-84189942D01*
X185535987Y-84047809D01*
X185566000Y-83896922D01*
X185566000Y-83743078D01*
X185535987Y-83592191D01*
X185477113Y-83450058D01*
X185391642Y-83322141D01*
X185282859Y-83213358D01*
X185154942Y-83127887D01*
X185012809Y-83069013D01*
X184861922Y-83039000D01*
X184708078Y-83039000D01*
X184557191Y-83069013D01*
X184415058Y-83127887D01*
X184287141Y-83213358D01*
X184261540Y-83238959D01*
X184259993Y-83239000D01*
X174230658Y-83239000D01*
X172975153Y-81983495D01*
X172911971Y-81915742D01*
X172860930Y-81852296D01*
X172817134Y-81788353D01*
X172780096Y-81723714D01*
X172749317Y-81657949D01*
X172724431Y-81590569D01*
X172705178Y-81520922D01*
X172691481Y-81448366D01*
X172683417Y-81372279D01*
X172681000Y-81284785D01*
X172681000Y-81158757D01*
X172633693Y-80920931D01*
X172540898Y-80696903D01*
X172451597Y-80563254D01*
X174523987Y-82635645D01*
X174542183Y-82657817D01*
X174629045Y-82729102D01*
X174630652Y-82730421D01*
X174731585Y-82784371D01*
X174841104Y-82817593D01*
X174955000Y-82828811D01*
X174983540Y-82826000D01*
X185529997Y-82826000D01*
X185531540Y-82826041D01*
X185557141Y-82851642D01*
X185685058Y-82937113D01*
X185827191Y-82995987D01*
X185978078Y-83026000D01*
X186131922Y-83026000D01*
X186282809Y-82995987D01*
X186424942Y-82937113D01*
X186552859Y-82851642D01*
X186661642Y-82742859D01*
X186747113Y-82614942D01*
X186805987Y-82472809D01*
X186836000Y-82321922D01*
X186836000Y-82168078D01*
X186805987Y-82017191D01*
X186747113Y-81875058D01*
X186661642Y-81747141D01*
X186552859Y-81638358D01*
X186424942Y-81552887D01*
X186282809Y-81494013D01*
X186131922Y-81464000D01*
X185978078Y-81464000D01*
X185827191Y-81494013D01*
X185685058Y-81552887D01*
X185557141Y-81638358D01*
X185531540Y-81663959D01*
X185529993Y-81664000D01*
X175195658Y-81664000D01*
X172975154Y-79443497D01*
X172911971Y-79375742D01*
X172860930Y-79312296D01*
X172817134Y-79248353D01*
X172780096Y-79183714D01*
X172749317Y-79117949D01*
X172724431Y-79050569D01*
X172705178Y-78980922D01*
X172691481Y-78908366D01*
X172683417Y-78832279D01*
X172681000Y-78744785D01*
X172681000Y-78618757D01*
X172633693Y-78380931D01*
X172540898Y-78156903D01*
X172451597Y-78023254D01*
X175463987Y-81035645D01*
X175482183Y-81057817D01*
X175570652Y-81130421D01*
X175671585Y-81184371D01*
X175781104Y-81217593D01*
X175866460Y-81226000D01*
X175866462Y-81226000D01*
X175894999Y-81228811D01*
X175923536Y-81226000D01*
X184259997Y-81226000D01*
X184261540Y-81226041D01*
X184287141Y-81251642D01*
X184415058Y-81337113D01*
X184557191Y-81395987D01*
X184708078Y-81426000D01*
X184861922Y-81426000D01*
X185012809Y-81395987D01*
X185154942Y-81337113D01*
X185282859Y-81251642D01*
X185391642Y-81142859D01*
X185477113Y-81014942D01*
X185535987Y-80872809D01*
X185566000Y-80721922D01*
X185566000Y-80568078D01*
X185535987Y-80417191D01*
X185477113Y-80275058D01*
X185391642Y-80147141D01*
X185282859Y-80038358D01*
X185154942Y-79952887D01*
X185012809Y-79894013D01*
X184861922Y-79864000D01*
X184708078Y-79864000D01*
X184557191Y-79894013D01*
X184415058Y-79952887D01*
X184287141Y-80038358D01*
X184261540Y-80063959D01*
X184259993Y-80064000D01*
X176135658Y-80064000D01*
X172975155Y-76903498D01*
X172911971Y-76835742D01*
X172911375Y-76835000D01*
X191519738Y-76835000D01*
X191524001Y-76878280D01*
X191524000Y-91102272D01*
X191524001Y-91102282D01*
X191524000Y-92753272D01*
X191536748Y-92882705D01*
X191587125Y-93048774D01*
X191668932Y-93201824D01*
X191779025Y-93335975D01*
X191913175Y-93446068D01*
X192066225Y-93527875D01*
X192232294Y-93578252D01*
X192405000Y-93595262D01*
X192577705Y-93578252D01*
X192743774Y-93527875D01*
X192896824Y-93446068D01*
X193030975Y-93335975D01*
X193141068Y-93201825D01*
X193222875Y-93048775D01*
X193273252Y-92882706D01*
X193286000Y-92753273D01*
X193286000Y-91318757D01*
X208319000Y-91318757D01*
X208319000Y-91561243D01*
X208366307Y-91799069D01*
X208459102Y-92023097D01*
X208593820Y-92224717D01*
X208765283Y-92396180D01*
X208966903Y-92530898D01*
X209190931Y-92623693D01*
X209428757Y-92671000D01*
X209671243Y-92671000D01*
X209909069Y-92623693D01*
X210133097Y-92530898D01*
X210334717Y-92396180D01*
X210506180Y-92224717D01*
X210640898Y-92023097D01*
X210733693Y-91799069D01*
X210781000Y-91561243D01*
X210781000Y-91318757D01*
X210733693Y-91080931D01*
X210640898Y-90856903D01*
X210506180Y-90655283D01*
X210334717Y-90483820D01*
X210133097Y-90349102D01*
X209909069Y-90256307D01*
X209671243Y-90209000D01*
X209428757Y-90209000D01*
X209190931Y-90256307D01*
X208966903Y-90349102D01*
X208765283Y-90483820D01*
X208593820Y-90655283D01*
X208459102Y-90856903D01*
X208366307Y-91080931D01*
X208319000Y-91318757D01*
X193286000Y-91318757D01*
X193286000Y-88778757D01*
X208319000Y-88778757D01*
X208319000Y-89021243D01*
X208366307Y-89259069D01*
X208459102Y-89483097D01*
X208593820Y-89684717D01*
X208765283Y-89856180D01*
X208966903Y-89990898D01*
X209190931Y-90083693D01*
X209428757Y-90131000D01*
X209671243Y-90131000D01*
X209909069Y-90083693D01*
X210133097Y-89990898D01*
X210334717Y-89856180D01*
X210506180Y-89684717D01*
X210640898Y-89483097D01*
X210733693Y-89259069D01*
X210781000Y-89021243D01*
X210781000Y-88778757D01*
X210733693Y-88540931D01*
X210640898Y-88316903D01*
X210506180Y-88115283D01*
X210334717Y-87943820D01*
X210133097Y-87809102D01*
X209909069Y-87716307D01*
X209671243Y-87669000D01*
X209428757Y-87669000D01*
X209190931Y-87716307D01*
X208966903Y-87809102D01*
X208765283Y-87943820D01*
X208593820Y-88115283D01*
X208459102Y-88316903D01*
X208366307Y-88540931D01*
X208319000Y-88778757D01*
X193286000Y-88778757D01*
X193286000Y-86918078D01*
X198609000Y-86918078D01*
X198609000Y-87071922D01*
X198639013Y-87222809D01*
X198697887Y-87364942D01*
X198783358Y-87492859D01*
X198892141Y-87601642D01*
X199020058Y-87687113D01*
X199162191Y-87745987D01*
X199313078Y-87776000D01*
X199466922Y-87776000D01*
X199617809Y-87745987D01*
X199759942Y-87687113D01*
X199887859Y-87601642D01*
X199996642Y-87492859D01*
X200082113Y-87364942D01*
X200140987Y-87222809D01*
X200171000Y-87071922D01*
X200171000Y-86995540D01*
X200171608Y-86973616D01*
X200172830Y-86962116D01*
X200174679Y-86952351D01*
X200177081Y-86943677D01*
X200180128Y-86935445D01*
X200184074Y-86927027D01*
X200189291Y-86917934D01*
X200196284Y-86907734D01*
X200205544Y-86896230D01*
X200221937Y-86878654D01*
X200365220Y-86735372D01*
X200384527Y-86719527D01*
X200447759Y-86642479D01*
X200494745Y-86554575D01*
X200523678Y-86459193D01*
X200531000Y-86384854D01*
X200531000Y-86384853D01*
X200533448Y-86360000D01*
X200531000Y-86335146D01*
X200531000Y-86238757D01*
X208319000Y-86238757D01*
X208319000Y-86481243D01*
X208366307Y-86719069D01*
X208459102Y-86943097D01*
X208593820Y-87144717D01*
X208765283Y-87316180D01*
X208966903Y-87450898D01*
X209190931Y-87543693D01*
X209428757Y-87591000D01*
X209671243Y-87591000D01*
X209909069Y-87543693D01*
X210133097Y-87450898D01*
X210334717Y-87316180D01*
X210506180Y-87144717D01*
X210640898Y-86943097D01*
X210733693Y-86719069D01*
X210781000Y-86481243D01*
X210781000Y-86238757D01*
X210733693Y-86000931D01*
X210640898Y-85776903D01*
X210506180Y-85575283D01*
X210334717Y-85403820D01*
X210133097Y-85269102D01*
X209909069Y-85176307D01*
X209671243Y-85129000D01*
X209428757Y-85129000D01*
X209190931Y-85176307D01*
X208966903Y-85269102D01*
X208765283Y-85403820D01*
X208593820Y-85575283D01*
X208459102Y-85776903D01*
X208366307Y-86000931D01*
X208319000Y-86238757D01*
X200531000Y-86238757D01*
X200531000Y-83698757D01*
X208319000Y-83698757D01*
X208319000Y-83941243D01*
X208366307Y-84179069D01*
X208459102Y-84403097D01*
X208593820Y-84604717D01*
X208765283Y-84776180D01*
X208966903Y-84910898D01*
X209190931Y-85003693D01*
X209428757Y-85051000D01*
X209671243Y-85051000D01*
X209909069Y-85003693D01*
X210133097Y-84910898D01*
X210334717Y-84776180D01*
X210506180Y-84604717D01*
X210640898Y-84403097D01*
X210733693Y-84179069D01*
X210781000Y-83941243D01*
X210781000Y-83698757D01*
X210733693Y-83460931D01*
X210640898Y-83236903D01*
X210506180Y-83035283D01*
X210334717Y-82863820D01*
X210133097Y-82729102D01*
X209909069Y-82636307D01*
X209671243Y-82589000D01*
X209428757Y-82589000D01*
X209190931Y-82636307D01*
X208966903Y-82729102D01*
X208765283Y-82863820D01*
X208593820Y-83035283D01*
X208459102Y-83236903D01*
X208366307Y-83460931D01*
X208319000Y-83698757D01*
X200531000Y-83698757D01*
X200531000Y-81203078D01*
X200579000Y-81203078D01*
X200579000Y-81356922D01*
X200609013Y-81507809D01*
X200667887Y-81649942D01*
X200753358Y-81777859D01*
X200862141Y-81886642D01*
X200990058Y-81972113D01*
X201132191Y-82030987D01*
X201283078Y-82061000D01*
X201436922Y-82061000D01*
X201587809Y-82030987D01*
X201729942Y-81972113D01*
X201857859Y-81886642D01*
X201966642Y-81777859D01*
X202052113Y-81649942D01*
X202110987Y-81507809D01*
X202141000Y-81356922D01*
X202141000Y-81203078D01*
X202132185Y-81158757D01*
X208319000Y-81158757D01*
X208319000Y-81401243D01*
X208366307Y-81639069D01*
X208459102Y-81863097D01*
X208593820Y-82064717D01*
X208765283Y-82236180D01*
X208966903Y-82370898D01*
X209190931Y-82463693D01*
X209428757Y-82511000D01*
X209671243Y-82511000D01*
X209909069Y-82463693D01*
X210133097Y-82370898D01*
X210334717Y-82236180D01*
X210506180Y-82064717D01*
X210640898Y-81863097D01*
X210733693Y-81639069D01*
X210781000Y-81401243D01*
X210781000Y-81158757D01*
X210733693Y-80920931D01*
X210640898Y-80696903D01*
X210506180Y-80495283D01*
X210334717Y-80323820D01*
X210133097Y-80189102D01*
X209909069Y-80096307D01*
X209671243Y-80049000D01*
X209428757Y-80049000D01*
X209190931Y-80096307D01*
X208966903Y-80189102D01*
X208765283Y-80323820D01*
X208593820Y-80495283D01*
X208459102Y-80696903D01*
X208366307Y-80920931D01*
X208319000Y-81158757D01*
X202132185Y-81158757D01*
X202110987Y-81052191D01*
X202052113Y-80910058D01*
X201966642Y-80782141D01*
X201912645Y-80728144D01*
X201897557Y-80712196D01*
X201890292Y-80703203D01*
X201884692Y-80694988D01*
X201880260Y-80687159D01*
X201876593Y-80679183D01*
X201873434Y-80670451D01*
X201870689Y-80660316D01*
X201868421Y-80648161D01*
X201866836Y-80633493D01*
X201866000Y-80609459D01*
X201866000Y-78618757D01*
X208319000Y-78618757D01*
X208319000Y-78861243D01*
X208366307Y-79099069D01*
X208459102Y-79323097D01*
X208593820Y-79524717D01*
X208765283Y-79696180D01*
X208966903Y-79830898D01*
X209190931Y-79923693D01*
X209428757Y-79971000D01*
X209671243Y-79971000D01*
X209909069Y-79923693D01*
X210133097Y-79830898D01*
X210334717Y-79696180D01*
X210506180Y-79524717D01*
X210640898Y-79323097D01*
X210733693Y-79099069D01*
X210781000Y-78861243D01*
X210781000Y-78618757D01*
X210733693Y-78380931D01*
X210640898Y-78156903D01*
X210506180Y-77955283D01*
X210334717Y-77783820D01*
X210133097Y-77649102D01*
X209909069Y-77556307D01*
X209671243Y-77509000D01*
X209428757Y-77509000D01*
X209190931Y-77556307D01*
X208966903Y-77649102D01*
X208765283Y-77783820D01*
X208593820Y-77955283D01*
X208459102Y-78156903D01*
X208366307Y-78380931D01*
X208319000Y-78618757D01*
X201866000Y-78618757D01*
X201866000Y-76078757D01*
X208319000Y-76078757D01*
X208319000Y-76321243D01*
X208366307Y-76559069D01*
X208459102Y-76783097D01*
X208593820Y-76984717D01*
X208765283Y-77156180D01*
X208966903Y-77290898D01*
X209190931Y-77383693D01*
X209428757Y-77431000D01*
X209671243Y-77431000D01*
X209909069Y-77383693D01*
X210133097Y-77290898D01*
X210334717Y-77156180D01*
X210506180Y-76984717D01*
X210640898Y-76783097D01*
X210733693Y-76559069D01*
X210781000Y-76321243D01*
X210781000Y-76078757D01*
X210733693Y-75840931D01*
X210640898Y-75616903D01*
X210506180Y-75415283D01*
X210334717Y-75243820D01*
X210133097Y-75109102D01*
X209909069Y-75016307D01*
X209671243Y-74969000D01*
X209428757Y-74969000D01*
X209190931Y-75016307D01*
X208966903Y-75109102D01*
X208765283Y-75243820D01*
X208593820Y-75415283D01*
X208459102Y-75616903D01*
X208366307Y-75840931D01*
X208319000Y-76078757D01*
X201866000Y-76078757D01*
X201866000Y-67223229D01*
X202319000Y-67223229D01*
X202319000Y-67396771D01*
X202352856Y-67566978D01*
X202419268Y-67727310D01*
X202515682Y-67871605D01*
X202638395Y-67994318D01*
X202782690Y-68090732D01*
X202943022Y-68157144D01*
X203113229Y-68191000D01*
X203200611Y-68191000D01*
X203220869Y-68191565D01*
X203230936Y-68192641D01*
X203239360Y-68194242D01*
X203246767Y-68196302D01*
X203253824Y-68198923D01*
X203261177Y-68202379D01*
X203269288Y-68207043D01*
X203278561Y-68213410D01*
X203289214Y-68221994D01*
X203305989Y-68237646D01*
X208024853Y-72956510D01*
X208088028Y-73024257D01*
X208139069Y-73087703D01*
X208182865Y-73151646D01*
X208219903Y-73216285D01*
X208250682Y-73282050D01*
X208275568Y-73349430D01*
X208294821Y-73419077D01*
X208308518Y-73491633D01*
X208316582Y-73567721D01*
X208319000Y-73655220D01*
X208319000Y-73781243D01*
X208366307Y-74019069D01*
X208459102Y-74243097D01*
X208593820Y-74444717D01*
X208765283Y-74616180D01*
X208966903Y-74750898D01*
X209190931Y-74843693D01*
X209428757Y-74891000D01*
X209671243Y-74891000D01*
X209909069Y-74843693D01*
X210133097Y-74750898D01*
X210334717Y-74616180D01*
X210506180Y-74444717D01*
X210640898Y-74243097D01*
X210733693Y-74019069D01*
X210781000Y-73781243D01*
X210781000Y-73538757D01*
X210733693Y-73300931D01*
X210640898Y-73076903D01*
X210506180Y-72875283D01*
X210334717Y-72703820D01*
X210133097Y-72569102D01*
X209909069Y-72476307D01*
X209671243Y-72429000D01*
X209545220Y-72429000D01*
X209457721Y-72426582D01*
X209381633Y-72418518D01*
X209309077Y-72404821D01*
X209239430Y-72385568D01*
X209172050Y-72360682D01*
X209106285Y-72329903D01*
X209041646Y-72292865D01*
X208977703Y-72249069D01*
X208914257Y-72198028D01*
X208846510Y-72134853D01*
X208833256Y-72121598D01*
X208966903Y-72210898D01*
X209190931Y-72303693D01*
X209428757Y-72351000D01*
X209671243Y-72351000D01*
X209909069Y-72303693D01*
X210133097Y-72210898D01*
X210334717Y-72076180D01*
X210506180Y-71904717D01*
X210640898Y-71703097D01*
X210733693Y-71479069D01*
X210781000Y-71241243D01*
X210781000Y-70998757D01*
X210733693Y-70760931D01*
X210640898Y-70536903D01*
X210506180Y-70335283D01*
X210334717Y-70163820D01*
X210133097Y-70029102D01*
X209909069Y-69936307D01*
X209671243Y-69889000D01*
X209428757Y-69889000D01*
X209190931Y-69936307D01*
X208966903Y-70029102D01*
X208765283Y-70163820D01*
X208593820Y-70335283D01*
X208459102Y-70536903D01*
X208366307Y-70760931D01*
X208319000Y-70998757D01*
X208319000Y-71241243D01*
X208366307Y-71479069D01*
X208459102Y-71703097D01*
X208548402Y-71836745D01*
X205170414Y-68458757D01*
X208319000Y-68458757D01*
X208319000Y-68701243D01*
X208366307Y-68939069D01*
X208459102Y-69163097D01*
X208593820Y-69364717D01*
X208765283Y-69536180D01*
X208966903Y-69670898D01*
X209190931Y-69763693D01*
X209428757Y-69811000D01*
X209671243Y-69811000D01*
X209909069Y-69763693D01*
X210133097Y-69670898D01*
X210334717Y-69536180D01*
X210506180Y-69364717D01*
X210640898Y-69163097D01*
X210733693Y-68939069D01*
X210781000Y-68701243D01*
X210781000Y-68458757D01*
X210733693Y-68220931D01*
X210640898Y-67996903D01*
X210506180Y-67795283D01*
X210334717Y-67623820D01*
X210133097Y-67489102D01*
X209909069Y-67396307D01*
X209671243Y-67349000D01*
X209428757Y-67349000D01*
X209190931Y-67396307D01*
X208966903Y-67489102D01*
X208765283Y-67623820D01*
X208593820Y-67795283D01*
X208459102Y-67996903D01*
X208366307Y-68220931D01*
X208319000Y-68458757D01*
X205170414Y-68458757D01*
X204127646Y-67415989D01*
X204111994Y-67399214D01*
X204103410Y-67388561D01*
X204097043Y-67379288D01*
X204092379Y-67371177D01*
X204088923Y-67363824D01*
X204086302Y-67356767D01*
X204084242Y-67349360D01*
X204082641Y-67340936D01*
X204081565Y-67330869D01*
X204081000Y-67310611D01*
X204081000Y-67223229D01*
X204047144Y-67053022D01*
X203980732Y-66892690D01*
X203884318Y-66748395D01*
X203761605Y-66625682D01*
X203617310Y-66529268D01*
X203456978Y-66462856D01*
X203286771Y-66429000D01*
X203113229Y-66429000D01*
X202943022Y-66462856D01*
X202782690Y-66529268D01*
X202638395Y-66625682D01*
X202515682Y-66748395D01*
X202419268Y-66892690D01*
X202352856Y-67053022D01*
X202319000Y-67223229D01*
X201866000Y-67223229D01*
X201866000Y-65918757D01*
X208319000Y-65918757D01*
X208319000Y-66161243D01*
X208366307Y-66399069D01*
X208459102Y-66623097D01*
X208593820Y-66824717D01*
X208765283Y-66996180D01*
X208966903Y-67130898D01*
X209190931Y-67223693D01*
X209428757Y-67271000D01*
X209671243Y-67271000D01*
X209909069Y-67223693D01*
X210133097Y-67130898D01*
X210334717Y-66996180D01*
X210506180Y-66824717D01*
X210640898Y-66623097D01*
X210733693Y-66399069D01*
X210781000Y-66161243D01*
X210781000Y-65918757D01*
X210733693Y-65680931D01*
X210640898Y-65456903D01*
X210506180Y-65255283D01*
X210334717Y-65083820D01*
X210133097Y-64949102D01*
X209909069Y-64856307D01*
X209671243Y-64809000D01*
X209428757Y-64809000D01*
X209190931Y-64856307D01*
X208966903Y-64949102D01*
X208765283Y-65083820D01*
X208593820Y-65255283D01*
X208459102Y-65456903D01*
X208366307Y-65680931D01*
X208319000Y-65918757D01*
X201866000Y-65918757D01*
X201866000Y-63378757D01*
X208319000Y-63378757D01*
X208319000Y-63621243D01*
X208366307Y-63859069D01*
X208459102Y-64083097D01*
X208593820Y-64284717D01*
X208765283Y-64456180D01*
X208966903Y-64590898D01*
X209190931Y-64683693D01*
X209428757Y-64731000D01*
X209671243Y-64731000D01*
X209909069Y-64683693D01*
X210133097Y-64590898D01*
X210334717Y-64456180D01*
X210506180Y-64284717D01*
X210640898Y-64083097D01*
X210733693Y-63859069D01*
X210781000Y-63621243D01*
X210781000Y-63378757D01*
X210733693Y-63140931D01*
X210640898Y-62916903D01*
X210506180Y-62715283D01*
X210334717Y-62543820D01*
X210133097Y-62409102D01*
X209909069Y-62316307D01*
X209671243Y-62269000D01*
X209428757Y-62269000D01*
X209190931Y-62316307D01*
X208966903Y-62409102D01*
X208765283Y-62543820D01*
X208593820Y-62715283D01*
X208459102Y-62916903D01*
X208366307Y-63140931D01*
X208319000Y-63378757D01*
X201866000Y-63378757D01*
X201866000Y-61739591D01*
X202766834Y-60838757D01*
X208319000Y-60838757D01*
X208319000Y-61081243D01*
X208366307Y-61319069D01*
X208459102Y-61543097D01*
X208593820Y-61744717D01*
X208765283Y-61916180D01*
X208966903Y-62050898D01*
X209190931Y-62143693D01*
X209428757Y-62191000D01*
X209671243Y-62191000D01*
X209909069Y-62143693D01*
X210133097Y-62050898D01*
X210334717Y-61916180D01*
X210506180Y-61744717D01*
X210640898Y-61543097D01*
X210733693Y-61319069D01*
X210781000Y-61081243D01*
X210781000Y-60838757D01*
X210733693Y-60600931D01*
X210640898Y-60376903D01*
X210506180Y-60175283D01*
X210334717Y-60003820D01*
X210133097Y-59869102D01*
X209909069Y-59776307D01*
X209671243Y-59729000D01*
X209428757Y-59729000D01*
X209190931Y-59776307D01*
X208966903Y-59869102D01*
X208765283Y-60003820D01*
X208593820Y-60175283D01*
X208459102Y-60376903D01*
X208366307Y-60600931D01*
X208319000Y-60838757D01*
X202766834Y-60838757D01*
X203083654Y-60521937D01*
X203101230Y-60505544D01*
X203112734Y-60496284D01*
X203122934Y-60489291D01*
X203132027Y-60484074D01*
X203140445Y-60480128D01*
X203148677Y-60477081D01*
X203157351Y-60474679D01*
X203167116Y-60472830D01*
X203178616Y-60471608D01*
X203200540Y-60471000D01*
X203276922Y-60471000D01*
X203427809Y-60440987D01*
X203569942Y-60382113D01*
X203697859Y-60296642D01*
X203806642Y-60187859D01*
X203892113Y-60059942D01*
X203950987Y-59917809D01*
X203981000Y-59766922D01*
X203981000Y-59613078D01*
X203950987Y-59462191D01*
X203892113Y-59320058D01*
X203806642Y-59192141D01*
X203697859Y-59083358D01*
X203569942Y-58997887D01*
X203427809Y-58939013D01*
X203276922Y-58909000D01*
X203123078Y-58909000D01*
X202972191Y-58939013D01*
X202830058Y-58997887D01*
X202702141Y-59083358D01*
X202593358Y-59192141D01*
X202507887Y-59320058D01*
X202449013Y-59462191D01*
X202419000Y-59613078D01*
X202419000Y-59689478D01*
X202418392Y-59711369D01*
X202417169Y-59722883D01*
X202415320Y-59732648D01*
X202412918Y-59741322D01*
X202409871Y-59749554D01*
X202405925Y-59757972D01*
X202400708Y-59767065D01*
X202393715Y-59777265D01*
X202384449Y-59788777D01*
X202368066Y-59806342D01*
X201019781Y-61154628D01*
X201000474Y-61170473D01*
X200937242Y-61247521D01*
X200912127Y-61294508D01*
X200890255Y-61335426D01*
X200861322Y-61430808D01*
X200851553Y-61530000D01*
X200854001Y-61554856D01*
X200854000Y-80609471D01*
X200853164Y-80633479D01*
X200851578Y-80648161D01*
X200849310Y-80660316D01*
X200846565Y-80670451D01*
X200843406Y-80679183D01*
X200839739Y-80687159D01*
X200835307Y-80694988D01*
X200829707Y-80703203D01*
X200822436Y-80712203D01*
X200807364Y-80728135D01*
X200753358Y-80782141D01*
X200667887Y-80910058D01*
X200609013Y-81052191D01*
X200579000Y-81203078D01*
X200531000Y-81203078D01*
X200531000Y-65440540D01*
X200531836Y-65416506D01*
X200533421Y-65401838D01*
X200535689Y-65389683D01*
X200538434Y-65379548D01*
X200541593Y-65370816D01*
X200545260Y-65362840D01*
X200549692Y-65355011D01*
X200555292Y-65346796D01*
X200562556Y-65337804D01*
X200577638Y-65321863D01*
X200631642Y-65267859D01*
X200717113Y-65139942D01*
X200775987Y-64997809D01*
X200806000Y-64846922D01*
X200806000Y-64693078D01*
X200775987Y-64542191D01*
X200717113Y-64400058D01*
X200631642Y-64272141D01*
X200522859Y-64163358D01*
X200394942Y-64077887D01*
X200252809Y-64019013D01*
X200101922Y-63989000D01*
X199948078Y-63989000D01*
X199797191Y-64019013D01*
X199655058Y-64077887D01*
X199527141Y-64163358D01*
X199418358Y-64272141D01*
X199332887Y-64400058D01*
X199274013Y-64542191D01*
X199244000Y-64693078D01*
X199244000Y-64846922D01*
X199274013Y-64997809D01*
X199332887Y-65139942D01*
X199418358Y-65267859D01*
X199472371Y-65321872D01*
X199487437Y-65337797D01*
X199494707Y-65346796D01*
X199500307Y-65355011D01*
X199504739Y-65362840D01*
X199508406Y-65370816D01*
X199511565Y-65379548D01*
X199514310Y-65389683D01*
X199516578Y-65401838D01*
X199518164Y-65416520D01*
X199519001Y-65440555D01*
X199519000Y-86150408D01*
X199506343Y-86163066D01*
X199488777Y-86179449D01*
X199477265Y-86188715D01*
X199467065Y-86195708D01*
X199457972Y-86200925D01*
X199449554Y-86204871D01*
X199441322Y-86207918D01*
X199432648Y-86210320D01*
X199422883Y-86212169D01*
X199411369Y-86213392D01*
X199389478Y-86214000D01*
X199313078Y-86214000D01*
X199162191Y-86244013D01*
X199020058Y-86302887D01*
X198892141Y-86388358D01*
X198783358Y-86497141D01*
X198697887Y-86625058D01*
X198639013Y-86767191D01*
X198609000Y-86918078D01*
X193286000Y-86918078D01*
X193286000Y-81838078D01*
X196069000Y-81838078D01*
X196069000Y-81991922D01*
X196099013Y-82142809D01*
X196157887Y-82284942D01*
X196243358Y-82412859D01*
X196352141Y-82521642D01*
X196480058Y-82607113D01*
X196622191Y-82665987D01*
X196773078Y-82696000D01*
X196926922Y-82696000D01*
X197077809Y-82665987D01*
X197219942Y-82607113D01*
X197347859Y-82521642D01*
X197456642Y-82412859D01*
X197542113Y-82284942D01*
X197600987Y-82142809D01*
X197631000Y-81991922D01*
X197631000Y-81838078D01*
X197600987Y-81687191D01*
X197542113Y-81545058D01*
X197456642Y-81417141D01*
X197402645Y-81363144D01*
X197387557Y-81347196D01*
X197380292Y-81338203D01*
X197374692Y-81329988D01*
X197370260Y-81322159D01*
X197366593Y-81314183D01*
X197363434Y-81305451D01*
X197360689Y-81295316D01*
X197358421Y-81283161D01*
X197356836Y-81268493D01*
X197356000Y-81244459D01*
X197356000Y-64344591D01*
X197934074Y-63766517D01*
X197929053Y-63817500D01*
X197931501Y-63842356D01*
X197931500Y-84101971D01*
X197930664Y-84125979D01*
X197929078Y-84140661D01*
X197926810Y-84152816D01*
X197924065Y-84162951D01*
X197920906Y-84171683D01*
X197917239Y-84179659D01*
X197912807Y-84187488D01*
X197907207Y-84195703D01*
X197899936Y-84204703D01*
X197884864Y-84220635D01*
X197830858Y-84274641D01*
X197745387Y-84402558D01*
X197686513Y-84544691D01*
X197656500Y-84695578D01*
X197656500Y-84849422D01*
X197686513Y-85000309D01*
X197745387Y-85142442D01*
X197830858Y-85270359D01*
X197939641Y-85379142D01*
X198067558Y-85464613D01*
X198209691Y-85523487D01*
X198360578Y-85553500D01*
X198514422Y-85553500D01*
X198665309Y-85523487D01*
X198807442Y-85464613D01*
X198935359Y-85379142D01*
X199044142Y-85270359D01*
X199129613Y-85142442D01*
X199188487Y-85000309D01*
X199218500Y-84849422D01*
X199218500Y-84695578D01*
X199188487Y-84544691D01*
X199129613Y-84402558D01*
X199044142Y-84274641D01*
X198990145Y-84220644D01*
X198975057Y-84204696D01*
X198967792Y-84195703D01*
X198962192Y-84187488D01*
X198957760Y-84179659D01*
X198954093Y-84171683D01*
X198950934Y-84162951D01*
X198948189Y-84152816D01*
X198945921Y-84140661D01*
X198944336Y-84125993D01*
X198943500Y-84101959D01*
X198943500Y-64027091D01*
X199908654Y-63061938D01*
X199926230Y-63045544D01*
X199937734Y-63036284D01*
X199947934Y-63029291D01*
X199957027Y-63024074D01*
X199965445Y-63020128D01*
X199973677Y-63017081D01*
X199982351Y-63014679D01*
X199992116Y-63012830D01*
X200003616Y-63011608D01*
X200025540Y-63011000D01*
X200101922Y-63011000D01*
X200252809Y-62980987D01*
X200394942Y-62922113D01*
X200522859Y-62836642D01*
X200631642Y-62727859D01*
X200717113Y-62599942D01*
X200775987Y-62457809D01*
X200806000Y-62306922D01*
X200806000Y-62153078D01*
X200775987Y-62002191D01*
X200717113Y-61860058D01*
X200631642Y-61732141D01*
X200522859Y-61623358D01*
X200480418Y-61595000D01*
X200522859Y-61566642D01*
X200631642Y-61457859D01*
X200717113Y-61329942D01*
X200775987Y-61187809D01*
X200806000Y-61036922D01*
X200806000Y-60883078D01*
X200775987Y-60732191D01*
X200717113Y-60590058D01*
X200631642Y-60462141D01*
X200522859Y-60353358D01*
X200394942Y-60267887D01*
X200252809Y-60209013D01*
X200101922Y-60179000D01*
X199948078Y-60179000D01*
X199797191Y-60209013D01*
X199655058Y-60267887D01*
X199527141Y-60353358D01*
X199418358Y-60462141D01*
X199332887Y-60590058D01*
X199274013Y-60732191D01*
X199244000Y-60883078D01*
X199244000Y-60959478D01*
X199243392Y-60981369D01*
X199242169Y-60992883D01*
X199240320Y-61002648D01*
X199237918Y-61011322D01*
X199234871Y-61019554D01*
X199230925Y-61027972D01*
X199225708Y-61037065D01*
X199218715Y-61047265D01*
X199209449Y-61058777D01*
X199193067Y-61076341D01*
X196509785Y-63759624D01*
X196490473Y-63775473D01*
X196427241Y-63852521D01*
X196380255Y-63940426D01*
X196351322Y-64035808D01*
X196344000Y-64110147D01*
X196344000Y-64110154D01*
X196341553Y-64135000D01*
X196344000Y-64159846D01*
X196344001Y-81244445D01*
X196343164Y-81268479D01*
X196341578Y-81283161D01*
X196339310Y-81295316D01*
X196336565Y-81305451D01*
X196333406Y-81314183D01*
X196329739Y-81322159D01*
X196325307Y-81329988D01*
X196319707Y-81338203D01*
X196312436Y-81347203D01*
X196297364Y-81363135D01*
X196243358Y-81417141D01*
X196157887Y-81545058D01*
X196099013Y-81687191D01*
X196069000Y-81838078D01*
X193286000Y-81838078D01*
X193286000Y-77199921D01*
X195537362Y-74948560D01*
X195570975Y-74920975D01*
X195675551Y-74793548D01*
X195681068Y-74786826D01*
X195758028Y-74642843D01*
X195762875Y-74633775D01*
X195813252Y-74467706D01*
X195826000Y-74338273D01*
X195826000Y-74338271D01*
X195830262Y-74295001D01*
X195826000Y-74251731D01*
X195826000Y-63229921D01*
X200757164Y-58298757D01*
X208319000Y-58298757D01*
X208319000Y-58541243D01*
X208366307Y-58779069D01*
X208459102Y-59003097D01*
X208593820Y-59204717D01*
X208765283Y-59376180D01*
X208966903Y-59510898D01*
X209190931Y-59603693D01*
X209428757Y-59651000D01*
X209671243Y-59651000D01*
X209909069Y-59603693D01*
X210133097Y-59510898D01*
X210334717Y-59376180D01*
X210506180Y-59204717D01*
X210640898Y-59003097D01*
X210733693Y-58779069D01*
X210781000Y-58541243D01*
X210781000Y-58298757D01*
X210733693Y-58060931D01*
X210640898Y-57836903D01*
X210506180Y-57635283D01*
X210334717Y-57463820D01*
X210133097Y-57329102D01*
X209909069Y-57236307D01*
X209671243Y-57189000D01*
X209428757Y-57189000D01*
X209190931Y-57236307D01*
X208966903Y-57329102D01*
X208765283Y-57463820D01*
X208593820Y-57635283D01*
X208459102Y-57836903D01*
X208366307Y-58060931D01*
X208319000Y-58298757D01*
X200757164Y-58298757D01*
X203297164Y-55758757D01*
X208319000Y-55758757D01*
X208319000Y-56001243D01*
X208366307Y-56239069D01*
X208459102Y-56463097D01*
X208593820Y-56664717D01*
X208765283Y-56836180D01*
X208966903Y-56970898D01*
X209190931Y-57063693D01*
X209428757Y-57111000D01*
X209671243Y-57111000D01*
X209909069Y-57063693D01*
X210133097Y-56970898D01*
X210334717Y-56836180D01*
X210506180Y-56664717D01*
X210640898Y-56463097D01*
X210733693Y-56239069D01*
X210781000Y-56001243D01*
X210781000Y-55758757D01*
X210733693Y-55520931D01*
X210640898Y-55296903D01*
X210506180Y-55095283D01*
X210334717Y-54923820D01*
X210133097Y-54789102D01*
X209909069Y-54696307D01*
X209671243Y-54649000D01*
X209428757Y-54649000D01*
X209190931Y-54696307D01*
X208966903Y-54789102D01*
X208765283Y-54923820D01*
X208593820Y-55095283D01*
X208459102Y-55296903D01*
X208366307Y-55520931D01*
X208319000Y-55758757D01*
X203297164Y-55758757D01*
X204834922Y-54221000D01*
X208320210Y-54221000D01*
X208324513Y-54264689D01*
X208346299Y-54336508D01*
X208381678Y-54402696D01*
X208429289Y-54460711D01*
X208487304Y-54508322D01*
X208553492Y-54543701D01*
X208625311Y-54565487D01*
X208700000Y-54572843D01*
X210400000Y-54572843D01*
X210474689Y-54565487D01*
X210546508Y-54543701D01*
X210612696Y-54508322D01*
X210670711Y-54460711D01*
X210718322Y-54402696D01*
X210753701Y-54336508D01*
X210775487Y-54264689D01*
X210782843Y-54190000D01*
X210782843Y-52490000D01*
X210775487Y-52415311D01*
X210753701Y-52343492D01*
X210718322Y-52277304D01*
X210670711Y-52219289D01*
X210612696Y-52171678D01*
X210546508Y-52136299D01*
X210474689Y-52114513D01*
X210400000Y-52107157D01*
X208700000Y-52107157D01*
X208625311Y-52114513D01*
X208553492Y-52136299D01*
X208487304Y-52171678D01*
X208429289Y-52219289D01*
X208381678Y-52277304D01*
X208346299Y-52343492D01*
X208324513Y-52415311D01*
X208320210Y-52459000D01*
X204513269Y-52459000D01*
X204469999Y-52454738D01*
X204426729Y-52459000D01*
X204426727Y-52459000D01*
X204297294Y-52471748D01*
X204131225Y-52522125D01*
X204031486Y-52575437D01*
X203978174Y-52603932D01*
X203925609Y-52647071D01*
X203844025Y-52714025D01*
X203816439Y-52747639D01*
X194352640Y-62211439D01*
X194319026Y-62239025D01*
X194291441Y-62272638D01*
X194208932Y-62373175D01*
X194127125Y-62526226D01*
X194076749Y-62692295D01*
X194059738Y-62865000D01*
X194064001Y-62908280D01*
X194064000Y-73930078D01*
X191812640Y-76181439D01*
X191779026Y-76209025D01*
X191751441Y-76242638D01*
X191668932Y-76343175D01*
X191587125Y-76496226D01*
X191536749Y-76662295D01*
X191519738Y-76835000D01*
X172911375Y-76835000D01*
X172860930Y-76772296D01*
X172817134Y-76708353D01*
X172780096Y-76643714D01*
X172749317Y-76577949D01*
X172724431Y-76510569D01*
X172705178Y-76440922D01*
X172691481Y-76368366D01*
X172683417Y-76292279D01*
X172681000Y-76204785D01*
X172681000Y-76078757D01*
X172633693Y-75840931D01*
X172540898Y-75616903D01*
X172406180Y-75415283D01*
X172234717Y-75243820D01*
X172033097Y-75109102D01*
X171809069Y-75016307D01*
X171571243Y-74969000D01*
X171328757Y-74969000D01*
X171090931Y-75016307D01*
X170866903Y-75109102D01*
X170665283Y-75243820D01*
X170493820Y-75415283D01*
X170359102Y-75616903D01*
X170266307Y-75840931D01*
X170219000Y-76078757D01*
X169951000Y-76078757D01*
X169951000Y-73538757D01*
X170219000Y-73538757D01*
X170219000Y-73781243D01*
X170266307Y-74019069D01*
X170359102Y-74243097D01*
X170493820Y-74444717D01*
X170665283Y-74616180D01*
X170866903Y-74750898D01*
X171090931Y-74843693D01*
X171328757Y-74891000D01*
X171571243Y-74891000D01*
X171809069Y-74843693D01*
X172033097Y-74750898D01*
X172234717Y-74616180D01*
X172406180Y-74444717D01*
X172540898Y-74243097D01*
X172633693Y-74019069D01*
X172681000Y-73781243D01*
X172681000Y-73538757D01*
X172633693Y-73300931D01*
X172540898Y-73076903D01*
X172406180Y-72875283D01*
X172234717Y-72703820D01*
X172033097Y-72569102D01*
X171809069Y-72476307D01*
X171571243Y-72429000D01*
X171328757Y-72429000D01*
X171090931Y-72476307D01*
X170866903Y-72569102D01*
X170665283Y-72703820D01*
X170493820Y-72875283D01*
X170359102Y-73076903D01*
X170266307Y-73300931D01*
X170219000Y-73538757D01*
X169951000Y-73538757D01*
X169951000Y-70998757D01*
X170219000Y-70998757D01*
X170219000Y-71241243D01*
X170266307Y-71479069D01*
X170359102Y-71703097D01*
X170493820Y-71904717D01*
X170665283Y-72076180D01*
X170866903Y-72210898D01*
X171090931Y-72303693D01*
X171328757Y-72351000D01*
X171571243Y-72351000D01*
X171809069Y-72303693D01*
X172033097Y-72210898D01*
X172234717Y-72076180D01*
X172406180Y-71904717D01*
X172540898Y-71703097D01*
X172633693Y-71479069D01*
X172681000Y-71241243D01*
X172681000Y-70998757D01*
X172633693Y-70760931D01*
X172540898Y-70536903D01*
X172406180Y-70335283D01*
X172234717Y-70163820D01*
X172033097Y-70029102D01*
X171809069Y-69936307D01*
X171571243Y-69889000D01*
X171328757Y-69889000D01*
X171090931Y-69936307D01*
X170866903Y-70029102D01*
X170665283Y-70163820D01*
X170493820Y-70335283D01*
X170359102Y-70536903D01*
X170266307Y-70760931D01*
X170219000Y-70998757D01*
X169951000Y-70998757D01*
X169951000Y-68458757D01*
X170219000Y-68458757D01*
X170219000Y-68701243D01*
X170266307Y-68939069D01*
X170359102Y-69163097D01*
X170493820Y-69364717D01*
X170665283Y-69536180D01*
X170866903Y-69670898D01*
X171090931Y-69763693D01*
X171328757Y-69811000D01*
X171571243Y-69811000D01*
X171809069Y-69763693D01*
X172033097Y-69670898D01*
X172234717Y-69536180D01*
X172406180Y-69364717D01*
X172540898Y-69163097D01*
X172633693Y-68939069D01*
X172681000Y-68701243D01*
X172681000Y-68458757D01*
X172633693Y-68220931D01*
X172540898Y-67996903D01*
X172406180Y-67795283D01*
X172234717Y-67623820D01*
X172033097Y-67489102D01*
X171809069Y-67396307D01*
X171571243Y-67349000D01*
X171328757Y-67349000D01*
X171090931Y-67396307D01*
X170866903Y-67489102D01*
X170665283Y-67623820D01*
X170493820Y-67795283D01*
X170359102Y-67996903D01*
X170266307Y-68220931D01*
X170219000Y-68458757D01*
X169951000Y-68458757D01*
X169951000Y-65918757D01*
X170219000Y-65918757D01*
X170219000Y-66161243D01*
X170266307Y-66399069D01*
X170359102Y-66623097D01*
X170493820Y-66824717D01*
X170665283Y-66996180D01*
X170866903Y-67130898D01*
X171090931Y-67223693D01*
X171328757Y-67271000D01*
X171571243Y-67271000D01*
X171809069Y-67223693D01*
X172033097Y-67130898D01*
X172234717Y-66996180D01*
X172406180Y-66824717D01*
X172540898Y-66623097D01*
X172551261Y-66598078D01*
X177019000Y-66598078D01*
X177019000Y-66751922D01*
X177049013Y-66902809D01*
X177107887Y-67044942D01*
X177193358Y-67172859D01*
X177247371Y-67226872D01*
X177262437Y-67242797D01*
X177269707Y-67251796D01*
X177275307Y-67260011D01*
X177279739Y-67267840D01*
X177283406Y-67275816D01*
X177286565Y-67284548D01*
X177289310Y-67294683D01*
X177291578Y-67306838D01*
X177293164Y-67321520D01*
X177294000Y-67345532D01*
X177294001Y-70605144D01*
X177291553Y-70630000D01*
X177301322Y-70729192D01*
X177330255Y-70824574D01*
X177330256Y-70824575D01*
X177377242Y-70912479D01*
X177440474Y-70989527D01*
X177459781Y-71005372D01*
X179157157Y-72702749D01*
X179157157Y-74260000D01*
X179164513Y-74334689D01*
X179186299Y-74406508D01*
X179221678Y-74472696D01*
X179269289Y-74530711D01*
X179327304Y-74578322D01*
X179393492Y-74613701D01*
X179465311Y-74635487D01*
X179540000Y-74642843D01*
X179917539Y-74642843D01*
X179980474Y-74719529D01*
X179999780Y-74735373D01*
X180713036Y-75448630D01*
X180729459Y-75466238D01*
X180738713Y-75477734D01*
X180745706Y-75487934D01*
X180750923Y-75497027D01*
X180754869Y-75505445D01*
X180757916Y-75513677D01*
X180760318Y-75522351D01*
X180762167Y-75532116D01*
X180763390Y-75543630D01*
X180763998Y-75565522D01*
X180763998Y-75641922D01*
X180794011Y-75792809D01*
X180852885Y-75934942D01*
X180938356Y-76062859D01*
X181047139Y-76171642D01*
X181175056Y-76257113D01*
X181317189Y-76315987D01*
X181468076Y-76346000D01*
X181621920Y-76346000D01*
X181772807Y-76315987D01*
X181914940Y-76257113D01*
X182042857Y-76171642D01*
X182151640Y-76062859D01*
X182237111Y-75934942D01*
X182295985Y-75792809D01*
X182325998Y-75641922D01*
X182325998Y-75488078D01*
X182295985Y-75337191D01*
X182237111Y-75195058D01*
X182151640Y-75067141D01*
X182042857Y-74958358D01*
X181914940Y-74872887D01*
X181772807Y-74814013D01*
X181621920Y-74784000D01*
X181545520Y-74784000D01*
X181523628Y-74783392D01*
X181512114Y-74782169D01*
X181502349Y-74780320D01*
X181493675Y-74777918D01*
X181485443Y-74774871D01*
X181477025Y-74770925D01*
X181467932Y-74765708D01*
X181457732Y-74758715D01*
X181446236Y-74749461D01*
X181428628Y-74733038D01*
X181301355Y-74605765D01*
X181352696Y-74578322D01*
X181410711Y-74530711D01*
X181458322Y-74472696D01*
X181493701Y-74406508D01*
X181515487Y-74334689D01*
X181522843Y-74260000D01*
X181522843Y-72080000D01*
X181515487Y-72005311D01*
X181493701Y-71933492D01*
X181458322Y-71867304D01*
X181410711Y-71809289D01*
X181352696Y-71761678D01*
X181286508Y-71726299D01*
X181214689Y-71704513D01*
X181140000Y-71697157D01*
X179582749Y-71697157D01*
X178306000Y-70420409D01*
X178306000Y-67345540D01*
X178306836Y-67321506D01*
X178308421Y-67306838D01*
X178310689Y-67294683D01*
X178313434Y-67284548D01*
X178316593Y-67275816D01*
X178320260Y-67267840D01*
X178324692Y-67260011D01*
X178330292Y-67251796D01*
X178337556Y-67242804D01*
X178352638Y-67226863D01*
X178406642Y-67172859D01*
X178492113Y-67044942D01*
X178550987Y-66902809D01*
X178581000Y-66751922D01*
X178581000Y-66598078D01*
X178550987Y-66447191D01*
X178492113Y-66305058D01*
X178406642Y-66177141D01*
X178297859Y-66068358D01*
X178169942Y-65982887D01*
X178027809Y-65924013D01*
X177876922Y-65894000D01*
X177723078Y-65894000D01*
X177572191Y-65924013D01*
X177430058Y-65982887D01*
X177302141Y-66068358D01*
X177193358Y-66177141D01*
X177107887Y-66305058D01*
X177049013Y-66447191D01*
X177019000Y-66598078D01*
X172551261Y-66598078D01*
X172633693Y-66399069D01*
X172681000Y-66161243D01*
X172681000Y-65918757D01*
X172633693Y-65680931D01*
X172540898Y-65456903D01*
X172406180Y-65255283D01*
X172234717Y-65083820D01*
X172229000Y-65080000D01*
X179010450Y-65080000D01*
X179020625Y-65183310D01*
X179050760Y-65282650D01*
X179099695Y-65374202D01*
X179165552Y-65454448D01*
X179245798Y-65520305D01*
X179337350Y-65569240D01*
X179436690Y-65599375D01*
X179540000Y-65609550D01*
X180085250Y-65607000D01*
X180217000Y-65475250D01*
X180217000Y-64113000D01*
X180463000Y-64113000D01*
X180463000Y-65475250D01*
X180594750Y-65607000D01*
X181140000Y-65609550D01*
X181243310Y-65599375D01*
X181342650Y-65569240D01*
X181434202Y-65520305D01*
X181514448Y-65454448D01*
X181580305Y-65374202D01*
X181629240Y-65282650D01*
X181659375Y-65183310D01*
X181669550Y-65080000D01*
X181667000Y-64244750D01*
X181535250Y-64113000D01*
X180463000Y-64113000D01*
X180217000Y-64113000D01*
X179144750Y-64113000D01*
X179013000Y-64244750D01*
X179010450Y-65080000D01*
X172229000Y-65080000D01*
X172033097Y-64949102D01*
X171809069Y-64856307D01*
X171571243Y-64809000D01*
X171328757Y-64809000D01*
X171090931Y-64856307D01*
X170866903Y-64949102D01*
X170665283Y-65083820D01*
X170493820Y-65255283D01*
X170359102Y-65456903D01*
X170266307Y-65680931D01*
X170219000Y-65918757D01*
X169951000Y-65918757D01*
X169951000Y-61296035D01*
X170114631Y-61296035D01*
X170152985Y-61422490D01*
X170268134Y-61666638D01*
X170428702Y-61883631D01*
X170628517Y-62065129D01*
X170859902Y-62204158D01*
X171113964Y-62295374D01*
X171326998Y-62199752D01*
X171326998Y-62269350D01*
X171090931Y-62316307D01*
X170866903Y-62409102D01*
X170665283Y-62543820D01*
X170493820Y-62715283D01*
X170359102Y-62916903D01*
X170266307Y-63140931D01*
X170219000Y-63378757D01*
X170219000Y-63621243D01*
X170266307Y-63859069D01*
X170359102Y-64083097D01*
X170493820Y-64284717D01*
X170665283Y-64456180D01*
X170866903Y-64590898D01*
X171090931Y-64683693D01*
X171328757Y-64731000D01*
X171571243Y-64731000D01*
X171809069Y-64683693D01*
X172033097Y-64590898D01*
X172234717Y-64456180D01*
X172406180Y-64284717D01*
X172540898Y-64083097D01*
X172633693Y-63859069D01*
X172681000Y-63621243D01*
X172681000Y-63378757D01*
X172633693Y-63140931D01*
X172540898Y-62916903D01*
X172529604Y-62900000D01*
X179010450Y-62900000D01*
X179013000Y-63735250D01*
X179144750Y-63867000D01*
X180217000Y-63867000D01*
X180217000Y-62504750D01*
X180463000Y-62504750D01*
X180463000Y-63867000D01*
X181535250Y-63867000D01*
X181667000Y-63735250D01*
X181669550Y-62900000D01*
X181659375Y-62796690D01*
X181629240Y-62697350D01*
X181580305Y-62605798D01*
X181514448Y-62525552D01*
X181434202Y-62459695D01*
X181342650Y-62410760D01*
X181243310Y-62380625D01*
X181140000Y-62370450D01*
X180594750Y-62373000D01*
X180463000Y-62504750D01*
X180217000Y-62504750D01*
X180085250Y-62373000D01*
X179540000Y-62370450D01*
X179436690Y-62380625D01*
X179337350Y-62410760D01*
X179245798Y-62459695D01*
X179165552Y-62525552D01*
X179099695Y-62605798D01*
X179050760Y-62697350D01*
X179020625Y-62796690D01*
X179010450Y-62900000D01*
X172529604Y-62900000D01*
X172406180Y-62715283D01*
X172234717Y-62543820D01*
X172033097Y-62409102D01*
X171809069Y-62316307D01*
X171573002Y-62269350D01*
X171573002Y-62199752D01*
X171786036Y-62295374D01*
X172040098Y-62204158D01*
X172271483Y-62065129D01*
X172471298Y-61883631D01*
X172631866Y-61666638D01*
X172747015Y-61422490D01*
X172785369Y-61296035D01*
X172689160Y-61083000D01*
X171573000Y-61083000D01*
X171573000Y-61103000D01*
X171327000Y-61103000D01*
X171327000Y-61083000D01*
X170210840Y-61083000D01*
X170114631Y-61296035D01*
X169951000Y-61296035D01*
X169951000Y-58756035D01*
X170114631Y-58756035D01*
X170152985Y-58882490D01*
X170268134Y-59126638D01*
X170428702Y-59343631D01*
X170628517Y-59525129D01*
X170859902Y-59664158D01*
X170931879Y-59690000D01*
X170859902Y-59715842D01*
X170628517Y-59854871D01*
X170428702Y-60036369D01*
X170268134Y-60253362D01*
X170152985Y-60497510D01*
X170114631Y-60623965D01*
X170210840Y-60837000D01*
X171327000Y-60837000D01*
X171327000Y-59720249D01*
X171259609Y-59690000D01*
X171327000Y-59659751D01*
X171327000Y-58543000D01*
X171573000Y-58543000D01*
X171573000Y-59659751D01*
X171640391Y-59690000D01*
X171573000Y-59720249D01*
X171573000Y-60837000D01*
X172689160Y-60837000D01*
X172785369Y-60623965D01*
X172747015Y-60497510D01*
X172631866Y-60253362D01*
X172471298Y-60036369D01*
X172271483Y-59854871D01*
X172040098Y-59715842D01*
X171968121Y-59690000D01*
X172040098Y-59664158D01*
X172271483Y-59525129D01*
X172471298Y-59343631D01*
X172631866Y-59126638D01*
X172747015Y-58882490D01*
X172785369Y-58756035D01*
X172689160Y-58543000D01*
X171573000Y-58543000D01*
X171327000Y-58543000D01*
X170210840Y-58543000D01*
X170114631Y-58756035D01*
X169951000Y-58756035D01*
X169951000Y-56216035D01*
X170114631Y-56216035D01*
X170152985Y-56342490D01*
X170268134Y-56586638D01*
X170428702Y-56803631D01*
X170628517Y-56985129D01*
X170859902Y-57124158D01*
X170931879Y-57150000D01*
X170859902Y-57175842D01*
X170628517Y-57314871D01*
X170428702Y-57496369D01*
X170268134Y-57713362D01*
X170152985Y-57957510D01*
X170114631Y-58083965D01*
X170210840Y-58297000D01*
X171327000Y-58297000D01*
X171327000Y-57180249D01*
X171259609Y-57150000D01*
X171327000Y-57119751D01*
X171327000Y-56003000D01*
X171573000Y-56003000D01*
X171573000Y-57119751D01*
X171640391Y-57150000D01*
X171573000Y-57180249D01*
X171573000Y-58297000D01*
X172689160Y-58297000D01*
X172785369Y-58083965D01*
X172747015Y-57957510D01*
X172631866Y-57713362D01*
X172471298Y-57496369D01*
X172271483Y-57314871D01*
X172040098Y-57175842D01*
X171968121Y-57150000D01*
X172040098Y-57124158D01*
X172271483Y-56985129D01*
X172471298Y-56803631D01*
X172631866Y-56586638D01*
X172747015Y-56342490D01*
X172785369Y-56216035D01*
X172689160Y-56003000D01*
X171573000Y-56003000D01*
X171327000Y-56003000D01*
X170210840Y-56003000D01*
X170114631Y-56216035D01*
X169951000Y-56216035D01*
X169951000Y-54190000D01*
X170070450Y-54190000D01*
X170080625Y-54293310D01*
X170110760Y-54392650D01*
X170159695Y-54484202D01*
X170225552Y-54564448D01*
X170305798Y-54630305D01*
X170397350Y-54679240D01*
X170496690Y-54709375D01*
X170600000Y-54719550D01*
X170721453Y-54719030D01*
X170628517Y-54774871D01*
X170428702Y-54956369D01*
X170268134Y-55173362D01*
X170152985Y-55417510D01*
X170114631Y-55543965D01*
X170210840Y-55757000D01*
X171327000Y-55757000D01*
X171327000Y-54640249D01*
X171289040Y-54623210D01*
X171327000Y-54585250D01*
X171327000Y-53463000D01*
X171573000Y-53463000D01*
X171573000Y-54585250D01*
X171610960Y-54623210D01*
X171573000Y-54640249D01*
X171573000Y-55757000D01*
X172689160Y-55757000D01*
X172785369Y-55543965D01*
X172747015Y-55417510D01*
X172631866Y-55173362D01*
X172540560Y-55049969D01*
X183883979Y-55049969D01*
X183985521Y-55284649D01*
X184256383Y-55415456D01*
X184547558Y-55490906D01*
X184847859Y-55508101D01*
X185145744Y-55466379D01*
X185429766Y-55367345D01*
X185584479Y-55284649D01*
X185686021Y-55049969D01*
X184785000Y-54148948D01*
X183883979Y-55049969D01*
X172540560Y-55049969D01*
X172471298Y-54956369D01*
X172271483Y-54774871D01*
X172178547Y-54719030D01*
X172300000Y-54719550D01*
X172403310Y-54709375D01*
X172502650Y-54679240D01*
X172594202Y-54630305D01*
X172674448Y-54564448D01*
X172740305Y-54484202D01*
X172789240Y-54392650D01*
X172819375Y-54293310D01*
X172829550Y-54190000D01*
X172828899Y-54037859D01*
X183251899Y-54037859D01*
X183293621Y-54335744D01*
X183392655Y-54619766D01*
X183475351Y-54774479D01*
X183710031Y-54876021D01*
X184611052Y-53975000D01*
X184958948Y-53975000D01*
X185859969Y-54876021D01*
X186094649Y-54774479D01*
X186225456Y-54503617D01*
X186300906Y-54212442D01*
X186318101Y-53912141D01*
X186307855Y-53838983D01*
X194834000Y-53838983D01*
X194834000Y-54111017D01*
X194887071Y-54377823D01*
X194991174Y-54629149D01*
X195142307Y-54855336D01*
X195334664Y-55047693D01*
X195560851Y-55198826D01*
X195812177Y-55302929D01*
X196078983Y-55356000D01*
X196351017Y-55356000D01*
X196617823Y-55302929D01*
X196869149Y-55198826D01*
X197095336Y-55047693D01*
X197287693Y-54855336D01*
X197438826Y-54629149D01*
X197542929Y-54377823D01*
X197596000Y-54111017D01*
X197596000Y-53838983D01*
X197542929Y-53572177D01*
X197438826Y-53320851D01*
X197287693Y-53094664D01*
X197095336Y-52902307D01*
X196869149Y-52751174D01*
X196617823Y-52647071D01*
X196351017Y-52594000D01*
X196078983Y-52594000D01*
X195812177Y-52647071D01*
X195560851Y-52751174D01*
X195334664Y-52902307D01*
X195142307Y-53094664D01*
X194991174Y-53320851D01*
X194887071Y-53572177D01*
X194834000Y-53838983D01*
X186307855Y-53838983D01*
X186276379Y-53614256D01*
X186177345Y-53330234D01*
X186094649Y-53175521D01*
X185859969Y-53073979D01*
X184958948Y-53975000D01*
X184611052Y-53975000D01*
X183710031Y-53073979D01*
X183475351Y-53175521D01*
X183344544Y-53446383D01*
X183269094Y-53737558D01*
X183251899Y-54037859D01*
X172828899Y-54037859D01*
X172827000Y-53594750D01*
X172695250Y-53463000D01*
X171573000Y-53463000D01*
X171327000Y-53463000D01*
X170204750Y-53463000D01*
X170073000Y-53594750D01*
X170070450Y-54190000D01*
X169951000Y-54190000D01*
X169951000Y-52490000D01*
X170070450Y-52490000D01*
X170073000Y-53085250D01*
X170204750Y-53217000D01*
X171327000Y-53217000D01*
X171327000Y-52094750D01*
X171573000Y-52094750D01*
X171573000Y-53217000D01*
X172695250Y-53217000D01*
X172827000Y-53085250D01*
X172827793Y-52900031D01*
X183883979Y-52900031D01*
X184785000Y-53801052D01*
X185686021Y-52900031D01*
X185584479Y-52665351D01*
X185313617Y-52534544D01*
X185022442Y-52459094D01*
X184722141Y-52441899D01*
X184424256Y-52483621D01*
X184140234Y-52582655D01*
X183985521Y-52665351D01*
X183883979Y-52900031D01*
X172827793Y-52900031D01*
X172829550Y-52490000D01*
X172819375Y-52386690D01*
X172789240Y-52287350D01*
X172740305Y-52195798D01*
X172674448Y-52115552D01*
X172594202Y-52049695D01*
X172502650Y-52000760D01*
X172403310Y-51970625D01*
X172300000Y-51960450D01*
X171704750Y-51963000D01*
X171573000Y-52094750D01*
X171327000Y-52094750D01*
X171195250Y-51963000D01*
X170600000Y-51960450D01*
X170496690Y-51970625D01*
X170397350Y-52000760D01*
X170305798Y-52049695D01*
X170225552Y-52115552D01*
X170159695Y-52195798D01*
X170110760Y-52287350D01*
X170080625Y-52386690D01*
X170070450Y-52490000D01*
X169951000Y-52490000D01*
X169951000Y-51841000D01*
X211049000Y-51841000D01*
X211049001Y-108179000D01*
%TA.AperFunction,Conductor*%
D21*
G36*
X211049001Y-108179000D02*
G01*
X169951000Y-108179000D01*
X169951000Y-106558757D01*
X170219000Y-106558757D01*
X170219000Y-106801243D01*
X170266307Y-107039069D01*
X170359102Y-107263097D01*
X170493820Y-107464717D01*
X170665283Y-107636180D01*
X170866903Y-107770898D01*
X171090931Y-107863693D01*
X171328757Y-107911000D01*
X171571243Y-107911000D01*
X171809069Y-107863693D01*
X172033097Y-107770898D01*
X172234717Y-107636180D01*
X172406180Y-107464717D01*
X172540898Y-107263097D01*
X172633693Y-107039069D01*
X172681000Y-106801243D01*
X172681000Y-106558757D01*
X208319000Y-106558757D01*
X208319000Y-106801243D01*
X208366307Y-107039069D01*
X208459102Y-107263097D01*
X208593820Y-107464717D01*
X208765283Y-107636180D01*
X208966903Y-107770898D01*
X209190931Y-107863693D01*
X209428757Y-107911000D01*
X209671243Y-107911000D01*
X209909069Y-107863693D01*
X210133097Y-107770898D01*
X210334717Y-107636180D01*
X210506180Y-107464717D01*
X210640898Y-107263097D01*
X210733693Y-107039069D01*
X210781000Y-106801243D01*
X210781000Y-106558757D01*
X210733693Y-106320931D01*
X210640898Y-106096903D01*
X210506180Y-105895283D01*
X210334717Y-105723820D01*
X210133097Y-105589102D01*
X209909069Y-105496307D01*
X209671243Y-105449000D01*
X209428757Y-105449000D01*
X209190931Y-105496307D01*
X208966903Y-105589102D01*
X208765283Y-105723820D01*
X208593820Y-105895283D01*
X208459102Y-106096903D01*
X208366307Y-106320931D01*
X208319000Y-106558757D01*
X172681000Y-106558757D01*
X172633693Y-106320931D01*
X172540898Y-106096903D01*
X172406180Y-105895283D01*
X172234717Y-105723820D01*
X172033097Y-105589102D01*
X171809069Y-105496307D01*
X171571243Y-105449000D01*
X171328757Y-105449000D01*
X171090931Y-105496307D01*
X170866903Y-105589102D01*
X170665283Y-105723820D01*
X170493820Y-105895283D01*
X170359102Y-106096903D01*
X170266307Y-106320931D01*
X170219000Y-106558757D01*
X169951000Y-106558757D01*
X169951000Y-104018757D01*
X170219000Y-104018757D01*
X170219000Y-104261243D01*
X170266307Y-104499069D01*
X170359102Y-104723097D01*
X170493820Y-104924717D01*
X170665283Y-105096180D01*
X170866903Y-105230898D01*
X171090931Y-105323693D01*
X171328757Y-105371000D01*
X171571243Y-105371000D01*
X171809069Y-105323693D01*
X172033097Y-105230898D01*
X172234717Y-105096180D01*
X172406180Y-104924717D01*
X172540898Y-104723097D01*
X172633693Y-104499069D01*
X172681000Y-104261243D01*
X172681000Y-104018757D01*
X208319000Y-104018757D01*
X208319000Y-104261243D01*
X208366307Y-104499069D01*
X208459102Y-104723097D01*
X208593820Y-104924717D01*
X208765283Y-105096180D01*
X208966903Y-105230898D01*
X209190931Y-105323693D01*
X209428757Y-105371000D01*
X209671243Y-105371000D01*
X209909069Y-105323693D01*
X210133097Y-105230898D01*
X210334717Y-105096180D01*
X210506180Y-104924717D01*
X210640898Y-104723097D01*
X210733693Y-104499069D01*
X210781000Y-104261243D01*
X210781000Y-104018757D01*
X210733693Y-103780931D01*
X210640898Y-103556903D01*
X210506180Y-103355283D01*
X210334717Y-103183820D01*
X210133097Y-103049102D01*
X209909069Y-102956307D01*
X209671243Y-102909000D01*
X209428757Y-102909000D01*
X209190931Y-102956307D01*
X208966903Y-103049102D01*
X208765283Y-103183820D01*
X208593820Y-103355283D01*
X208459102Y-103556903D01*
X208366307Y-103780931D01*
X208319000Y-104018757D01*
X172681000Y-104018757D01*
X172633693Y-103780931D01*
X172540898Y-103556903D01*
X172406180Y-103355283D01*
X172234717Y-103183820D01*
X172033097Y-103049102D01*
X171809069Y-102956307D01*
X171571243Y-102909000D01*
X171328757Y-102909000D01*
X171090931Y-102956307D01*
X170866903Y-103049102D01*
X170665283Y-103183820D01*
X170493820Y-103355283D01*
X170359102Y-103556903D01*
X170266307Y-103780931D01*
X170219000Y-104018757D01*
X169951000Y-104018757D01*
X169951000Y-101478757D01*
X170219000Y-101478757D01*
X170219000Y-101721243D01*
X170266307Y-101959069D01*
X170359102Y-102183097D01*
X170493820Y-102384717D01*
X170665283Y-102556180D01*
X170866903Y-102690898D01*
X171090931Y-102783693D01*
X171328757Y-102831000D01*
X171571243Y-102831000D01*
X171809069Y-102783693D01*
X172033097Y-102690898D01*
X172234717Y-102556180D01*
X172406180Y-102384717D01*
X172540898Y-102183097D01*
X172633693Y-101959069D01*
X172681000Y-101721243D01*
X172681000Y-101478757D01*
X208319000Y-101478757D01*
X208319000Y-101721243D01*
X208366307Y-101959069D01*
X208459102Y-102183097D01*
X208593820Y-102384717D01*
X208765283Y-102556180D01*
X208966903Y-102690898D01*
X209190931Y-102783693D01*
X209428757Y-102831000D01*
X209671243Y-102831000D01*
X209909069Y-102783693D01*
X210133097Y-102690898D01*
X210334717Y-102556180D01*
X210506180Y-102384717D01*
X210640898Y-102183097D01*
X210733693Y-101959069D01*
X210781000Y-101721243D01*
X210781000Y-101478757D01*
X210733693Y-101240931D01*
X210640898Y-101016903D01*
X210506180Y-100815283D01*
X210334717Y-100643820D01*
X210133097Y-100509102D01*
X209909069Y-100416307D01*
X209671243Y-100369000D01*
X209428757Y-100369000D01*
X209190931Y-100416307D01*
X208966903Y-100509102D01*
X208765283Y-100643820D01*
X208593820Y-100815283D01*
X208459102Y-101016903D01*
X208366307Y-101240931D01*
X208319000Y-101478757D01*
X172681000Y-101478757D01*
X172633693Y-101240931D01*
X172540898Y-101016903D01*
X172406180Y-100815283D01*
X172234717Y-100643820D01*
X172033097Y-100509102D01*
X171809069Y-100416307D01*
X171571243Y-100369000D01*
X171328757Y-100369000D01*
X171090931Y-100416307D01*
X170866903Y-100509102D01*
X170665283Y-100643820D01*
X170493820Y-100815283D01*
X170359102Y-101016903D01*
X170266307Y-101240931D01*
X170219000Y-101478757D01*
X169951000Y-101478757D01*
X169951000Y-98938757D01*
X170219000Y-98938757D01*
X170219000Y-99181243D01*
X170266307Y-99419069D01*
X170359102Y-99643097D01*
X170493820Y-99844717D01*
X170665283Y-100016180D01*
X170866903Y-100150898D01*
X171090931Y-100243693D01*
X171328757Y-100291000D01*
X171571243Y-100291000D01*
X171809069Y-100243693D01*
X172033097Y-100150898D01*
X172234717Y-100016180D01*
X172406180Y-99844717D01*
X172540898Y-99643097D01*
X172633693Y-99419069D01*
X172681000Y-99181243D01*
X172681000Y-98938757D01*
X208319000Y-98938757D01*
X208319000Y-99181243D01*
X208366307Y-99419069D01*
X208459102Y-99643097D01*
X208593820Y-99844717D01*
X208765283Y-100016180D01*
X208966903Y-100150898D01*
X209190931Y-100243693D01*
X209428757Y-100291000D01*
X209671243Y-100291000D01*
X209909069Y-100243693D01*
X210133097Y-100150898D01*
X210334717Y-100016180D01*
X210506180Y-99844717D01*
X210640898Y-99643097D01*
X210733693Y-99419069D01*
X210781000Y-99181243D01*
X210781000Y-98938757D01*
X210733693Y-98700931D01*
X210640898Y-98476903D01*
X210506180Y-98275283D01*
X210334717Y-98103820D01*
X210133097Y-97969102D01*
X209909069Y-97876307D01*
X209671243Y-97829000D01*
X209428757Y-97829000D01*
X209190931Y-97876307D01*
X208966903Y-97969102D01*
X208765283Y-98103820D01*
X208593820Y-98275283D01*
X208459102Y-98476903D01*
X208366307Y-98700931D01*
X208319000Y-98938757D01*
X172681000Y-98938757D01*
X172633693Y-98700931D01*
X172540898Y-98476903D01*
X172406180Y-98275283D01*
X172234717Y-98103820D01*
X172033097Y-97969102D01*
X171809069Y-97876307D01*
X171571243Y-97829000D01*
X171328757Y-97829000D01*
X171090931Y-97876307D01*
X170866903Y-97969102D01*
X170665283Y-98103820D01*
X170493820Y-98275283D01*
X170359102Y-98476903D01*
X170266307Y-98700931D01*
X170219000Y-98938757D01*
X169951000Y-98938757D01*
X169951000Y-96398757D01*
X170219000Y-96398757D01*
X170219000Y-96641243D01*
X170266307Y-96879069D01*
X170359102Y-97103097D01*
X170493820Y-97304717D01*
X170665283Y-97476180D01*
X170866903Y-97610898D01*
X171090931Y-97703693D01*
X171328757Y-97751000D01*
X171571243Y-97751000D01*
X171809069Y-97703693D01*
X172033097Y-97610898D01*
X172234717Y-97476180D01*
X172406180Y-97304717D01*
X172540898Y-97103097D01*
X172633693Y-96879069D01*
X172681000Y-96641243D01*
X172681000Y-96398757D01*
X172633693Y-96160931D01*
X172540898Y-95936903D01*
X172406180Y-95735283D01*
X172234717Y-95563820D01*
X172033097Y-95429102D01*
X171809069Y-95336307D01*
X171571243Y-95289000D01*
X171328757Y-95289000D01*
X171090931Y-95336307D01*
X170866903Y-95429102D01*
X170665283Y-95563820D01*
X170493820Y-95735283D01*
X170359102Y-95936903D01*
X170266307Y-96160931D01*
X170219000Y-96398757D01*
X169951000Y-96398757D01*
X169951000Y-93858757D01*
X170219000Y-93858757D01*
X170219000Y-94101243D01*
X170266307Y-94339069D01*
X170359102Y-94563097D01*
X170493820Y-94764717D01*
X170665283Y-94936180D01*
X170866903Y-95070898D01*
X171090931Y-95163693D01*
X171328757Y-95211000D01*
X171571243Y-95211000D01*
X171809069Y-95163693D01*
X172033097Y-95070898D01*
X172234717Y-94936180D01*
X172406180Y-94764717D01*
X172540898Y-94563097D01*
X172633693Y-94339069D01*
X172681000Y-94101243D01*
X172681000Y-93858757D01*
X172633693Y-93620931D01*
X172540898Y-93396903D01*
X172406180Y-93195283D01*
X172234717Y-93023820D01*
X172033097Y-92889102D01*
X171809069Y-92796307D01*
X171571243Y-92749000D01*
X171328757Y-92749000D01*
X171090931Y-92796307D01*
X170866903Y-92889102D01*
X170665283Y-93023820D01*
X170493820Y-93195283D01*
X170359102Y-93396903D01*
X170266307Y-93620931D01*
X170219000Y-93858757D01*
X169951000Y-93858757D01*
X169951000Y-91318757D01*
X170219000Y-91318757D01*
X170219000Y-91561243D01*
X170266307Y-91799069D01*
X170359102Y-92023097D01*
X170493820Y-92224717D01*
X170665283Y-92396180D01*
X170866903Y-92530898D01*
X171090931Y-92623693D01*
X171328757Y-92671000D01*
X171571243Y-92671000D01*
X171809069Y-92623693D01*
X172033097Y-92530898D01*
X172234717Y-92396180D01*
X172406180Y-92224717D01*
X172540898Y-92023097D01*
X172633693Y-91799069D01*
X172681000Y-91561243D01*
X172681000Y-91318757D01*
X172633693Y-91080931D01*
X172540898Y-90856903D01*
X172406180Y-90655283D01*
X172234717Y-90483820D01*
X172033097Y-90349102D01*
X171809069Y-90256307D01*
X171571243Y-90209000D01*
X171328757Y-90209000D01*
X171090931Y-90256307D01*
X170866903Y-90349102D01*
X170665283Y-90483820D01*
X170493820Y-90655283D01*
X170359102Y-90856903D01*
X170266307Y-91080931D01*
X170219000Y-91318757D01*
X169951000Y-91318757D01*
X169951000Y-88778757D01*
X170219000Y-88778757D01*
X170219000Y-89021243D01*
X170266307Y-89259069D01*
X170359102Y-89483097D01*
X170493820Y-89684717D01*
X170665283Y-89856180D01*
X170866903Y-89990898D01*
X171090931Y-90083693D01*
X171328757Y-90131000D01*
X171571243Y-90131000D01*
X171809069Y-90083693D01*
X172033097Y-89990898D01*
X172234717Y-89856180D01*
X172251819Y-89839078D01*
X189719000Y-89839078D01*
X189719000Y-89992922D01*
X189749013Y-90143809D01*
X189807887Y-90285942D01*
X189893358Y-90413859D01*
X189903807Y-90424308D01*
X189903981Y-90425210D01*
X189908680Y-90459239D01*
X189912904Y-90503580D01*
X189916187Y-90557269D01*
X189918265Y-90619634D01*
X189919000Y-90691915D01*
X189919001Y-96629962D01*
X189918959Y-96631540D01*
X189893358Y-96657141D01*
X189807887Y-96785058D01*
X189749013Y-96927191D01*
X189719000Y-97078078D01*
X189719000Y-97231922D01*
X189749013Y-97382809D01*
X189807887Y-97524942D01*
X189893358Y-97652859D01*
X190002141Y-97761642D01*
X190130058Y-97847113D01*
X190272191Y-97905987D01*
X190423078Y-97936000D01*
X190576922Y-97936000D01*
X190727809Y-97905987D01*
X190869942Y-97847113D01*
X190997859Y-97761642D01*
X191106642Y-97652859D01*
X191192113Y-97524942D01*
X191250987Y-97382809D01*
X191281000Y-97231922D01*
X191281000Y-97078078D01*
X191250987Y-96927191D01*
X191192113Y-96785058D01*
X191106642Y-96657141D01*
X191081041Y-96631540D01*
X191081000Y-96629993D01*
X191081000Y-96398757D01*
X208319000Y-96398757D01*
X208319000Y-96641243D01*
X208366307Y-96879069D01*
X208459102Y-97103097D01*
X208593820Y-97304717D01*
X208765283Y-97476180D01*
X208966903Y-97610898D01*
X209190931Y-97703693D01*
X209428757Y-97751000D01*
X209671243Y-97751000D01*
X209909069Y-97703693D01*
X210133097Y-97610898D01*
X210334717Y-97476180D01*
X210506180Y-97304717D01*
X210640898Y-97103097D01*
X210733693Y-96879069D01*
X210781000Y-96641243D01*
X210781000Y-96398757D01*
X210733693Y-96160931D01*
X210640898Y-95936903D01*
X210506180Y-95735283D01*
X210334717Y-95563820D01*
X210133097Y-95429102D01*
X209909069Y-95336307D01*
X209671243Y-95289000D01*
X209428757Y-95289000D01*
X209190931Y-95336307D01*
X208966903Y-95429102D01*
X208765283Y-95563820D01*
X208593820Y-95735283D01*
X208459102Y-95936903D01*
X208366307Y-96160931D01*
X208319000Y-96398757D01*
X191081000Y-96398757D01*
X191081000Y-93858757D01*
X208319000Y-93858757D01*
X208319000Y-94101243D01*
X208366307Y-94339069D01*
X208459102Y-94563097D01*
X208593820Y-94764717D01*
X208765283Y-94936180D01*
X208966903Y-95070898D01*
X209190931Y-95163693D01*
X209428757Y-95211000D01*
X209671243Y-95211000D01*
X209909069Y-95163693D01*
X210133097Y-95070898D01*
X210334717Y-94936180D01*
X210506180Y-94764717D01*
X210640898Y-94563097D01*
X210733693Y-94339069D01*
X210781000Y-94101243D01*
X210781000Y-93858757D01*
X210733693Y-93620931D01*
X210640898Y-93396903D01*
X210506180Y-93195283D01*
X210334717Y-93023820D01*
X210133097Y-92889102D01*
X209909069Y-92796307D01*
X209671243Y-92749000D01*
X209428757Y-92749000D01*
X209190931Y-92796307D01*
X208966903Y-92889102D01*
X208765283Y-93023820D01*
X208593820Y-93195283D01*
X208459102Y-93396903D01*
X208366307Y-93620931D01*
X208319000Y-93858757D01*
X191081000Y-93858757D01*
X191081000Y-90691907D01*
X191081735Y-90619634D01*
X191083813Y-90557269D01*
X191087096Y-90503580D01*
X191091320Y-90459239D01*
X191096019Y-90425210D01*
X191096193Y-90424308D01*
X191106642Y-90413859D01*
X191192113Y-90285942D01*
X191250987Y-90143809D01*
X191281000Y-89992922D01*
X191281000Y-89839078D01*
X191250987Y-89688191D01*
X191192113Y-89546058D01*
X191106642Y-89418141D01*
X190997859Y-89309358D01*
X190869942Y-89223887D01*
X190727809Y-89165013D01*
X190576922Y-89135000D01*
X190423078Y-89135000D01*
X190272191Y-89165013D01*
X190130058Y-89223887D01*
X190002141Y-89309358D01*
X189893358Y-89418141D01*
X189807887Y-89546058D01*
X189749013Y-89688191D01*
X189719000Y-89839078D01*
X172251819Y-89839078D01*
X172406180Y-89684717D01*
X172540898Y-89483097D01*
X172633693Y-89259069D01*
X172681000Y-89021243D01*
X172681000Y-88778757D01*
X172633693Y-88540931D01*
X172540898Y-88316903D01*
X172406180Y-88115283D01*
X172234717Y-87943820D01*
X172033097Y-87809102D01*
X171809069Y-87716307D01*
X171571243Y-87669000D01*
X171328757Y-87669000D01*
X171090931Y-87716307D01*
X170866903Y-87809102D01*
X170665283Y-87943820D01*
X170493820Y-88115283D01*
X170359102Y-88316903D01*
X170266307Y-88540931D01*
X170219000Y-88778757D01*
X169951000Y-88778757D01*
X169951000Y-86238757D01*
X170219000Y-86238757D01*
X170219000Y-86481243D01*
X170266307Y-86719069D01*
X170359102Y-86943097D01*
X170493820Y-87144717D01*
X170665283Y-87316180D01*
X170866903Y-87450898D01*
X171090931Y-87543693D01*
X171328757Y-87591000D01*
X171571243Y-87591000D01*
X171809069Y-87543693D01*
X172033097Y-87450898D01*
X172234717Y-87316180D01*
X172406180Y-87144717D01*
X172540898Y-86943097D01*
X172633693Y-86719069D01*
X172681000Y-86481243D01*
X172681000Y-86238757D01*
X172633693Y-86000931D01*
X172540898Y-85776903D01*
X172406180Y-85575283D01*
X172234717Y-85403820D01*
X172033097Y-85269102D01*
X171809069Y-85176307D01*
X171571243Y-85129000D01*
X171328757Y-85129000D01*
X171090931Y-85176307D01*
X170866903Y-85269102D01*
X170665283Y-85403820D01*
X170493820Y-85575283D01*
X170359102Y-85776903D01*
X170266307Y-86000931D01*
X170219000Y-86238757D01*
X169951000Y-86238757D01*
X169951000Y-76078757D01*
X170219000Y-76078757D01*
X170219000Y-76321243D01*
X170266307Y-76559069D01*
X170359102Y-76783097D01*
X170493820Y-76984717D01*
X170665283Y-77156180D01*
X170866903Y-77290898D01*
X171090931Y-77383693D01*
X171328757Y-77431000D01*
X171454785Y-77431000D01*
X171542279Y-77433417D01*
X171618366Y-77441481D01*
X171690922Y-77455178D01*
X171760569Y-77474431D01*
X171827949Y-77499317D01*
X171893714Y-77530096D01*
X171958353Y-77567134D01*
X172022296Y-77610930D01*
X172085742Y-77661971D01*
X172153498Y-77725155D01*
X172166746Y-77738403D01*
X172033097Y-77649102D01*
X171809069Y-77556307D01*
X171571243Y-77509000D01*
X171328757Y-77509000D01*
X171090931Y-77556307D01*
X170866903Y-77649102D01*
X170665283Y-77783820D01*
X170493820Y-77955283D01*
X170359102Y-78156903D01*
X170266307Y-78380931D01*
X170219000Y-78618757D01*
X170219000Y-78861243D01*
X170266307Y-79099069D01*
X170359102Y-79323097D01*
X170493820Y-79524717D01*
X170665283Y-79696180D01*
X170866903Y-79830898D01*
X171090931Y-79923693D01*
X171328757Y-79971000D01*
X171454785Y-79971000D01*
X171542279Y-79973417D01*
X171618366Y-79981481D01*
X171690922Y-79995178D01*
X171760569Y-80014431D01*
X171827949Y-80039317D01*
X171893714Y-80070096D01*
X171958353Y-80107134D01*
X172022296Y-80150930D01*
X172085742Y-80201971D01*
X172153497Y-80265154D01*
X172166746Y-80278403D01*
X172033097Y-80189102D01*
X171809069Y-80096307D01*
X171571243Y-80049000D01*
X171328757Y-80049000D01*
X171090931Y-80096307D01*
X170866903Y-80189102D01*
X170665283Y-80323820D01*
X170493820Y-80495283D01*
X170359102Y-80696903D01*
X170266307Y-80920931D01*
X170219000Y-81158757D01*
X170219000Y-81401243D01*
X170266307Y-81639069D01*
X170359102Y-81863097D01*
X170493820Y-82064717D01*
X170665283Y-82236180D01*
X170866903Y-82370898D01*
X171090931Y-82463693D01*
X171328757Y-82511000D01*
X171454785Y-82511000D01*
X171542279Y-82513417D01*
X171618366Y-82521481D01*
X171690922Y-82535178D01*
X171760569Y-82554431D01*
X171827949Y-82579317D01*
X171893714Y-82610096D01*
X171958353Y-82647134D01*
X172022296Y-82690930D01*
X172085742Y-82741971D01*
X172153495Y-82805153D01*
X172166746Y-82818403D01*
X172033097Y-82729102D01*
X171809069Y-82636307D01*
X171571243Y-82589000D01*
X171328757Y-82589000D01*
X171090931Y-82636307D01*
X170866903Y-82729102D01*
X170665283Y-82863820D01*
X170493820Y-83035283D01*
X170359102Y-83236903D01*
X170266307Y-83460931D01*
X170219000Y-83698757D01*
X170219000Y-83941243D01*
X170266307Y-84179069D01*
X170359102Y-84403097D01*
X170493820Y-84604717D01*
X170665283Y-84776180D01*
X170866903Y-84910898D01*
X171090931Y-85003693D01*
X171328757Y-85051000D01*
X171571243Y-85051000D01*
X171809069Y-85003693D01*
X172033097Y-84910898D01*
X172234717Y-84776180D01*
X172406180Y-84604717D01*
X172540898Y-84403097D01*
X172633693Y-84179069D01*
X172681000Y-83941243D01*
X172681000Y-83698757D01*
X172633693Y-83460931D01*
X172540898Y-83236903D01*
X172451597Y-83103255D01*
X173558987Y-84210645D01*
X173577183Y-84232817D01*
X173665652Y-84305421D01*
X173766585Y-84359371D01*
X173876104Y-84392593D01*
X173961460Y-84401000D01*
X173961462Y-84401000D01*
X173989999Y-84403811D01*
X174018536Y-84401000D01*
X184259997Y-84401000D01*
X184261540Y-84401041D01*
X184287141Y-84426642D01*
X184415058Y-84512113D01*
X184557191Y-84570987D01*
X184708078Y-84601000D01*
X184861922Y-84601000D01*
X185012809Y-84570987D01*
X185154942Y-84512113D01*
X185282859Y-84426642D01*
X185391642Y-84317859D01*
X185477113Y-84189942D01*
X185535987Y-84047809D01*
X185566000Y-83896922D01*
X185566000Y-83743078D01*
X185535987Y-83592191D01*
X185477113Y-83450058D01*
X185391642Y-83322141D01*
X185282859Y-83213358D01*
X185154942Y-83127887D01*
X185012809Y-83069013D01*
X184861922Y-83039000D01*
X184708078Y-83039000D01*
X184557191Y-83069013D01*
X184415058Y-83127887D01*
X184287141Y-83213358D01*
X184261540Y-83238959D01*
X184259993Y-83239000D01*
X174230658Y-83239000D01*
X172975153Y-81983495D01*
X172911971Y-81915742D01*
X172860930Y-81852296D01*
X172817134Y-81788353D01*
X172780096Y-81723714D01*
X172749317Y-81657949D01*
X172724431Y-81590569D01*
X172705178Y-81520922D01*
X172691481Y-81448366D01*
X172683417Y-81372279D01*
X172681000Y-81284785D01*
X172681000Y-81158757D01*
X172633693Y-80920931D01*
X172540898Y-80696903D01*
X172451597Y-80563254D01*
X174523987Y-82635645D01*
X174542183Y-82657817D01*
X174629045Y-82729102D01*
X174630652Y-82730421D01*
X174731585Y-82784371D01*
X174841104Y-82817593D01*
X174955000Y-82828811D01*
X174983540Y-82826000D01*
X185529997Y-82826000D01*
X185531540Y-82826041D01*
X185557141Y-82851642D01*
X185685058Y-82937113D01*
X185827191Y-82995987D01*
X185978078Y-83026000D01*
X186131922Y-83026000D01*
X186282809Y-82995987D01*
X186424942Y-82937113D01*
X186552859Y-82851642D01*
X186661642Y-82742859D01*
X186747113Y-82614942D01*
X186805987Y-82472809D01*
X186836000Y-82321922D01*
X186836000Y-82168078D01*
X186805987Y-82017191D01*
X186747113Y-81875058D01*
X186661642Y-81747141D01*
X186552859Y-81638358D01*
X186424942Y-81552887D01*
X186282809Y-81494013D01*
X186131922Y-81464000D01*
X185978078Y-81464000D01*
X185827191Y-81494013D01*
X185685058Y-81552887D01*
X185557141Y-81638358D01*
X185531540Y-81663959D01*
X185529993Y-81664000D01*
X175195658Y-81664000D01*
X172975154Y-79443497D01*
X172911971Y-79375742D01*
X172860930Y-79312296D01*
X172817134Y-79248353D01*
X172780096Y-79183714D01*
X172749317Y-79117949D01*
X172724431Y-79050569D01*
X172705178Y-78980922D01*
X172691481Y-78908366D01*
X172683417Y-78832279D01*
X172681000Y-78744785D01*
X172681000Y-78618757D01*
X172633693Y-78380931D01*
X172540898Y-78156903D01*
X172451597Y-78023254D01*
X175463987Y-81035645D01*
X175482183Y-81057817D01*
X175570652Y-81130421D01*
X175671585Y-81184371D01*
X175781104Y-81217593D01*
X175866460Y-81226000D01*
X175866462Y-81226000D01*
X175894999Y-81228811D01*
X175923536Y-81226000D01*
X184259997Y-81226000D01*
X184261540Y-81226041D01*
X184287141Y-81251642D01*
X184415058Y-81337113D01*
X184557191Y-81395987D01*
X184708078Y-81426000D01*
X184861922Y-81426000D01*
X185012809Y-81395987D01*
X185154942Y-81337113D01*
X185282859Y-81251642D01*
X185391642Y-81142859D01*
X185477113Y-81014942D01*
X185535987Y-80872809D01*
X185566000Y-80721922D01*
X185566000Y-80568078D01*
X185535987Y-80417191D01*
X185477113Y-80275058D01*
X185391642Y-80147141D01*
X185282859Y-80038358D01*
X185154942Y-79952887D01*
X185012809Y-79894013D01*
X184861922Y-79864000D01*
X184708078Y-79864000D01*
X184557191Y-79894013D01*
X184415058Y-79952887D01*
X184287141Y-80038358D01*
X184261540Y-80063959D01*
X184259993Y-80064000D01*
X176135658Y-80064000D01*
X172975155Y-76903498D01*
X172911971Y-76835742D01*
X172911375Y-76835000D01*
X191519738Y-76835000D01*
X191524001Y-76878280D01*
X191524000Y-91102272D01*
X191524001Y-91102282D01*
X191524000Y-92753272D01*
X191536748Y-92882705D01*
X191587125Y-93048774D01*
X191668932Y-93201824D01*
X191779025Y-93335975D01*
X191913175Y-93446068D01*
X192066225Y-93527875D01*
X192232294Y-93578252D01*
X192405000Y-93595262D01*
X192577705Y-93578252D01*
X192743774Y-93527875D01*
X192896824Y-93446068D01*
X193030975Y-93335975D01*
X193141068Y-93201825D01*
X193222875Y-93048775D01*
X193273252Y-92882706D01*
X193286000Y-92753273D01*
X193286000Y-91318757D01*
X208319000Y-91318757D01*
X208319000Y-91561243D01*
X208366307Y-91799069D01*
X208459102Y-92023097D01*
X208593820Y-92224717D01*
X208765283Y-92396180D01*
X208966903Y-92530898D01*
X209190931Y-92623693D01*
X209428757Y-92671000D01*
X209671243Y-92671000D01*
X209909069Y-92623693D01*
X210133097Y-92530898D01*
X210334717Y-92396180D01*
X210506180Y-92224717D01*
X210640898Y-92023097D01*
X210733693Y-91799069D01*
X210781000Y-91561243D01*
X210781000Y-91318757D01*
X210733693Y-91080931D01*
X210640898Y-90856903D01*
X210506180Y-90655283D01*
X210334717Y-90483820D01*
X210133097Y-90349102D01*
X209909069Y-90256307D01*
X209671243Y-90209000D01*
X209428757Y-90209000D01*
X209190931Y-90256307D01*
X208966903Y-90349102D01*
X208765283Y-90483820D01*
X208593820Y-90655283D01*
X208459102Y-90856903D01*
X208366307Y-91080931D01*
X208319000Y-91318757D01*
X193286000Y-91318757D01*
X193286000Y-88778757D01*
X208319000Y-88778757D01*
X208319000Y-89021243D01*
X208366307Y-89259069D01*
X208459102Y-89483097D01*
X208593820Y-89684717D01*
X208765283Y-89856180D01*
X208966903Y-89990898D01*
X209190931Y-90083693D01*
X209428757Y-90131000D01*
X209671243Y-90131000D01*
X209909069Y-90083693D01*
X210133097Y-89990898D01*
X210334717Y-89856180D01*
X210506180Y-89684717D01*
X210640898Y-89483097D01*
X210733693Y-89259069D01*
X210781000Y-89021243D01*
X210781000Y-88778757D01*
X210733693Y-88540931D01*
X210640898Y-88316903D01*
X210506180Y-88115283D01*
X210334717Y-87943820D01*
X210133097Y-87809102D01*
X209909069Y-87716307D01*
X209671243Y-87669000D01*
X209428757Y-87669000D01*
X209190931Y-87716307D01*
X208966903Y-87809102D01*
X208765283Y-87943820D01*
X208593820Y-88115283D01*
X208459102Y-88316903D01*
X208366307Y-88540931D01*
X208319000Y-88778757D01*
X193286000Y-88778757D01*
X193286000Y-86918078D01*
X198609000Y-86918078D01*
X198609000Y-87071922D01*
X198639013Y-87222809D01*
X198697887Y-87364942D01*
X198783358Y-87492859D01*
X198892141Y-87601642D01*
X199020058Y-87687113D01*
X199162191Y-87745987D01*
X199313078Y-87776000D01*
X199466922Y-87776000D01*
X199617809Y-87745987D01*
X199759942Y-87687113D01*
X199887859Y-87601642D01*
X199996642Y-87492859D01*
X200082113Y-87364942D01*
X200140987Y-87222809D01*
X200171000Y-87071922D01*
X200171000Y-86995540D01*
X200171608Y-86973616D01*
X200172830Y-86962116D01*
X200174679Y-86952351D01*
X200177081Y-86943677D01*
X200180128Y-86935445D01*
X200184074Y-86927027D01*
X200189291Y-86917934D01*
X200196284Y-86907734D01*
X200205544Y-86896230D01*
X200221937Y-86878654D01*
X200365220Y-86735372D01*
X200384527Y-86719527D01*
X200447759Y-86642479D01*
X200494745Y-86554575D01*
X200523678Y-86459193D01*
X200531000Y-86384854D01*
X200531000Y-86384853D01*
X200533448Y-86360000D01*
X200531000Y-86335146D01*
X200531000Y-86238757D01*
X208319000Y-86238757D01*
X208319000Y-86481243D01*
X208366307Y-86719069D01*
X208459102Y-86943097D01*
X208593820Y-87144717D01*
X208765283Y-87316180D01*
X208966903Y-87450898D01*
X209190931Y-87543693D01*
X209428757Y-87591000D01*
X209671243Y-87591000D01*
X209909069Y-87543693D01*
X210133097Y-87450898D01*
X210334717Y-87316180D01*
X210506180Y-87144717D01*
X210640898Y-86943097D01*
X210733693Y-86719069D01*
X210781000Y-86481243D01*
X210781000Y-86238757D01*
X210733693Y-86000931D01*
X210640898Y-85776903D01*
X210506180Y-85575283D01*
X210334717Y-85403820D01*
X210133097Y-85269102D01*
X209909069Y-85176307D01*
X209671243Y-85129000D01*
X209428757Y-85129000D01*
X209190931Y-85176307D01*
X208966903Y-85269102D01*
X208765283Y-85403820D01*
X208593820Y-85575283D01*
X208459102Y-85776903D01*
X208366307Y-86000931D01*
X208319000Y-86238757D01*
X200531000Y-86238757D01*
X200531000Y-83698757D01*
X208319000Y-83698757D01*
X208319000Y-83941243D01*
X208366307Y-84179069D01*
X208459102Y-84403097D01*
X208593820Y-84604717D01*
X208765283Y-84776180D01*
X208966903Y-84910898D01*
X209190931Y-85003693D01*
X209428757Y-85051000D01*
X209671243Y-85051000D01*
X209909069Y-85003693D01*
X210133097Y-84910898D01*
X210334717Y-84776180D01*
X210506180Y-84604717D01*
X210640898Y-84403097D01*
X210733693Y-84179069D01*
X210781000Y-83941243D01*
X210781000Y-83698757D01*
X210733693Y-83460931D01*
X210640898Y-83236903D01*
X210506180Y-83035283D01*
X210334717Y-82863820D01*
X210133097Y-82729102D01*
X209909069Y-82636307D01*
X209671243Y-82589000D01*
X209428757Y-82589000D01*
X209190931Y-82636307D01*
X208966903Y-82729102D01*
X208765283Y-82863820D01*
X208593820Y-83035283D01*
X208459102Y-83236903D01*
X208366307Y-83460931D01*
X208319000Y-83698757D01*
X200531000Y-83698757D01*
X200531000Y-81203078D01*
X200579000Y-81203078D01*
X200579000Y-81356922D01*
X200609013Y-81507809D01*
X200667887Y-81649942D01*
X200753358Y-81777859D01*
X200862141Y-81886642D01*
X200990058Y-81972113D01*
X201132191Y-82030987D01*
X201283078Y-82061000D01*
X201436922Y-82061000D01*
X201587809Y-82030987D01*
X201729942Y-81972113D01*
X201857859Y-81886642D01*
X201966642Y-81777859D01*
X202052113Y-81649942D01*
X202110987Y-81507809D01*
X202141000Y-81356922D01*
X202141000Y-81203078D01*
X202132185Y-81158757D01*
X208319000Y-81158757D01*
X208319000Y-81401243D01*
X208366307Y-81639069D01*
X208459102Y-81863097D01*
X208593820Y-82064717D01*
X208765283Y-82236180D01*
X208966903Y-82370898D01*
X209190931Y-82463693D01*
X209428757Y-82511000D01*
X209671243Y-82511000D01*
X209909069Y-82463693D01*
X210133097Y-82370898D01*
X210334717Y-82236180D01*
X210506180Y-82064717D01*
X210640898Y-81863097D01*
X210733693Y-81639069D01*
X210781000Y-81401243D01*
X210781000Y-81158757D01*
X210733693Y-80920931D01*
X210640898Y-80696903D01*
X210506180Y-80495283D01*
X210334717Y-80323820D01*
X210133097Y-80189102D01*
X209909069Y-80096307D01*
X209671243Y-80049000D01*
X209428757Y-80049000D01*
X209190931Y-80096307D01*
X208966903Y-80189102D01*
X208765283Y-80323820D01*
X208593820Y-80495283D01*
X208459102Y-80696903D01*
X208366307Y-80920931D01*
X208319000Y-81158757D01*
X202132185Y-81158757D01*
X202110987Y-81052191D01*
X202052113Y-80910058D01*
X201966642Y-80782141D01*
X201912645Y-80728144D01*
X201897557Y-80712196D01*
X201890292Y-80703203D01*
X201884692Y-80694988D01*
X201880260Y-80687159D01*
X201876593Y-80679183D01*
X201873434Y-80670451D01*
X201870689Y-80660316D01*
X201868421Y-80648161D01*
X201866836Y-80633493D01*
X201866000Y-80609459D01*
X201866000Y-78618757D01*
X208319000Y-78618757D01*
X208319000Y-78861243D01*
X208366307Y-79099069D01*
X208459102Y-79323097D01*
X208593820Y-79524717D01*
X208765283Y-79696180D01*
X208966903Y-79830898D01*
X209190931Y-79923693D01*
X209428757Y-79971000D01*
X209671243Y-79971000D01*
X209909069Y-79923693D01*
X210133097Y-79830898D01*
X210334717Y-79696180D01*
X210506180Y-79524717D01*
X210640898Y-79323097D01*
X210733693Y-79099069D01*
X210781000Y-78861243D01*
X210781000Y-78618757D01*
X210733693Y-78380931D01*
X210640898Y-78156903D01*
X210506180Y-77955283D01*
X210334717Y-77783820D01*
X210133097Y-77649102D01*
X209909069Y-77556307D01*
X209671243Y-77509000D01*
X209428757Y-77509000D01*
X209190931Y-77556307D01*
X208966903Y-77649102D01*
X208765283Y-77783820D01*
X208593820Y-77955283D01*
X208459102Y-78156903D01*
X208366307Y-78380931D01*
X208319000Y-78618757D01*
X201866000Y-78618757D01*
X201866000Y-76078757D01*
X208319000Y-76078757D01*
X208319000Y-76321243D01*
X208366307Y-76559069D01*
X208459102Y-76783097D01*
X208593820Y-76984717D01*
X208765283Y-77156180D01*
X208966903Y-77290898D01*
X209190931Y-77383693D01*
X209428757Y-77431000D01*
X209671243Y-77431000D01*
X209909069Y-77383693D01*
X210133097Y-77290898D01*
X210334717Y-77156180D01*
X210506180Y-76984717D01*
X210640898Y-76783097D01*
X210733693Y-76559069D01*
X210781000Y-76321243D01*
X210781000Y-76078757D01*
X210733693Y-75840931D01*
X210640898Y-75616903D01*
X210506180Y-75415283D01*
X210334717Y-75243820D01*
X210133097Y-75109102D01*
X209909069Y-75016307D01*
X209671243Y-74969000D01*
X209428757Y-74969000D01*
X209190931Y-75016307D01*
X208966903Y-75109102D01*
X208765283Y-75243820D01*
X208593820Y-75415283D01*
X208459102Y-75616903D01*
X208366307Y-75840931D01*
X208319000Y-76078757D01*
X201866000Y-76078757D01*
X201866000Y-67223229D01*
X202319000Y-67223229D01*
X202319000Y-67396771D01*
X202352856Y-67566978D01*
X202419268Y-67727310D01*
X202515682Y-67871605D01*
X202638395Y-67994318D01*
X202782690Y-68090732D01*
X202943022Y-68157144D01*
X203113229Y-68191000D01*
X203200611Y-68191000D01*
X203220869Y-68191565D01*
X203230936Y-68192641D01*
X203239360Y-68194242D01*
X203246767Y-68196302D01*
X203253824Y-68198923D01*
X203261177Y-68202379D01*
X203269288Y-68207043D01*
X203278561Y-68213410D01*
X203289214Y-68221994D01*
X203305989Y-68237646D01*
X208024853Y-72956510D01*
X208088028Y-73024257D01*
X208139069Y-73087703D01*
X208182865Y-73151646D01*
X208219903Y-73216285D01*
X208250682Y-73282050D01*
X208275568Y-73349430D01*
X208294821Y-73419077D01*
X208308518Y-73491633D01*
X208316582Y-73567721D01*
X208319000Y-73655220D01*
X208319000Y-73781243D01*
X208366307Y-74019069D01*
X208459102Y-74243097D01*
X208593820Y-74444717D01*
X208765283Y-74616180D01*
X208966903Y-74750898D01*
X209190931Y-74843693D01*
X209428757Y-74891000D01*
X209671243Y-74891000D01*
X209909069Y-74843693D01*
X210133097Y-74750898D01*
X210334717Y-74616180D01*
X210506180Y-74444717D01*
X210640898Y-74243097D01*
X210733693Y-74019069D01*
X210781000Y-73781243D01*
X210781000Y-73538757D01*
X210733693Y-73300931D01*
X210640898Y-73076903D01*
X210506180Y-72875283D01*
X210334717Y-72703820D01*
X210133097Y-72569102D01*
X209909069Y-72476307D01*
X209671243Y-72429000D01*
X209545220Y-72429000D01*
X209457721Y-72426582D01*
X209381633Y-72418518D01*
X209309077Y-72404821D01*
X209239430Y-72385568D01*
X209172050Y-72360682D01*
X209106285Y-72329903D01*
X209041646Y-72292865D01*
X208977703Y-72249069D01*
X208914257Y-72198028D01*
X208846510Y-72134853D01*
X208833256Y-72121598D01*
X208966903Y-72210898D01*
X209190931Y-72303693D01*
X209428757Y-72351000D01*
X209671243Y-72351000D01*
X209909069Y-72303693D01*
X210133097Y-72210898D01*
X210334717Y-72076180D01*
X210506180Y-71904717D01*
X210640898Y-71703097D01*
X210733693Y-71479069D01*
X210781000Y-71241243D01*
X210781000Y-70998757D01*
X210733693Y-70760931D01*
X210640898Y-70536903D01*
X210506180Y-70335283D01*
X210334717Y-70163820D01*
X210133097Y-70029102D01*
X209909069Y-69936307D01*
X209671243Y-69889000D01*
X209428757Y-69889000D01*
X209190931Y-69936307D01*
X208966903Y-70029102D01*
X208765283Y-70163820D01*
X208593820Y-70335283D01*
X208459102Y-70536903D01*
X208366307Y-70760931D01*
X208319000Y-70998757D01*
X208319000Y-71241243D01*
X208366307Y-71479069D01*
X208459102Y-71703097D01*
X208548402Y-71836745D01*
X205170414Y-68458757D01*
X208319000Y-68458757D01*
X208319000Y-68701243D01*
X208366307Y-68939069D01*
X208459102Y-69163097D01*
X208593820Y-69364717D01*
X208765283Y-69536180D01*
X208966903Y-69670898D01*
X209190931Y-69763693D01*
X209428757Y-69811000D01*
X209671243Y-69811000D01*
X209909069Y-69763693D01*
X210133097Y-69670898D01*
X210334717Y-69536180D01*
X210506180Y-69364717D01*
X210640898Y-69163097D01*
X210733693Y-68939069D01*
X210781000Y-68701243D01*
X210781000Y-68458757D01*
X210733693Y-68220931D01*
X210640898Y-67996903D01*
X210506180Y-67795283D01*
X210334717Y-67623820D01*
X210133097Y-67489102D01*
X209909069Y-67396307D01*
X209671243Y-67349000D01*
X209428757Y-67349000D01*
X209190931Y-67396307D01*
X208966903Y-67489102D01*
X208765283Y-67623820D01*
X208593820Y-67795283D01*
X208459102Y-67996903D01*
X208366307Y-68220931D01*
X208319000Y-68458757D01*
X205170414Y-68458757D01*
X204127646Y-67415989D01*
X204111994Y-67399214D01*
X204103410Y-67388561D01*
X204097043Y-67379288D01*
X204092379Y-67371177D01*
X204088923Y-67363824D01*
X204086302Y-67356767D01*
X204084242Y-67349360D01*
X204082641Y-67340936D01*
X204081565Y-67330869D01*
X204081000Y-67310611D01*
X204081000Y-67223229D01*
X204047144Y-67053022D01*
X203980732Y-66892690D01*
X203884318Y-66748395D01*
X203761605Y-66625682D01*
X203617310Y-66529268D01*
X203456978Y-66462856D01*
X203286771Y-66429000D01*
X203113229Y-66429000D01*
X202943022Y-66462856D01*
X202782690Y-66529268D01*
X202638395Y-66625682D01*
X202515682Y-66748395D01*
X202419268Y-66892690D01*
X202352856Y-67053022D01*
X202319000Y-67223229D01*
X201866000Y-67223229D01*
X201866000Y-65918757D01*
X208319000Y-65918757D01*
X208319000Y-66161243D01*
X208366307Y-66399069D01*
X208459102Y-66623097D01*
X208593820Y-66824717D01*
X208765283Y-66996180D01*
X208966903Y-67130898D01*
X209190931Y-67223693D01*
X209428757Y-67271000D01*
X209671243Y-67271000D01*
X209909069Y-67223693D01*
X210133097Y-67130898D01*
X210334717Y-66996180D01*
X210506180Y-66824717D01*
X210640898Y-66623097D01*
X210733693Y-66399069D01*
X210781000Y-66161243D01*
X210781000Y-65918757D01*
X210733693Y-65680931D01*
X210640898Y-65456903D01*
X210506180Y-65255283D01*
X210334717Y-65083820D01*
X210133097Y-64949102D01*
X209909069Y-64856307D01*
X209671243Y-64809000D01*
X209428757Y-64809000D01*
X209190931Y-64856307D01*
X208966903Y-64949102D01*
X208765283Y-65083820D01*
X208593820Y-65255283D01*
X208459102Y-65456903D01*
X208366307Y-65680931D01*
X208319000Y-65918757D01*
X201866000Y-65918757D01*
X201866000Y-63378757D01*
X208319000Y-63378757D01*
X208319000Y-63621243D01*
X208366307Y-63859069D01*
X208459102Y-64083097D01*
X208593820Y-64284717D01*
X208765283Y-64456180D01*
X208966903Y-64590898D01*
X209190931Y-64683693D01*
X209428757Y-64731000D01*
X209671243Y-64731000D01*
X209909069Y-64683693D01*
X210133097Y-64590898D01*
X210334717Y-64456180D01*
X210506180Y-64284717D01*
X210640898Y-64083097D01*
X210733693Y-63859069D01*
X210781000Y-63621243D01*
X210781000Y-63378757D01*
X210733693Y-63140931D01*
X210640898Y-62916903D01*
X210506180Y-62715283D01*
X210334717Y-62543820D01*
X210133097Y-62409102D01*
X209909069Y-62316307D01*
X209671243Y-62269000D01*
X209428757Y-62269000D01*
X209190931Y-62316307D01*
X208966903Y-62409102D01*
X208765283Y-62543820D01*
X208593820Y-62715283D01*
X208459102Y-62916903D01*
X208366307Y-63140931D01*
X208319000Y-63378757D01*
X201866000Y-63378757D01*
X201866000Y-61739591D01*
X202766834Y-60838757D01*
X208319000Y-60838757D01*
X208319000Y-61081243D01*
X208366307Y-61319069D01*
X208459102Y-61543097D01*
X208593820Y-61744717D01*
X208765283Y-61916180D01*
X208966903Y-62050898D01*
X209190931Y-62143693D01*
X209428757Y-62191000D01*
X209671243Y-62191000D01*
X209909069Y-62143693D01*
X210133097Y-62050898D01*
X210334717Y-61916180D01*
X210506180Y-61744717D01*
X210640898Y-61543097D01*
X210733693Y-61319069D01*
X210781000Y-61081243D01*
X210781000Y-60838757D01*
X210733693Y-60600931D01*
X210640898Y-60376903D01*
X210506180Y-60175283D01*
X210334717Y-60003820D01*
X210133097Y-59869102D01*
X209909069Y-59776307D01*
X209671243Y-59729000D01*
X209428757Y-59729000D01*
X209190931Y-59776307D01*
X208966903Y-59869102D01*
X208765283Y-60003820D01*
X208593820Y-60175283D01*
X208459102Y-60376903D01*
X208366307Y-60600931D01*
X208319000Y-60838757D01*
X202766834Y-60838757D01*
X203083654Y-60521937D01*
X203101230Y-60505544D01*
X203112734Y-60496284D01*
X203122934Y-60489291D01*
X203132027Y-60484074D01*
X203140445Y-60480128D01*
X203148677Y-60477081D01*
X203157351Y-60474679D01*
X203167116Y-60472830D01*
X203178616Y-60471608D01*
X203200540Y-60471000D01*
X203276922Y-60471000D01*
X203427809Y-60440987D01*
X203569942Y-60382113D01*
X203697859Y-60296642D01*
X203806642Y-60187859D01*
X203892113Y-60059942D01*
X203950987Y-59917809D01*
X203981000Y-59766922D01*
X203981000Y-59613078D01*
X203950987Y-59462191D01*
X203892113Y-59320058D01*
X203806642Y-59192141D01*
X203697859Y-59083358D01*
X203569942Y-58997887D01*
X203427809Y-58939013D01*
X203276922Y-58909000D01*
X203123078Y-58909000D01*
X202972191Y-58939013D01*
X202830058Y-58997887D01*
X202702141Y-59083358D01*
X202593358Y-59192141D01*
X202507887Y-59320058D01*
X202449013Y-59462191D01*
X202419000Y-59613078D01*
X202419000Y-59689478D01*
X202418392Y-59711369D01*
X202417169Y-59722883D01*
X202415320Y-59732648D01*
X202412918Y-59741322D01*
X202409871Y-59749554D01*
X202405925Y-59757972D01*
X202400708Y-59767065D01*
X202393715Y-59777265D01*
X202384449Y-59788777D01*
X202368066Y-59806342D01*
X201019781Y-61154628D01*
X201000474Y-61170473D01*
X200937242Y-61247521D01*
X200912127Y-61294508D01*
X200890255Y-61335426D01*
X200861322Y-61430808D01*
X200851553Y-61530000D01*
X200854001Y-61554856D01*
X200854000Y-80609471D01*
X200853164Y-80633479D01*
X200851578Y-80648161D01*
X200849310Y-80660316D01*
X200846565Y-80670451D01*
X200843406Y-80679183D01*
X200839739Y-80687159D01*
X200835307Y-80694988D01*
X200829707Y-80703203D01*
X200822436Y-80712203D01*
X200807364Y-80728135D01*
X200753358Y-80782141D01*
X200667887Y-80910058D01*
X200609013Y-81052191D01*
X200579000Y-81203078D01*
X200531000Y-81203078D01*
X200531000Y-65440540D01*
X200531836Y-65416506D01*
X200533421Y-65401838D01*
X200535689Y-65389683D01*
X200538434Y-65379548D01*
X200541593Y-65370816D01*
X200545260Y-65362840D01*
X200549692Y-65355011D01*
X200555292Y-65346796D01*
X200562556Y-65337804D01*
X200577638Y-65321863D01*
X200631642Y-65267859D01*
X200717113Y-65139942D01*
X200775987Y-64997809D01*
X200806000Y-64846922D01*
X200806000Y-64693078D01*
X200775987Y-64542191D01*
X200717113Y-64400058D01*
X200631642Y-64272141D01*
X200522859Y-64163358D01*
X200394942Y-64077887D01*
X200252809Y-64019013D01*
X200101922Y-63989000D01*
X199948078Y-63989000D01*
X199797191Y-64019013D01*
X199655058Y-64077887D01*
X199527141Y-64163358D01*
X199418358Y-64272141D01*
X199332887Y-64400058D01*
X199274013Y-64542191D01*
X199244000Y-64693078D01*
X199244000Y-64846922D01*
X199274013Y-64997809D01*
X199332887Y-65139942D01*
X199418358Y-65267859D01*
X199472371Y-65321872D01*
X199487437Y-65337797D01*
X199494707Y-65346796D01*
X199500307Y-65355011D01*
X199504739Y-65362840D01*
X199508406Y-65370816D01*
X199511565Y-65379548D01*
X199514310Y-65389683D01*
X199516578Y-65401838D01*
X199518164Y-65416520D01*
X199519001Y-65440555D01*
X199519000Y-86150408D01*
X199506343Y-86163066D01*
X199488777Y-86179449D01*
X199477265Y-86188715D01*
X199467065Y-86195708D01*
X199457972Y-86200925D01*
X199449554Y-86204871D01*
X199441322Y-86207918D01*
X199432648Y-86210320D01*
X199422883Y-86212169D01*
X199411369Y-86213392D01*
X199389478Y-86214000D01*
X199313078Y-86214000D01*
X199162191Y-86244013D01*
X199020058Y-86302887D01*
X198892141Y-86388358D01*
X198783358Y-86497141D01*
X198697887Y-86625058D01*
X198639013Y-86767191D01*
X198609000Y-86918078D01*
X193286000Y-86918078D01*
X193286000Y-81838078D01*
X196069000Y-81838078D01*
X196069000Y-81991922D01*
X196099013Y-82142809D01*
X196157887Y-82284942D01*
X196243358Y-82412859D01*
X196352141Y-82521642D01*
X196480058Y-82607113D01*
X196622191Y-82665987D01*
X196773078Y-82696000D01*
X196926922Y-82696000D01*
X197077809Y-82665987D01*
X197219942Y-82607113D01*
X197347859Y-82521642D01*
X197456642Y-82412859D01*
X197542113Y-82284942D01*
X197600987Y-82142809D01*
X197631000Y-81991922D01*
X197631000Y-81838078D01*
X197600987Y-81687191D01*
X197542113Y-81545058D01*
X197456642Y-81417141D01*
X197402645Y-81363144D01*
X197387557Y-81347196D01*
X197380292Y-81338203D01*
X197374692Y-81329988D01*
X197370260Y-81322159D01*
X197366593Y-81314183D01*
X197363434Y-81305451D01*
X197360689Y-81295316D01*
X197358421Y-81283161D01*
X197356836Y-81268493D01*
X197356000Y-81244459D01*
X197356000Y-64344591D01*
X197934074Y-63766517D01*
X197929053Y-63817500D01*
X197931501Y-63842356D01*
X197931500Y-84101971D01*
X197930664Y-84125979D01*
X197929078Y-84140661D01*
X197926810Y-84152816D01*
X197924065Y-84162951D01*
X197920906Y-84171683D01*
X197917239Y-84179659D01*
X197912807Y-84187488D01*
X197907207Y-84195703D01*
X197899936Y-84204703D01*
X197884864Y-84220635D01*
X197830858Y-84274641D01*
X197745387Y-84402558D01*
X197686513Y-84544691D01*
X197656500Y-84695578D01*
X197656500Y-84849422D01*
X197686513Y-85000309D01*
X197745387Y-85142442D01*
X197830858Y-85270359D01*
X197939641Y-85379142D01*
X198067558Y-85464613D01*
X198209691Y-85523487D01*
X198360578Y-85553500D01*
X198514422Y-85553500D01*
X198665309Y-85523487D01*
X198807442Y-85464613D01*
X198935359Y-85379142D01*
X199044142Y-85270359D01*
X199129613Y-85142442D01*
X199188487Y-85000309D01*
X199218500Y-84849422D01*
X199218500Y-84695578D01*
X199188487Y-84544691D01*
X199129613Y-84402558D01*
X199044142Y-84274641D01*
X198990145Y-84220644D01*
X198975057Y-84204696D01*
X198967792Y-84195703D01*
X198962192Y-84187488D01*
X198957760Y-84179659D01*
X198954093Y-84171683D01*
X198950934Y-84162951D01*
X198948189Y-84152816D01*
X198945921Y-84140661D01*
X198944336Y-84125993D01*
X198943500Y-84101959D01*
X198943500Y-64027091D01*
X199908654Y-63061938D01*
X199926230Y-63045544D01*
X199937734Y-63036284D01*
X199947934Y-63029291D01*
X199957027Y-63024074D01*
X199965445Y-63020128D01*
X199973677Y-63017081D01*
X199982351Y-63014679D01*
X199992116Y-63012830D01*
X200003616Y-63011608D01*
X200025540Y-63011000D01*
X200101922Y-63011000D01*
X200252809Y-62980987D01*
X200394942Y-62922113D01*
X200522859Y-62836642D01*
X200631642Y-62727859D01*
X200717113Y-62599942D01*
X200775987Y-62457809D01*
X200806000Y-62306922D01*
X200806000Y-62153078D01*
X200775987Y-62002191D01*
X200717113Y-61860058D01*
X200631642Y-61732141D01*
X200522859Y-61623358D01*
X200480418Y-61595000D01*
X200522859Y-61566642D01*
X200631642Y-61457859D01*
X200717113Y-61329942D01*
X200775987Y-61187809D01*
X200806000Y-61036922D01*
X200806000Y-60883078D01*
X200775987Y-60732191D01*
X200717113Y-60590058D01*
X200631642Y-60462141D01*
X200522859Y-60353358D01*
X200394942Y-60267887D01*
X200252809Y-60209013D01*
X200101922Y-60179000D01*
X199948078Y-60179000D01*
X199797191Y-60209013D01*
X199655058Y-60267887D01*
X199527141Y-60353358D01*
X199418358Y-60462141D01*
X199332887Y-60590058D01*
X199274013Y-60732191D01*
X199244000Y-60883078D01*
X199244000Y-60959478D01*
X199243392Y-60981369D01*
X199242169Y-60992883D01*
X199240320Y-61002648D01*
X199237918Y-61011322D01*
X199234871Y-61019554D01*
X199230925Y-61027972D01*
X199225708Y-61037065D01*
X199218715Y-61047265D01*
X199209449Y-61058777D01*
X199193067Y-61076341D01*
X196509785Y-63759624D01*
X196490473Y-63775473D01*
X196427241Y-63852521D01*
X196380255Y-63940426D01*
X196351322Y-64035808D01*
X196344000Y-64110147D01*
X196344000Y-64110154D01*
X196341553Y-64135000D01*
X196344000Y-64159846D01*
X196344001Y-81244445D01*
X196343164Y-81268479D01*
X196341578Y-81283161D01*
X196339310Y-81295316D01*
X196336565Y-81305451D01*
X196333406Y-81314183D01*
X196329739Y-81322159D01*
X196325307Y-81329988D01*
X196319707Y-81338203D01*
X196312436Y-81347203D01*
X196297364Y-81363135D01*
X196243358Y-81417141D01*
X196157887Y-81545058D01*
X196099013Y-81687191D01*
X196069000Y-81838078D01*
X193286000Y-81838078D01*
X193286000Y-77199921D01*
X195537362Y-74948560D01*
X195570975Y-74920975D01*
X195675551Y-74793548D01*
X195681068Y-74786826D01*
X195758028Y-74642843D01*
X195762875Y-74633775D01*
X195813252Y-74467706D01*
X195826000Y-74338273D01*
X195826000Y-74338271D01*
X195830262Y-74295001D01*
X195826000Y-74251731D01*
X195826000Y-63229921D01*
X200757164Y-58298757D01*
X208319000Y-58298757D01*
X208319000Y-58541243D01*
X208366307Y-58779069D01*
X208459102Y-59003097D01*
X208593820Y-59204717D01*
X208765283Y-59376180D01*
X208966903Y-59510898D01*
X209190931Y-59603693D01*
X209428757Y-59651000D01*
X209671243Y-59651000D01*
X209909069Y-59603693D01*
X210133097Y-59510898D01*
X210334717Y-59376180D01*
X210506180Y-59204717D01*
X210640898Y-59003097D01*
X210733693Y-58779069D01*
X210781000Y-58541243D01*
X210781000Y-58298757D01*
X210733693Y-58060931D01*
X210640898Y-57836903D01*
X210506180Y-57635283D01*
X210334717Y-57463820D01*
X210133097Y-57329102D01*
X209909069Y-57236307D01*
X209671243Y-57189000D01*
X209428757Y-57189000D01*
X209190931Y-57236307D01*
X208966903Y-57329102D01*
X208765283Y-57463820D01*
X208593820Y-57635283D01*
X208459102Y-57836903D01*
X208366307Y-58060931D01*
X208319000Y-58298757D01*
X200757164Y-58298757D01*
X203297164Y-55758757D01*
X208319000Y-55758757D01*
X208319000Y-56001243D01*
X208366307Y-56239069D01*
X208459102Y-56463097D01*
X208593820Y-56664717D01*
X208765283Y-56836180D01*
X208966903Y-56970898D01*
X209190931Y-57063693D01*
X209428757Y-57111000D01*
X209671243Y-57111000D01*
X209909069Y-57063693D01*
X210133097Y-56970898D01*
X210334717Y-56836180D01*
X210506180Y-56664717D01*
X210640898Y-56463097D01*
X210733693Y-56239069D01*
X210781000Y-56001243D01*
X210781000Y-55758757D01*
X210733693Y-55520931D01*
X210640898Y-55296903D01*
X210506180Y-55095283D01*
X210334717Y-54923820D01*
X210133097Y-54789102D01*
X209909069Y-54696307D01*
X209671243Y-54649000D01*
X209428757Y-54649000D01*
X209190931Y-54696307D01*
X208966903Y-54789102D01*
X208765283Y-54923820D01*
X208593820Y-55095283D01*
X208459102Y-55296903D01*
X208366307Y-55520931D01*
X208319000Y-55758757D01*
X203297164Y-55758757D01*
X204834922Y-54221000D01*
X208320210Y-54221000D01*
X208324513Y-54264689D01*
X208346299Y-54336508D01*
X208381678Y-54402696D01*
X208429289Y-54460711D01*
X208487304Y-54508322D01*
X208553492Y-54543701D01*
X208625311Y-54565487D01*
X208700000Y-54572843D01*
X210400000Y-54572843D01*
X210474689Y-54565487D01*
X210546508Y-54543701D01*
X210612696Y-54508322D01*
X210670711Y-54460711D01*
X210718322Y-54402696D01*
X210753701Y-54336508D01*
X210775487Y-54264689D01*
X210782843Y-54190000D01*
X210782843Y-52490000D01*
X210775487Y-52415311D01*
X210753701Y-52343492D01*
X210718322Y-52277304D01*
X210670711Y-52219289D01*
X210612696Y-52171678D01*
X210546508Y-52136299D01*
X210474689Y-52114513D01*
X210400000Y-52107157D01*
X208700000Y-52107157D01*
X208625311Y-52114513D01*
X208553492Y-52136299D01*
X208487304Y-52171678D01*
X208429289Y-52219289D01*
X208381678Y-52277304D01*
X208346299Y-52343492D01*
X208324513Y-52415311D01*
X208320210Y-52459000D01*
X204513269Y-52459000D01*
X204469999Y-52454738D01*
X204426729Y-52459000D01*
X204426727Y-52459000D01*
X204297294Y-52471748D01*
X204131225Y-52522125D01*
X204031486Y-52575437D01*
X203978174Y-52603932D01*
X203925609Y-52647071D01*
X203844025Y-52714025D01*
X203816439Y-52747639D01*
X194352640Y-62211439D01*
X194319026Y-62239025D01*
X194291441Y-62272638D01*
X194208932Y-62373175D01*
X194127125Y-62526226D01*
X194076749Y-62692295D01*
X194059738Y-62865000D01*
X194064001Y-62908280D01*
X194064000Y-73930078D01*
X191812640Y-76181439D01*
X191779026Y-76209025D01*
X191751441Y-76242638D01*
X191668932Y-76343175D01*
X191587125Y-76496226D01*
X191536749Y-76662295D01*
X191519738Y-76835000D01*
X172911375Y-76835000D01*
X172860930Y-76772296D01*
X172817134Y-76708353D01*
X172780096Y-76643714D01*
X172749317Y-76577949D01*
X172724431Y-76510569D01*
X172705178Y-76440922D01*
X172691481Y-76368366D01*
X172683417Y-76292279D01*
X172681000Y-76204785D01*
X172681000Y-76078757D01*
X172633693Y-75840931D01*
X172540898Y-75616903D01*
X172406180Y-75415283D01*
X172234717Y-75243820D01*
X172033097Y-75109102D01*
X171809069Y-75016307D01*
X171571243Y-74969000D01*
X171328757Y-74969000D01*
X171090931Y-75016307D01*
X170866903Y-75109102D01*
X170665283Y-75243820D01*
X170493820Y-75415283D01*
X170359102Y-75616903D01*
X170266307Y-75840931D01*
X170219000Y-76078757D01*
X169951000Y-76078757D01*
X169951000Y-73538757D01*
X170219000Y-73538757D01*
X170219000Y-73781243D01*
X170266307Y-74019069D01*
X170359102Y-74243097D01*
X170493820Y-74444717D01*
X170665283Y-74616180D01*
X170866903Y-74750898D01*
X171090931Y-74843693D01*
X171328757Y-74891000D01*
X171571243Y-74891000D01*
X171809069Y-74843693D01*
X172033097Y-74750898D01*
X172234717Y-74616180D01*
X172406180Y-74444717D01*
X172540898Y-74243097D01*
X172633693Y-74019069D01*
X172681000Y-73781243D01*
X172681000Y-73538757D01*
X172633693Y-73300931D01*
X172540898Y-73076903D01*
X172406180Y-72875283D01*
X172234717Y-72703820D01*
X172033097Y-72569102D01*
X171809069Y-72476307D01*
X171571243Y-72429000D01*
X171328757Y-72429000D01*
X171090931Y-72476307D01*
X170866903Y-72569102D01*
X170665283Y-72703820D01*
X170493820Y-72875283D01*
X170359102Y-73076903D01*
X170266307Y-73300931D01*
X170219000Y-73538757D01*
X169951000Y-73538757D01*
X169951000Y-70998757D01*
X170219000Y-70998757D01*
X170219000Y-71241243D01*
X170266307Y-71479069D01*
X170359102Y-71703097D01*
X170493820Y-71904717D01*
X170665283Y-72076180D01*
X170866903Y-72210898D01*
X171090931Y-72303693D01*
X171328757Y-72351000D01*
X171571243Y-72351000D01*
X171809069Y-72303693D01*
X172033097Y-72210898D01*
X172234717Y-72076180D01*
X172406180Y-71904717D01*
X172540898Y-71703097D01*
X172633693Y-71479069D01*
X172681000Y-71241243D01*
X172681000Y-70998757D01*
X172633693Y-70760931D01*
X172540898Y-70536903D01*
X172406180Y-70335283D01*
X172234717Y-70163820D01*
X172033097Y-70029102D01*
X171809069Y-69936307D01*
X171571243Y-69889000D01*
X171328757Y-69889000D01*
X171090931Y-69936307D01*
X170866903Y-70029102D01*
X170665283Y-70163820D01*
X170493820Y-70335283D01*
X170359102Y-70536903D01*
X170266307Y-70760931D01*
X170219000Y-70998757D01*
X169951000Y-70998757D01*
X169951000Y-68458757D01*
X170219000Y-68458757D01*
X170219000Y-68701243D01*
X170266307Y-68939069D01*
X170359102Y-69163097D01*
X170493820Y-69364717D01*
X170665283Y-69536180D01*
X170866903Y-69670898D01*
X171090931Y-69763693D01*
X171328757Y-69811000D01*
X171571243Y-69811000D01*
X171809069Y-69763693D01*
X172033097Y-69670898D01*
X172234717Y-69536180D01*
X172406180Y-69364717D01*
X172540898Y-69163097D01*
X172633693Y-68939069D01*
X172681000Y-68701243D01*
X172681000Y-68458757D01*
X172633693Y-68220931D01*
X172540898Y-67996903D01*
X172406180Y-67795283D01*
X172234717Y-67623820D01*
X172033097Y-67489102D01*
X171809069Y-67396307D01*
X171571243Y-67349000D01*
X171328757Y-67349000D01*
X171090931Y-67396307D01*
X170866903Y-67489102D01*
X170665283Y-67623820D01*
X170493820Y-67795283D01*
X170359102Y-67996903D01*
X170266307Y-68220931D01*
X170219000Y-68458757D01*
X169951000Y-68458757D01*
X169951000Y-65918757D01*
X170219000Y-65918757D01*
X170219000Y-66161243D01*
X170266307Y-66399069D01*
X170359102Y-66623097D01*
X170493820Y-66824717D01*
X170665283Y-66996180D01*
X170866903Y-67130898D01*
X171090931Y-67223693D01*
X171328757Y-67271000D01*
X171571243Y-67271000D01*
X171809069Y-67223693D01*
X172033097Y-67130898D01*
X172234717Y-66996180D01*
X172406180Y-66824717D01*
X172540898Y-66623097D01*
X172551261Y-66598078D01*
X177019000Y-66598078D01*
X177019000Y-66751922D01*
X177049013Y-66902809D01*
X177107887Y-67044942D01*
X177193358Y-67172859D01*
X177247371Y-67226872D01*
X177262437Y-67242797D01*
X177269707Y-67251796D01*
X177275307Y-67260011D01*
X177279739Y-67267840D01*
X177283406Y-67275816D01*
X177286565Y-67284548D01*
X177289310Y-67294683D01*
X177291578Y-67306838D01*
X177293164Y-67321520D01*
X177294000Y-67345532D01*
X177294001Y-70605144D01*
X177291553Y-70630000D01*
X177301322Y-70729192D01*
X177330255Y-70824574D01*
X177330256Y-70824575D01*
X177377242Y-70912479D01*
X177440474Y-70989527D01*
X177459781Y-71005372D01*
X179157157Y-72702749D01*
X179157157Y-74260000D01*
X179164513Y-74334689D01*
X179186299Y-74406508D01*
X179221678Y-74472696D01*
X179269289Y-74530711D01*
X179327304Y-74578322D01*
X179393492Y-74613701D01*
X179465311Y-74635487D01*
X179540000Y-74642843D01*
X179917539Y-74642843D01*
X179980474Y-74719529D01*
X179999780Y-74735373D01*
X180713036Y-75448630D01*
X180729459Y-75466238D01*
X180738713Y-75477734D01*
X180745706Y-75487934D01*
X180750923Y-75497027D01*
X180754869Y-75505445D01*
X180757916Y-75513677D01*
X180760318Y-75522351D01*
X180762167Y-75532116D01*
X180763390Y-75543630D01*
X180763998Y-75565522D01*
X180763998Y-75641922D01*
X180794011Y-75792809D01*
X180852885Y-75934942D01*
X180938356Y-76062859D01*
X181047139Y-76171642D01*
X181175056Y-76257113D01*
X181317189Y-76315987D01*
X181468076Y-76346000D01*
X181621920Y-76346000D01*
X181772807Y-76315987D01*
X181914940Y-76257113D01*
X182042857Y-76171642D01*
X182151640Y-76062859D01*
X182237111Y-75934942D01*
X182295985Y-75792809D01*
X182325998Y-75641922D01*
X182325998Y-75488078D01*
X182295985Y-75337191D01*
X182237111Y-75195058D01*
X182151640Y-75067141D01*
X182042857Y-74958358D01*
X181914940Y-74872887D01*
X181772807Y-74814013D01*
X181621920Y-74784000D01*
X181545520Y-74784000D01*
X181523628Y-74783392D01*
X181512114Y-74782169D01*
X181502349Y-74780320D01*
X181493675Y-74777918D01*
X181485443Y-74774871D01*
X181477025Y-74770925D01*
X181467932Y-74765708D01*
X181457732Y-74758715D01*
X181446236Y-74749461D01*
X181428628Y-74733038D01*
X181301355Y-74605765D01*
X181352696Y-74578322D01*
X181410711Y-74530711D01*
X181458322Y-74472696D01*
X181493701Y-74406508D01*
X181515487Y-74334689D01*
X181522843Y-74260000D01*
X181522843Y-72080000D01*
X181515487Y-72005311D01*
X181493701Y-71933492D01*
X181458322Y-71867304D01*
X181410711Y-71809289D01*
X181352696Y-71761678D01*
X181286508Y-71726299D01*
X181214689Y-71704513D01*
X181140000Y-71697157D01*
X179582749Y-71697157D01*
X178306000Y-70420409D01*
X178306000Y-67345540D01*
X178306836Y-67321506D01*
X178308421Y-67306838D01*
X178310689Y-67294683D01*
X178313434Y-67284548D01*
X178316593Y-67275816D01*
X178320260Y-67267840D01*
X178324692Y-67260011D01*
X178330292Y-67251796D01*
X178337556Y-67242804D01*
X178352638Y-67226863D01*
X178406642Y-67172859D01*
X178492113Y-67044942D01*
X178550987Y-66902809D01*
X178581000Y-66751922D01*
X178581000Y-66598078D01*
X178550987Y-66447191D01*
X178492113Y-66305058D01*
X178406642Y-66177141D01*
X178297859Y-66068358D01*
X178169942Y-65982887D01*
X178027809Y-65924013D01*
X177876922Y-65894000D01*
X177723078Y-65894000D01*
X177572191Y-65924013D01*
X177430058Y-65982887D01*
X177302141Y-66068358D01*
X177193358Y-66177141D01*
X177107887Y-66305058D01*
X177049013Y-66447191D01*
X177019000Y-66598078D01*
X172551261Y-66598078D01*
X172633693Y-66399069D01*
X172681000Y-66161243D01*
X172681000Y-65918757D01*
X172633693Y-65680931D01*
X172540898Y-65456903D01*
X172406180Y-65255283D01*
X172234717Y-65083820D01*
X172229000Y-65080000D01*
X179010450Y-65080000D01*
X179020625Y-65183310D01*
X179050760Y-65282650D01*
X179099695Y-65374202D01*
X179165552Y-65454448D01*
X179245798Y-65520305D01*
X179337350Y-65569240D01*
X179436690Y-65599375D01*
X179540000Y-65609550D01*
X180085250Y-65607000D01*
X180217000Y-65475250D01*
X180217000Y-64113000D01*
X180463000Y-64113000D01*
X180463000Y-65475250D01*
X180594750Y-65607000D01*
X181140000Y-65609550D01*
X181243310Y-65599375D01*
X181342650Y-65569240D01*
X181434202Y-65520305D01*
X181514448Y-65454448D01*
X181580305Y-65374202D01*
X181629240Y-65282650D01*
X181659375Y-65183310D01*
X181669550Y-65080000D01*
X181667000Y-64244750D01*
X181535250Y-64113000D01*
X180463000Y-64113000D01*
X180217000Y-64113000D01*
X179144750Y-64113000D01*
X179013000Y-64244750D01*
X179010450Y-65080000D01*
X172229000Y-65080000D01*
X172033097Y-64949102D01*
X171809069Y-64856307D01*
X171571243Y-64809000D01*
X171328757Y-64809000D01*
X171090931Y-64856307D01*
X170866903Y-64949102D01*
X170665283Y-65083820D01*
X170493820Y-65255283D01*
X170359102Y-65456903D01*
X170266307Y-65680931D01*
X170219000Y-65918757D01*
X169951000Y-65918757D01*
X169951000Y-61296035D01*
X170114631Y-61296035D01*
X170152985Y-61422490D01*
X170268134Y-61666638D01*
X170428702Y-61883631D01*
X170628517Y-62065129D01*
X170859902Y-62204158D01*
X171113964Y-62295374D01*
X171326998Y-62199752D01*
X171326998Y-62269350D01*
X171090931Y-62316307D01*
X170866903Y-62409102D01*
X170665283Y-62543820D01*
X170493820Y-62715283D01*
X170359102Y-62916903D01*
X170266307Y-63140931D01*
X170219000Y-63378757D01*
X170219000Y-63621243D01*
X170266307Y-63859069D01*
X170359102Y-64083097D01*
X170493820Y-64284717D01*
X170665283Y-64456180D01*
X170866903Y-64590898D01*
X171090931Y-64683693D01*
X171328757Y-64731000D01*
X171571243Y-64731000D01*
X171809069Y-64683693D01*
X172033097Y-64590898D01*
X172234717Y-64456180D01*
X172406180Y-64284717D01*
X172540898Y-64083097D01*
X172633693Y-63859069D01*
X172681000Y-63621243D01*
X172681000Y-63378757D01*
X172633693Y-63140931D01*
X172540898Y-62916903D01*
X172529604Y-62900000D01*
X179010450Y-62900000D01*
X179013000Y-63735250D01*
X179144750Y-63867000D01*
X180217000Y-63867000D01*
X180217000Y-62504750D01*
X180463000Y-62504750D01*
X180463000Y-63867000D01*
X181535250Y-63867000D01*
X181667000Y-63735250D01*
X181669550Y-62900000D01*
X181659375Y-62796690D01*
X181629240Y-62697350D01*
X181580305Y-62605798D01*
X181514448Y-62525552D01*
X181434202Y-62459695D01*
X181342650Y-62410760D01*
X181243310Y-62380625D01*
X181140000Y-62370450D01*
X180594750Y-62373000D01*
X180463000Y-62504750D01*
X180217000Y-62504750D01*
X180085250Y-62373000D01*
X179540000Y-62370450D01*
X179436690Y-62380625D01*
X179337350Y-62410760D01*
X179245798Y-62459695D01*
X179165552Y-62525552D01*
X179099695Y-62605798D01*
X179050760Y-62697350D01*
X179020625Y-62796690D01*
X179010450Y-62900000D01*
X172529604Y-62900000D01*
X172406180Y-62715283D01*
X172234717Y-62543820D01*
X172033097Y-62409102D01*
X171809069Y-62316307D01*
X171573002Y-62269350D01*
X171573002Y-62199752D01*
X171786036Y-62295374D01*
X172040098Y-62204158D01*
X172271483Y-62065129D01*
X172471298Y-61883631D01*
X172631866Y-61666638D01*
X172747015Y-61422490D01*
X172785369Y-61296035D01*
X172689160Y-61083000D01*
X171573000Y-61083000D01*
X171573000Y-61103000D01*
X171327000Y-61103000D01*
X171327000Y-61083000D01*
X170210840Y-61083000D01*
X170114631Y-61296035D01*
X169951000Y-61296035D01*
X169951000Y-58756035D01*
X170114631Y-58756035D01*
X170152985Y-58882490D01*
X170268134Y-59126638D01*
X170428702Y-59343631D01*
X170628517Y-59525129D01*
X170859902Y-59664158D01*
X170931879Y-59690000D01*
X170859902Y-59715842D01*
X170628517Y-59854871D01*
X170428702Y-60036369D01*
X170268134Y-60253362D01*
X170152985Y-60497510D01*
X170114631Y-60623965D01*
X170210840Y-60837000D01*
X171327000Y-60837000D01*
X171327000Y-59720249D01*
X171259609Y-59690000D01*
X171327000Y-59659751D01*
X171327000Y-58543000D01*
X171573000Y-58543000D01*
X171573000Y-59659751D01*
X171640391Y-59690000D01*
X171573000Y-59720249D01*
X171573000Y-60837000D01*
X172689160Y-60837000D01*
X172785369Y-60623965D01*
X172747015Y-60497510D01*
X172631866Y-60253362D01*
X172471298Y-60036369D01*
X172271483Y-59854871D01*
X172040098Y-59715842D01*
X171968121Y-59690000D01*
X172040098Y-59664158D01*
X172271483Y-59525129D01*
X172471298Y-59343631D01*
X172631866Y-59126638D01*
X172747015Y-58882490D01*
X172785369Y-58756035D01*
X172689160Y-58543000D01*
X171573000Y-58543000D01*
X171327000Y-58543000D01*
X170210840Y-58543000D01*
X170114631Y-58756035D01*
X169951000Y-58756035D01*
X169951000Y-56216035D01*
X170114631Y-56216035D01*
X170152985Y-56342490D01*
X170268134Y-56586638D01*
X170428702Y-56803631D01*
X170628517Y-56985129D01*
X170859902Y-57124158D01*
X170931879Y-57150000D01*
X170859902Y-57175842D01*
X170628517Y-57314871D01*
X170428702Y-57496369D01*
X170268134Y-57713362D01*
X170152985Y-57957510D01*
X170114631Y-58083965D01*
X170210840Y-58297000D01*
X171327000Y-58297000D01*
X171327000Y-57180249D01*
X171259609Y-57150000D01*
X171327000Y-57119751D01*
X171327000Y-56003000D01*
X171573000Y-56003000D01*
X171573000Y-57119751D01*
X171640391Y-57150000D01*
X171573000Y-57180249D01*
X171573000Y-58297000D01*
X172689160Y-58297000D01*
X172785369Y-58083965D01*
X172747015Y-57957510D01*
X172631866Y-57713362D01*
X172471298Y-57496369D01*
X172271483Y-57314871D01*
X172040098Y-57175842D01*
X171968121Y-57150000D01*
X172040098Y-57124158D01*
X172271483Y-56985129D01*
X172471298Y-56803631D01*
X172631866Y-56586638D01*
X172747015Y-56342490D01*
X172785369Y-56216035D01*
X172689160Y-56003000D01*
X171573000Y-56003000D01*
X171327000Y-56003000D01*
X170210840Y-56003000D01*
X170114631Y-56216035D01*
X169951000Y-56216035D01*
X169951000Y-54190000D01*
X170070450Y-54190000D01*
X170080625Y-54293310D01*
X170110760Y-54392650D01*
X170159695Y-54484202D01*
X170225552Y-54564448D01*
X170305798Y-54630305D01*
X170397350Y-54679240D01*
X170496690Y-54709375D01*
X170600000Y-54719550D01*
X170721453Y-54719030D01*
X170628517Y-54774871D01*
X170428702Y-54956369D01*
X170268134Y-55173362D01*
X170152985Y-55417510D01*
X170114631Y-55543965D01*
X170210840Y-55757000D01*
X171327000Y-55757000D01*
X171327000Y-54640249D01*
X171289040Y-54623210D01*
X171327000Y-54585250D01*
X171327000Y-53463000D01*
X171573000Y-53463000D01*
X171573000Y-54585250D01*
X171610960Y-54623210D01*
X171573000Y-54640249D01*
X171573000Y-55757000D01*
X172689160Y-55757000D01*
X172785369Y-55543965D01*
X172747015Y-55417510D01*
X172631866Y-55173362D01*
X172540560Y-55049969D01*
X183883979Y-55049969D01*
X183985521Y-55284649D01*
X184256383Y-55415456D01*
X184547558Y-55490906D01*
X184847859Y-55508101D01*
X185145744Y-55466379D01*
X185429766Y-55367345D01*
X185584479Y-55284649D01*
X185686021Y-55049969D01*
X184785000Y-54148948D01*
X183883979Y-55049969D01*
X172540560Y-55049969D01*
X172471298Y-54956369D01*
X172271483Y-54774871D01*
X172178547Y-54719030D01*
X172300000Y-54719550D01*
X172403310Y-54709375D01*
X172502650Y-54679240D01*
X172594202Y-54630305D01*
X172674448Y-54564448D01*
X172740305Y-54484202D01*
X172789240Y-54392650D01*
X172819375Y-54293310D01*
X172829550Y-54190000D01*
X172828899Y-54037859D01*
X183251899Y-54037859D01*
X183293621Y-54335744D01*
X183392655Y-54619766D01*
X183475351Y-54774479D01*
X183710031Y-54876021D01*
X184611052Y-53975000D01*
X184958948Y-53975000D01*
X185859969Y-54876021D01*
X186094649Y-54774479D01*
X186225456Y-54503617D01*
X186300906Y-54212442D01*
X186318101Y-53912141D01*
X186307855Y-53838983D01*
X194834000Y-53838983D01*
X194834000Y-54111017D01*
X194887071Y-54377823D01*
X194991174Y-54629149D01*
X195142307Y-54855336D01*
X195334664Y-55047693D01*
X195560851Y-55198826D01*
X195812177Y-55302929D01*
X196078983Y-55356000D01*
X196351017Y-55356000D01*
X196617823Y-55302929D01*
X196869149Y-55198826D01*
X197095336Y-55047693D01*
X197287693Y-54855336D01*
X197438826Y-54629149D01*
X197542929Y-54377823D01*
X197596000Y-54111017D01*
X197596000Y-53838983D01*
X197542929Y-53572177D01*
X197438826Y-53320851D01*
X197287693Y-53094664D01*
X197095336Y-52902307D01*
X196869149Y-52751174D01*
X196617823Y-52647071D01*
X196351017Y-52594000D01*
X196078983Y-52594000D01*
X195812177Y-52647071D01*
X195560851Y-52751174D01*
X195334664Y-52902307D01*
X195142307Y-53094664D01*
X194991174Y-53320851D01*
X194887071Y-53572177D01*
X194834000Y-53838983D01*
X186307855Y-53838983D01*
X186276379Y-53614256D01*
X186177345Y-53330234D01*
X186094649Y-53175521D01*
X185859969Y-53073979D01*
X184958948Y-53975000D01*
X184611052Y-53975000D01*
X183710031Y-53073979D01*
X183475351Y-53175521D01*
X183344544Y-53446383D01*
X183269094Y-53737558D01*
X183251899Y-54037859D01*
X172828899Y-54037859D01*
X172827000Y-53594750D01*
X172695250Y-53463000D01*
X171573000Y-53463000D01*
X171327000Y-53463000D01*
X170204750Y-53463000D01*
X170073000Y-53594750D01*
X170070450Y-54190000D01*
X169951000Y-54190000D01*
X169951000Y-52490000D01*
X170070450Y-52490000D01*
X170073000Y-53085250D01*
X170204750Y-53217000D01*
X171327000Y-53217000D01*
X171327000Y-52094750D01*
X171573000Y-52094750D01*
X171573000Y-53217000D01*
X172695250Y-53217000D01*
X172827000Y-53085250D01*
X172827793Y-52900031D01*
X183883979Y-52900031D01*
X184785000Y-53801052D01*
X185686021Y-52900031D01*
X185584479Y-52665351D01*
X185313617Y-52534544D01*
X185022442Y-52459094D01*
X184722141Y-52441899D01*
X184424256Y-52483621D01*
X184140234Y-52582655D01*
X183985521Y-52665351D01*
X183883979Y-52900031D01*
X172827793Y-52900031D01*
X172829550Y-52490000D01*
X172819375Y-52386690D01*
X172789240Y-52287350D01*
X172740305Y-52195798D01*
X172674448Y-52115552D01*
X172594202Y-52049695D01*
X172502650Y-52000760D01*
X172403310Y-51970625D01*
X172300000Y-51960450D01*
X171704750Y-51963000D01*
X171573000Y-52094750D01*
X171327000Y-52094750D01*
X171195250Y-51963000D01*
X170600000Y-51960450D01*
X170496690Y-51970625D01*
X170397350Y-52000760D01*
X170305798Y-52049695D01*
X170225552Y-52115552D01*
X170159695Y-52195798D01*
X170110760Y-52287350D01*
X170080625Y-52386690D01*
X170070450Y-52490000D01*
X169951000Y-52490000D01*
X169951000Y-51841000D01*
X211049000Y-51841000D01*
X211049001Y-108179000D01*
G37*
%TD.AperFunction*%
D22*
X195471580Y-62674150D02*
X195452894Y-62693123D01*
X195452738Y-62693284D01*
X195428116Y-62719179D01*
X195427932Y-62719377D01*
X195406216Y-62743214D01*
X195405993Y-62743466D01*
X195387183Y-62765245D01*
X195386908Y-62765574D01*
X195371006Y-62785295D01*
X195370663Y-62785740D01*
X195357667Y-62803403D01*
X195357231Y-62804034D01*
X195347141Y-62819638D01*
X195346585Y-62820585D01*
X195339403Y-62834132D01*
X195338722Y-62835651D01*
X195334446Y-62847139D01*
X195333780Y-62849745D01*
X195333612Y-62850903D01*
X194821558Y-62988442D01*
X194959097Y-62476387D01*
X194960256Y-62476219D01*
X194962860Y-62475553D01*
X194974348Y-62471277D01*
X194975867Y-62470596D01*
X194989414Y-62463414D01*
X194990361Y-62462858D01*
X195005965Y-62452768D01*
X195006596Y-62452332D01*
X195024259Y-62439336D01*
X195024704Y-62438993D01*
X195044425Y-62423091D01*
X195044754Y-62422816D01*
X195066533Y-62404006D01*
X195066785Y-62403783D01*
X195090622Y-62382067D01*
X195090820Y-62381883D01*
X195116715Y-62357261D01*
X195116875Y-62357106D01*
X195135850Y-62338420D01*
X195471580Y-62674150D01*
%TA.AperFunction,Conductor*%
D21*
G36*
X195471580Y-62674150D02*
G01*
X195452894Y-62693123D01*
X195452738Y-62693284D01*
X195428116Y-62719179D01*
X195427932Y-62719377D01*
X195406216Y-62743214D01*
X195405993Y-62743466D01*
X195387183Y-62765245D01*
X195386908Y-62765574D01*
X195371006Y-62785295D01*
X195370663Y-62785740D01*
X195357667Y-62803403D01*
X195357231Y-62804034D01*
X195347141Y-62819638D01*
X195346585Y-62820585D01*
X195339403Y-62834132D01*
X195338722Y-62835651D01*
X195334446Y-62847139D01*
X195333780Y-62849745D01*
X195333612Y-62850903D01*
X194821558Y-62988442D01*
X194959097Y-62476387D01*
X194960256Y-62476219D01*
X194962860Y-62475553D01*
X194974348Y-62471277D01*
X194975867Y-62470596D01*
X194989414Y-62463414D01*
X194990361Y-62462858D01*
X195005965Y-62452768D01*
X195006596Y-62452332D01*
X195024259Y-62439336D01*
X195024704Y-62438993D01*
X195044425Y-62423091D01*
X195044754Y-62422816D01*
X195066533Y-62404006D01*
X195066785Y-62403783D01*
X195090622Y-62382067D01*
X195090820Y-62381883D01*
X195116715Y-62357261D01*
X195116875Y-62357106D01*
X195135850Y-62338420D01*
X195471580Y-62674150D01*
G37*
%TD.AperFunction*%
D22*
X181187849Y-75046831D02*
X181188547Y-75047437D01*
X181222263Y-75074577D01*
X181223046Y-75075159D01*
X181257902Y-75099055D01*
X181258763Y-75099596D01*
X181294759Y-75120248D01*
X181295689Y-75120731D01*
X181332826Y-75138139D01*
X181333808Y-75138551D01*
X181372084Y-75152715D01*
X181373101Y-75153043D01*
X181412517Y-75163963D01*
X181413546Y-75164202D01*
X181454103Y-75171878D01*
X181455123Y-75172029D01*
X181496819Y-75176461D01*
X181497809Y-75176527D01*
X181531188Y-75177453D01*
X181668440Y-75688442D01*
X181157451Y-75551190D01*
X181156525Y-75517811D01*
X181156459Y-75516821D01*
X181152027Y-75475125D01*
X181151876Y-75474105D01*
X181144200Y-75433548D01*
X181143961Y-75432519D01*
X181133041Y-75393103D01*
X181132713Y-75392086D01*
X181118549Y-75353810D01*
X181118137Y-75352828D01*
X181100729Y-75315691D01*
X181100246Y-75314761D01*
X181079594Y-75278765D01*
X181079053Y-75277904D01*
X181055157Y-75243048D01*
X181054575Y-75242265D01*
X181027435Y-75208549D01*
X181026829Y-75207851D01*
X181004811Y-75184244D01*
X181164242Y-75024813D01*
X181187849Y-75046831D01*
%TA.AperFunction,Conductor*%
D21*
G36*
X181187849Y-75046831D02*
G01*
X181188547Y-75047437D01*
X181222263Y-75074577D01*
X181223046Y-75075159D01*
X181257902Y-75099055D01*
X181258763Y-75099596D01*
X181294759Y-75120248D01*
X181295689Y-75120731D01*
X181332826Y-75138139D01*
X181333808Y-75138551D01*
X181372084Y-75152715D01*
X181373101Y-75153043D01*
X181412517Y-75163963D01*
X181413546Y-75164202D01*
X181454103Y-75171878D01*
X181455123Y-75172029D01*
X181496819Y-75176461D01*
X181497809Y-75176527D01*
X181531188Y-75177453D01*
X181668440Y-75688442D01*
X181157451Y-75551190D01*
X181156525Y-75517811D01*
X181156459Y-75516821D01*
X181152027Y-75475125D01*
X181151876Y-75474105D01*
X181144200Y-75433548D01*
X181143961Y-75432519D01*
X181133041Y-75393103D01*
X181132713Y-75392086D01*
X181118549Y-75353810D01*
X181118137Y-75352828D01*
X181100729Y-75315691D01*
X181100246Y-75314761D01*
X181079594Y-75278765D01*
X181079053Y-75277904D01*
X181055157Y-75243048D01*
X181054575Y-75242265D01*
X181027435Y-75208549D01*
X181026829Y-75207851D01*
X181004811Y-75184244D01*
X181164242Y-75024813D01*
X181187849Y-75046831D01*
G37*
%TD.AperFunction*%
D22*
X178064272Y-66958803D02*
X178041324Y-66983058D01*
X178040670Y-66983805D01*
X178014320Y-67016423D01*
X178013705Y-67017250D01*
X177990455Y-67051355D01*
X177989897Y-67052252D01*
X177969747Y-67087845D01*
X177969260Y-67088796D01*
X177952210Y-67125877D01*
X177951806Y-67126863D01*
X177937856Y-67165432D01*
X177937541Y-67166432D01*
X177926691Y-67206488D01*
X177926464Y-67207479D01*
X177918714Y-67249023D01*
X177918573Y-67249988D01*
X177913923Y-67293020D01*
X177913857Y-67293942D01*
X177912734Y-67326204D01*
X177687265Y-67326204D01*
X177686142Y-67293942D01*
X177686076Y-67293020D01*
X177681426Y-67249988D01*
X177681285Y-67249023D01*
X177673535Y-67207479D01*
X177673308Y-67206488D01*
X177662458Y-67166432D01*
X177662143Y-67165432D01*
X177648193Y-67126863D01*
X177647789Y-67125877D01*
X177630739Y-67088796D01*
X177630252Y-67087845D01*
X177610102Y-67052252D01*
X177609544Y-67051355D01*
X177586294Y-67017250D01*
X177585679Y-67016423D01*
X177559329Y-66983805D01*
X177558676Y-66983058D01*
X177535728Y-66958802D01*
X177800000Y-66500426D01*
X178064272Y-66958803D01*
%TA.AperFunction,Conductor*%
D21*
G36*
X178064272Y-66958803D02*
G01*
X178041324Y-66983058D01*
X178040670Y-66983805D01*
X178014320Y-67016423D01*
X178013705Y-67017250D01*
X177990455Y-67051355D01*
X177989897Y-67052252D01*
X177969747Y-67087845D01*
X177969260Y-67088796D01*
X177952210Y-67125877D01*
X177951806Y-67126863D01*
X177937856Y-67165432D01*
X177937541Y-67166432D01*
X177926691Y-67206488D01*
X177926464Y-67207479D01*
X177918714Y-67249023D01*
X177918573Y-67249988D01*
X177913923Y-67293020D01*
X177913857Y-67293942D01*
X177912734Y-67326204D01*
X177687265Y-67326204D01*
X177686142Y-67293942D01*
X177686076Y-67293020D01*
X177681426Y-67249988D01*
X177681285Y-67249023D01*
X177673535Y-67207479D01*
X177673308Y-67206488D01*
X177662458Y-67166432D01*
X177662143Y-67165432D01*
X177648193Y-67126863D01*
X177647789Y-67125877D01*
X177630739Y-67088796D01*
X177630252Y-67087845D01*
X177610102Y-67052252D01*
X177609544Y-67051355D01*
X177586294Y-67017250D01*
X177585679Y-67016423D01*
X177559329Y-66983805D01*
X177558676Y-66983058D01*
X177535728Y-66958802D01*
X177800000Y-66500426D01*
X178064272Y-66958803D01*
G37*
%TD.AperFunction*%
D22*
X200289272Y-65053803D02*
X200266324Y-65078058D01*
X200265670Y-65078805D01*
X200239320Y-65111423D01*
X200238705Y-65112250D01*
X200215455Y-65146355D01*
X200214897Y-65147252D01*
X200194747Y-65182845D01*
X200194260Y-65183796D01*
X200177210Y-65220877D01*
X200176806Y-65221863D01*
X200162856Y-65260432D01*
X200162541Y-65261432D01*
X200151691Y-65301488D01*
X200151464Y-65302479D01*
X200143714Y-65344023D01*
X200143573Y-65344988D01*
X200138923Y-65388020D01*
X200138857Y-65388942D01*
X200137734Y-65421204D01*
X199912265Y-65421204D01*
X199911142Y-65388942D01*
X199911076Y-65388020D01*
X199906426Y-65344988D01*
X199906285Y-65344023D01*
X199898535Y-65302479D01*
X199898308Y-65301488D01*
X199887458Y-65261432D01*
X199887143Y-65260432D01*
X199873193Y-65221863D01*
X199872789Y-65220877D01*
X199855739Y-65183796D01*
X199855252Y-65182845D01*
X199835102Y-65147252D01*
X199834544Y-65146355D01*
X199811294Y-65112250D01*
X199810679Y-65111423D01*
X199784329Y-65078805D01*
X199783676Y-65078058D01*
X199760728Y-65053802D01*
X200025000Y-64595426D01*
X200289272Y-65053803D01*
%TA.AperFunction,Conductor*%
D21*
G36*
X200289272Y-65053803D02*
G01*
X200266324Y-65078058D01*
X200265670Y-65078805D01*
X200239320Y-65111423D01*
X200238705Y-65112250D01*
X200215455Y-65146355D01*
X200214897Y-65147252D01*
X200194747Y-65182845D01*
X200194260Y-65183796D01*
X200177210Y-65220877D01*
X200176806Y-65221863D01*
X200162856Y-65260432D01*
X200162541Y-65261432D01*
X200151691Y-65301488D01*
X200151464Y-65302479D01*
X200143714Y-65344023D01*
X200143573Y-65344988D01*
X200138923Y-65388020D01*
X200138857Y-65388942D01*
X200137734Y-65421204D01*
X199912265Y-65421204D01*
X199911142Y-65388942D01*
X199911076Y-65388020D01*
X199906426Y-65344988D01*
X199906285Y-65344023D01*
X199898535Y-65302479D01*
X199898308Y-65301488D01*
X199887458Y-65261432D01*
X199887143Y-65260432D01*
X199873193Y-65221863D01*
X199872789Y-65220877D01*
X199855739Y-65183796D01*
X199855252Y-65182845D01*
X199835102Y-65147252D01*
X199834544Y-65146355D01*
X199811294Y-65112250D01*
X199810679Y-65111423D01*
X199784329Y-65078805D01*
X199783676Y-65078058D01*
X199760728Y-65053802D01*
X200025000Y-64595426D01*
X200289272Y-65053803D01*
G37*
%TD.AperFunction*%
D22*
X199930187Y-86614244D02*
X199908168Y-86637850D01*
X199907562Y-86638549D01*
X199880422Y-86672265D01*
X199879840Y-86673048D01*
X199855944Y-86707904D01*
X199855403Y-86708765D01*
X199834751Y-86744761D01*
X199834268Y-86745691D01*
X199816860Y-86782828D01*
X199816448Y-86783810D01*
X199802284Y-86822086D01*
X199801956Y-86823103D01*
X199791036Y-86862519D01*
X199790797Y-86863548D01*
X199783121Y-86904105D01*
X199782970Y-86905125D01*
X199778538Y-86946821D01*
X199778472Y-86947811D01*
X199777546Y-86981190D01*
X199266558Y-87118442D01*
X199403810Y-86607453D01*
X199437188Y-86606527D01*
X199438178Y-86606461D01*
X199479874Y-86602029D01*
X199480894Y-86601878D01*
X199521451Y-86594202D01*
X199522480Y-86593963D01*
X199561896Y-86583043D01*
X199562913Y-86582715D01*
X199601189Y-86568551D01*
X199602171Y-86568139D01*
X199639308Y-86550731D01*
X199640238Y-86550248D01*
X199676234Y-86529596D01*
X199677095Y-86529055D01*
X199711951Y-86505159D01*
X199712734Y-86504577D01*
X199746450Y-86477437D01*
X199747148Y-86476831D01*
X199770756Y-86454813D01*
X199930187Y-86614244D01*
%TA.AperFunction,Conductor*%
D21*
G36*
X199930187Y-86614244D02*
G01*
X199908168Y-86637850D01*
X199907562Y-86638549D01*
X199880422Y-86672265D01*
X199879840Y-86673048D01*
X199855944Y-86707904D01*
X199855403Y-86708765D01*
X199834751Y-86744761D01*
X199834268Y-86745691D01*
X199816860Y-86782828D01*
X199816448Y-86783810D01*
X199802284Y-86822086D01*
X199801956Y-86823103D01*
X199791036Y-86862519D01*
X199790797Y-86863548D01*
X199783121Y-86904105D01*
X199782970Y-86905125D01*
X199778538Y-86946821D01*
X199778472Y-86947811D01*
X199777546Y-86981190D01*
X199266558Y-87118442D01*
X199403810Y-86607453D01*
X199437188Y-86606527D01*
X199438178Y-86606461D01*
X199479874Y-86602029D01*
X199480894Y-86601878D01*
X199521451Y-86594202D01*
X199522480Y-86593963D01*
X199561896Y-86583043D01*
X199562913Y-86582715D01*
X199601189Y-86568551D01*
X199602171Y-86568139D01*
X199639308Y-86550731D01*
X199640238Y-86550248D01*
X199676234Y-86529596D01*
X199677095Y-86529055D01*
X199711951Y-86505159D01*
X199712734Y-86504577D01*
X199746450Y-86477437D01*
X199747148Y-86476831D01*
X199770756Y-86454813D01*
X199930187Y-86614244D01*
G37*
%TD.AperFunction*%
D22*
X200011190Y-62617546D02*
X199977811Y-62618472D01*
X199976821Y-62618538D01*
X199935125Y-62622970D01*
X199934105Y-62623121D01*
X199893548Y-62630797D01*
X199892519Y-62631036D01*
X199853103Y-62641956D01*
X199852086Y-62642284D01*
X199813810Y-62656448D01*
X199812828Y-62656860D01*
X199775691Y-62674268D01*
X199774761Y-62674751D01*
X199738765Y-62695403D01*
X199737904Y-62695944D01*
X199703048Y-62719840D01*
X199702265Y-62720422D01*
X199668549Y-62747562D01*
X199667850Y-62748168D01*
X199644244Y-62770187D01*
X199484813Y-62610756D01*
X199506831Y-62587148D01*
X199507437Y-62586450D01*
X199534577Y-62552734D01*
X199535159Y-62551951D01*
X199559055Y-62517095D01*
X199559596Y-62516234D01*
X199580248Y-62480238D01*
X199580731Y-62479308D01*
X199598139Y-62442171D01*
X199598551Y-62441189D01*
X199612715Y-62402913D01*
X199613043Y-62401896D01*
X199623963Y-62362480D01*
X199624202Y-62361451D01*
X199631878Y-62320894D01*
X199632029Y-62319874D01*
X199636461Y-62278178D01*
X199636527Y-62277188D01*
X199637453Y-62243810D01*
X200148442Y-62106558D01*
X200011190Y-62617546D01*
%TA.AperFunction,Conductor*%
D21*
G36*
X200011190Y-62617546D02*
G01*
X199977811Y-62618472D01*
X199976821Y-62618538D01*
X199935125Y-62622970D01*
X199934105Y-62623121D01*
X199893548Y-62630797D01*
X199892519Y-62631036D01*
X199853103Y-62641956D01*
X199852086Y-62642284D01*
X199813810Y-62656448D01*
X199812828Y-62656860D01*
X199775691Y-62674268D01*
X199774761Y-62674751D01*
X199738765Y-62695403D01*
X199737904Y-62695944D01*
X199703048Y-62719840D01*
X199702265Y-62720422D01*
X199668549Y-62747562D01*
X199667850Y-62748168D01*
X199644244Y-62770187D01*
X199484813Y-62610756D01*
X199506831Y-62587148D01*
X199507437Y-62586450D01*
X199534577Y-62552734D01*
X199535159Y-62551951D01*
X199559055Y-62517095D01*
X199559596Y-62516234D01*
X199580248Y-62480238D01*
X199580731Y-62479308D01*
X199598139Y-62442171D01*
X199598551Y-62441189D01*
X199612715Y-62402913D01*
X199613043Y-62401896D01*
X199623963Y-62362480D01*
X199624202Y-62361451D01*
X199631878Y-62320894D01*
X199632029Y-62319874D01*
X199636461Y-62278178D01*
X199636527Y-62277188D01*
X199637453Y-62243810D01*
X200148442Y-62106558D01*
X200011190Y-62617546D01*
G37*
%TD.AperFunction*%
D22*
X198551357Y-84153557D02*
X198551423Y-84154479D01*
X198556073Y-84197511D01*
X198556214Y-84198476D01*
X198563964Y-84240020D01*
X198564191Y-84241011D01*
X198575041Y-84281067D01*
X198575356Y-84282067D01*
X198589306Y-84320636D01*
X198589710Y-84321622D01*
X198606760Y-84358703D01*
X198607247Y-84359654D01*
X198627397Y-84395247D01*
X198627955Y-84396144D01*
X198651205Y-84430249D01*
X198651820Y-84431076D01*
X198678170Y-84463694D01*
X198678823Y-84464441D01*
X198701772Y-84488698D01*
X198437500Y-84947074D01*
X198173228Y-84488698D01*
X198196176Y-84464441D01*
X198196829Y-84463694D01*
X198223179Y-84431076D01*
X198223794Y-84430249D01*
X198247044Y-84396144D01*
X198247602Y-84395247D01*
X198267752Y-84359654D01*
X198268239Y-84358703D01*
X198285289Y-84321622D01*
X198285693Y-84320636D01*
X198299643Y-84282067D01*
X198299958Y-84281067D01*
X198310808Y-84241011D01*
X198311035Y-84240020D01*
X198318785Y-84198476D01*
X198318926Y-84197511D01*
X198323576Y-84154479D01*
X198323642Y-84153557D01*
X198324765Y-84121296D01*
X198550235Y-84121296D01*
X198551357Y-84153557D01*
%TA.AperFunction,Conductor*%
D21*
G36*
X198551357Y-84153557D02*
G01*
X198551423Y-84154479D01*
X198556073Y-84197511D01*
X198556214Y-84198476D01*
X198563964Y-84240020D01*
X198564191Y-84241011D01*
X198575041Y-84281067D01*
X198575356Y-84282067D01*
X198589306Y-84320636D01*
X198589710Y-84321622D01*
X198606760Y-84358703D01*
X198607247Y-84359654D01*
X198627397Y-84395247D01*
X198627955Y-84396144D01*
X198651205Y-84430249D01*
X198651820Y-84431076D01*
X198678170Y-84463694D01*
X198678823Y-84464441D01*
X198701772Y-84488698D01*
X198437500Y-84947074D01*
X198173228Y-84488698D01*
X198196176Y-84464441D01*
X198196829Y-84463694D01*
X198223179Y-84431076D01*
X198223794Y-84430249D01*
X198247044Y-84396144D01*
X198247602Y-84395247D01*
X198267752Y-84359654D01*
X198268239Y-84358703D01*
X198285289Y-84321622D01*
X198285693Y-84320636D01*
X198299643Y-84282067D01*
X198299958Y-84281067D01*
X198310808Y-84241011D01*
X198311035Y-84240020D01*
X198318785Y-84198476D01*
X198318926Y-84197511D01*
X198323576Y-84154479D01*
X198323642Y-84153557D01*
X198324765Y-84121296D01*
X198550235Y-84121296D01*
X198551357Y-84153557D01*
G37*
%TD.AperFunction*%
D22*
X200011190Y-61347546D02*
X199977811Y-61348472D01*
X199976821Y-61348538D01*
X199935125Y-61352970D01*
X199934105Y-61353121D01*
X199893548Y-61360797D01*
X199892519Y-61361036D01*
X199853103Y-61371956D01*
X199852086Y-61372284D01*
X199813810Y-61386448D01*
X199812828Y-61386860D01*
X199775691Y-61404268D01*
X199774761Y-61404751D01*
X199738765Y-61425403D01*
X199737904Y-61425944D01*
X199703048Y-61449840D01*
X199702265Y-61450422D01*
X199668549Y-61477562D01*
X199667850Y-61478168D01*
X199644244Y-61500187D01*
X199484813Y-61340756D01*
X199506831Y-61317148D01*
X199507437Y-61316450D01*
X199534577Y-61282734D01*
X199535159Y-61281951D01*
X199559055Y-61247095D01*
X199559596Y-61246234D01*
X199580248Y-61210238D01*
X199580731Y-61209308D01*
X199598139Y-61172171D01*
X199598551Y-61171189D01*
X199612715Y-61132913D01*
X199613043Y-61131896D01*
X199623963Y-61092480D01*
X199624202Y-61091451D01*
X199631878Y-61050894D01*
X199632029Y-61049874D01*
X199636461Y-61008178D01*
X199636527Y-61007188D01*
X199637453Y-60973810D01*
X200148442Y-60836558D01*
X200011190Y-61347546D01*
%TA.AperFunction,Conductor*%
D21*
G36*
X200011190Y-61347546D02*
G01*
X199977811Y-61348472D01*
X199976821Y-61348538D01*
X199935125Y-61352970D01*
X199934105Y-61353121D01*
X199893548Y-61360797D01*
X199892519Y-61361036D01*
X199853103Y-61371956D01*
X199852086Y-61372284D01*
X199813810Y-61386448D01*
X199812828Y-61386860D01*
X199775691Y-61404268D01*
X199774761Y-61404751D01*
X199738765Y-61425403D01*
X199737904Y-61425944D01*
X199703048Y-61449840D01*
X199702265Y-61450422D01*
X199668549Y-61477562D01*
X199667850Y-61478168D01*
X199644244Y-61500187D01*
X199484813Y-61340756D01*
X199506831Y-61317148D01*
X199507437Y-61316450D01*
X199534577Y-61282734D01*
X199535159Y-61281951D01*
X199559055Y-61247095D01*
X199559596Y-61246234D01*
X199580248Y-61210238D01*
X199580731Y-61209308D01*
X199598139Y-61172171D01*
X199598551Y-61171189D01*
X199612715Y-61132913D01*
X199613043Y-61131896D01*
X199623963Y-61092480D01*
X199624202Y-61091451D01*
X199631878Y-61050894D01*
X199632029Y-61049874D01*
X199636461Y-61008178D01*
X199636527Y-61007188D01*
X199637453Y-60973810D01*
X200148442Y-60836558D01*
X200011190Y-61347546D01*
G37*
%TD.AperFunction*%
D22*
X196963857Y-81296057D02*
X196963923Y-81296979D01*
X196968573Y-81340011D01*
X196968714Y-81340976D01*
X196976464Y-81382520D01*
X196976691Y-81383511D01*
X196987541Y-81423567D01*
X196987856Y-81424567D01*
X197001806Y-81463136D01*
X197002210Y-81464122D01*
X197019260Y-81501203D01*
X197019747Y-81502154D01*
X197039897Y-81537747D01*
X197040455Y-81538644D01*
X197063705Y-81572749D01*
X197064320Y-81573576D01*
X197090670Y-81606194D01*
X197091323Y-81606941D01*
X197114272Y-81631198D01*
X196850000Y-82089574D01*
X196585728Y-81631198D01*
X196608676Y-81606941D01*
X196609329Y-81606194D01*
X196635679Y-81573576D01*
X196636294Y-81572749D01*
X196659544Y-81538644D01*
X196660102Y-81537747D01*
X196680252Y-81502154D01*
X196680739Y-81501203D01*
X196697789Y-81464122D01*
X196698193Y-81463136D01*
X196712143Y-81424567D01*
X196712458Y-81423567D01*
X196723308Y-81383511D01*
X196723535Y-81382520D01*
X196731285Y-81340976D01*
X196731426Y-81340011D01*
X196736076Y-81296979D01*
X196736142Y-81296057D01*
X196737265Y-81263796D01*
X196962735Y-81263796D01*
X196963857Y-81296057D01*
%TA.AperFunction,Conductor*%
D21*
G36*
X196963857Y-81296057D02*
G01*
X196963923Y-81296979D01*
X196968573Y-81340011D01*
X196968714Y-81340976D01*
X196976464Y-81382520D01*
X196976691Y-81383511D01*
X196987541Y-81423567D01*
X196987856Y-81424567D01*
X197001806Y-81463136D01*
X197002210Y-81464122D01*
X197019260Y-81501203D01*
X197019747Y-81502154D01*
X197039897Y-81537747D01*
X197040455Y-81538644D01*
X197063705Y-81572749D01*
X197064320Y-81573576D01*
X197090670Y-81606194D01*
X197091323Y-81606941D01*
X197114272Y-81631198D01*
X196850000Y-82089574D01*
X196585728Y-81631198D01*
X196608676Y-81606941D01*
X196609329Y-81606194D01*
X196635679Y-81573576D01*
X196636294Y-81572749D01*
X196659544Y-81538644D01*
X196660102Y-81537747D01*
X196680252Y-81502154D01*
X196680739Y-81501203D01*
X196697789Y-81464122D01*
X196698193Y-81463136D01*
X196712143Y-81424567D01*
X196712458Y-81423567D01*
X196723308Y-81383511D01*
X196723535Y-81382520D01*
X196731285Y-81340976D01*
X196731426Y-81340011D01*
X196736076Y-81296979D01*
X196736142Y-81296057D01*
X196737265Y-81263796D01*
X196962735Y-81263796D01*
X196963857Y-81296057D01*
G37*
%TD.AperFunction*%
D22*
X203186190Y-60077546D02*
X203152811Y-60078472D01*
X203151821Y-60078538D01*
X203110125Y-60082970D01*
X203109105Y-60083121D01*
X203068548Y-60090797D01*
X203067519Y-60091036D01*
X203028103Y-60101956D01*
X203027086Y-60102284D01*
X202988810Y-60116448D01*
X202987828Y-60116860D01*
X202950691Y-60134268D01*
X202949761Y-60134751D01*
X202913765Y-60155403D01*
X202912904Y-60155944D01*
X202878048Y-60179840D01*
X202877265Y-60180422D01*
X202843549Y-60207562D01*
X202842850Y-60208168D01*
X202819244Y-60230187D01*
X202659813Y-60070756D01*
X202681831Y-60047148D01*
X202682437Y-60046450D01*
X202709577Y-60012734D01*
X202710159Y-60011951D01*
X202734055Y-59977095D01*
X202734596Y-59976234D01*
X202755248Y-59940238D01*
X202755731Y-59939308D01*
X202773139Y-59902171D01*
X202773551Y-59901189D01*
X202787715Y-59862913D01*
X202788043Y-59861896D01*
X202798963Y-59822480D01*
X202799202Y-59821451D01*
X202806878Y-59780894D01*
X202807029Y-59779874D01*
X202811461Y-59738178D01*
X202811527Y-59737188D01*
X202812453Y-59703810D01*
X203323442Y-59566558D01*
X203186190Y-60077546D01*
%TA.AperFunction,Conductor*%
D21*
G36*
X203186190Y-60077546D02*
G01*
X203152811Y-60078472D01*
X203151821Y-60078538D01*
X203110125Y-60082970D01*
X203109105Y-60083121D01*
X203068548Y-60090797D01*
X203067519Y-60091036D01*
X203028103Y-60101956D01*
X203027086Y-60102284D01*
X202988810Y-60116448D01*
X202987828Y-60116860D01*
X202950691Y-60134268D01*
X202949761Y-60134751D01*
X202913765Y-60155403D01*
X202912904Y-60155944D01*
X202878048Y-60179840D01*
X202877265Y-60180422D01*
X202843549Y-60207562D01*
X202842850Y-60208168D01*
X202819244Y-60230187D01*
X202659813Y-60070756D01*
X202681831Y-60047148D01*
X202682437Y-60046450D01*
X202709577Y-60012734D01*
X202710159Y-60011951D01*
X202734055Y-59977095D01*
X202734596Y-59976234D01*
X202755248Y-59940238D01*
X202755731Y-59939308D01*
X202773139Y-59902171D01*
X202773551Y-59901189D01*
X202787715Y-59862913D01*
X202788043Y-59861896D01*
X202798963Y-59822480D01*
X202799202Y-59821451D01*
X202806878Y-59780894D01*
X202807029Y-59779874D01*
X202811461Y-59738178D01*
X202811527Y-59737188D01*
X202812453Y-59703810D01*
X203323442Y-59566558D01*
X203186190Y-60077546D01*
G37*
%TD.AperFunction*%
D22*
X201473857Y-80661057D02*
X201473923Y-80661979D01*
X201478573Y-80705011D01*
X201478714Y-80705976D01*
X201486464Y-80747520D01*
X201486691Y-80748511D01*
X201497541Y-80788567D01*
X201497856Y-80789567D01*
X201511806Y-80828136D01*
X201512210Y-80829122D01*
X201529260Y-80866203D01*
X201529747Y-80867154D01*
X201549897Y-80902747D01*
X201550455Y-80903644D01*
X201573705Y-80937749D01*
X201574320Y-80938576D01*
X201600670Y-80971194D01*
X201601323Y-80971941D01*
X201624272Y-80996198D01*
X201360000Y-81454574D01*
X201095728Y-80996198D01*
X201118676Y-80971941D01*
X201119329Y-80971194D01*
X201145679Y-80938576D01*
X201146294Y-80937749D01*
X201169544Y-80903644D01*
X201170102Y-80902747D01*
X201190252Y-80867154D01*
X201190739Y-80866203D01*
X201207789Y-80829122D01*
X201208193Y-80828136D01*
X201222143Y-80789567D01*
X201222458Y-80788567D01*
X201233308Y-80748511D01*
X201233535Y-80747520D01*
X201241285Y-80705976D01*
X201241426Y-80705011D01*
X201246076Y-80661979D01*
X201246142Y-80661057D01*
X201247265Y-80628796D01*
X201472735Y-80628796D01*
X201473857Y-80661057D01*
%TA.AperFunction,Conductor*%
D21*
G36*
X201473857Y-80661057D02*
G01*
X201473923Y-80661979D01*
X201478573Y-80705011D01*
X201478714Y-80705976D01*
X201486464Y-80747520D01*
X201486691Y-80748511D01*
X201497541Y-80788567D01*
X201497856Y-80789567D01*
X201511806Y-80828136D01*
X201512210Y-80829122D01*
X201529260Y-80866203D01*
X201529747Y-80867154D01*
X201549897Y-80902747D01*
X201550455Y-80903644D01*
X201573705Y-80937749D01*
X201574320Y-80938576D01*
X201600670Y-80971194D01*
X201601323Y-80971941D01*
X201624272Y-80996198D01*
X201360000Y-81454574D01*
X201095728Y-80996198D01*
X201118676Y-80971941D01*
X201119329Y-80971194D01*
X201145679Y-80938576D01*
X201146294Y-80937749D01*
X201169544Y-80903644D01*
X201170102Y-80902747D01*
X201190252Y-80867154D01*
X201190739Y-80866203D01*
X201207789Y-80829122D01*
X201208193Y-80828136D01*
X201222143Y-80789567D01*
X201222458Y-80788567D01*
X201233308Y-80748511D01*
X201233535Y-80747520D01*
X201241285Y-80705976D01*
X201241426Y-80705011D01*
X201246076Y-80661979D01*
X201246142Y-80661057D01*
X201247265Y-80628796D01*
X201472735Y-80628796D01*
X201473857Y-80661057D01*
G37*
%TD.AperFunction*%
D22*
X190688104Y-96665744D02*
X190688144Y-96666462D01*
X190690544Y-96695322D01*
X190690634Y-96696110D01*
X190694634Y-96723420D01*
X190694790Y-96724278D01*
X190700390Y-96750038D01*
X190700627Y-96750960D01*
X190707827Y-96775169D01*
X190708161Y-96776147D01*
X190716961Y-96798806D01*
X190717408Y-96799821D01*
X190727808Y-96820930D01*
X190728375Y-96821958D01*
X190740375Y-96841517D01*
X190741065Y-96842530D01*
X190754665Y-96860538D01*
X190755470Y-96861500D01*
X190764331Y-96871095D01*
X190500000Y-97329574D01*
X190235669Y-96871095D01*
X190244530Y-96861500D01*
X190245335Y-96860538D01*
X190258935Y-96842530D01*
X190259625Y-96841517D01*
X190271625Y-96821958D01*
X190272192Y-96820930D01*
X190282592Y-96799821D01*
X190283039Y-96798806D01*
X190291839Y-96776147D01*
X190292173Y-96775169D01*
X190299373Y-96750960D01*
X190299610Y-96750038D01*
X190305210Y-96724278D01*
X190305366Y-96723420D01*
X190309366Y-96696110D01*
X190309456Y-96695322D01*
X190311856Y-96666462D01*
X190311896Y-96665744D01*
X190312371Y-96647700D01*
X190687629Y-96647700D01*
X190688104Y-96665744D01*
%TA.AperFunction,Conductor*%
D21*
G36*
X190688104Y-96665744D02*
G01*
X190688144Y-96666462D01*
X190690544Y-96695322D01*
X190690634Y-96696110D01*
X190694634Y-96723420D01*
X190694790Y-96724278D01*
X190700390Y-96750038D01*
X190700627Y-96750960D01*
X190707827Y-96775169D01*
X190708161Y-96776147D01*
X190716961Y-96798806D01*
X190717408Y-96799821D01*
X190727808Y-96820930D01*
X190728375Y-96821958D01*
X190740375Y-96841517D01*
X190741065Y-96842530D01*
X190754665Y-96860538D01*
X190755470Y-96861500D01*
X190764331Y-96871095D01*
X190500000Y-97329574D01*
X190235669Y-96871095D01*
X190244530Y-96861500D01*
X190245335Y-96860538D01*
X190258935Y-96842530D01*
X190259625Y-96841517D01*
X190271625Y-96821958D01*
X190272192Y-96820930D01*
X190282592Y-96799821D01*
X190283039Y-96798806D01*
X190291839Y-96776147D01*
X190292173Y-96775169D01*
X190299373Y-96750960D01*
X190299610Y-96750038D01*
X190305210Y-96724278D01*
X190305366Y-96723420D01*
X190309366Y-96696110D01*
X190309456Y-96695322D01*
X190311856Y-96666462D01*
X190311896Y-96665744D01*
X190312371Y-96647700D01*
X190687629Y-96647700D01*
X190688104Y-96665744D01*
G37*
%TD.AperFunction*%
D22*
X190764668Y-90200490D02*
X190754883Y-90212721D01*
X190753582Y-90214702D01*
X190739982Y-90240330D01*
X190739297Y-90241855D01*
X190727297Y-90274114D01*
X190726931Y-90275261D01*
X190716531Y-90314150D01*
X190716331Y-90315020D01*
X190707531Y-90360539D01*
X190707419Y-90361213D01*
X190700219Y-90413362D01*
X190700157Y-90413895D01*
X190694557Y-90472675D01*
X190694524Y-90473104D01*
X190690524Y-90538514D01*
X190690507Y-90538866D01*
X190688107Y-90610906D01*
X190688101Y-90611200D01*
X190687429Y-90677300D01*
X190312571Y-90677300D01*
X190311899Y-90611200D01*
X190311893Y-90610906D01*
X190309493Y-90538866D01*
X190309476Y-90538514D01*
X190305476Y-90473104D01*
X190305443Y-90472675D01*
X190299843Y-90413895D01*
X190299781Y-90413362D01*
X190292581Y-90361213D01*
X190292469Y-90360539D01*
X190283669Y-90315020D01*
X190283469Y-90314150D01*
X190273069Y-90275261D01*
X190272703Y-90274114D01*
X190260703Y-90241855D01*
X190260018Y-90240330D01*
X190246418Y-90214702D01*
X190245117Y-90212721D01*
X190235332Y-90200490D01*
X190500000Y-89741426D01*
X190764668Y-90200490D01*
%TA.AperFunction,Conductor*%
D21*
G36*
X190764668Y-90200490D02*
G01*
X190754883Y-90212721D01*
X190753582Y-90214702D01*
X190739982Y-90240330D01*
X190739297Y-90241855D01*
X190727297Y-90274114D01*
X190726931Y-90275261D01*
X190716531Y-90314150D01*
X190716331Y-90315020D01*
X190707531Y-90360539D01*
X190707419Y-90361213D01*
X190700219Y-90413362D01*
X190700157Y-90413895D01*
X190694557Y-90472675D01*
X190694524Y-90473104D01*
X190690524Y-90538514D01*
X190690507Y-90538866D01*
X190688107Y-90610906D01*
X190688101Y-90611200D01*
X190687429Y-90677300D01*
X190312571Y-90677300D01*
X190311899Y-90611200D01*
X190311893Y-90610906D01*
X190309493Y-90538866D01*
X190309476Y-90538514D01*
X190305476Y-90473104D01*
X190305443Y-90472675D01*
X190299843Y-90413895D01*
X190299781Y-90413362D01*
X190292581Y-90361213D01*
X190292469Y-90360539D01*
X190283669Y-90315020D01*
X190283469Y-90314150D01*
X190273069Y-90275261D01*
X190272703Y-90274114D01*
X190260703Y-90241855D01*
X190260018Y-90240330D01*
X190246418Y-90214702D01*
X190245117Y-90212721D01*
X190235332Y-90200490D01*
X190500000Y-89741426D01*
X190764668Y-90200490D01*
G37*
%TD.AperFunction*%
D22*
X172287523Y-81298310D02*
X172290277Y-81398002D01*
X172290343Y-81398990D01*
X172301601Y-81505213D01*
X172301750Y-81506230D01*
X172321250Y-81609523D01*
X172321489Y-81610551D01*
X172349233Y-81710914D01*
X172349561Y-81711930D01*
X172385547Y-81809364D01*
X172385957Y-81810347D01*
X172430186Y-81904851D01*
X172430670Y-81905782D01*
X172483142Y-81997357D01*
X172483683Y-81998220D01*
X172544398Y-82086865D01*
X172544981Y-82087649D01*
X172613938Y-82173365D01*
X172614545Y-82174065D01*
X172683382Y-82247883D01*
X172417883Y-82513382D01*
X172344065Y-82444545D01*
X172343365Y-82443938D01*
X172257649Y-82374981D01*
X172256865Y-82374398D01*
X172168220Y-82313683D01*
X172167357Y-82313142D01*
X172075782Y-82260670D01*
X172074851Y-82260186D01*
X171980347Y-82215957D01*
X171979364Y-82215547D01*
X171881930Y-82179561D01*
X171880914Y-82179233D01*
X171780551Y-82151489D01*
X171779523Y-82151250D01*
X171676230Y-82131750D01*
X171675213Y-82131601D01*
X171568990Y-82120343D01*
X171568002Y-82120277D01*
X171468310Y-82117523D01*
X171167459Y-80997459D01*
X172287523Y-81298310D01*
%TA.AperFunction,Conductor*%
D21*
G36*
X172287523Y-81298310D02*
G01*
X172290277Y-81398002D01*
X172290343Y-81398990D01*
X172301601Y-81505213D01*
X172301750Y-81506230D01*
X172321250Y-81609523D01*
X172321489Y-81610551D01*
X172349233Y-81710914D01*
X172349561Y-81711930D01*
X172385547Y-81809364D01*
X172385957Y-81810347D01*
X172430186Y-81904851D01*
X172430670Y-81905782D01*
X172483142Y-81997357D01*
X172483683Y-81998220D01*
X172544398Y-82086865D01*
X172544981Y-82087649D01*
X172613938Y-82173365D01*
X172614545Y-82174065D01*
X172683382Y-82247883D01*
X172417883Y-82513382D01*
X172344065Y-82444545D01*
X172343365Y-82443938D01*
X172257649Y-82374981D01*
X172256865Y-82374398D01*
X172168220Y-82313683D01*
X172167357Y-82313142D01*
X172075782Y-82260670D01*
X172074851Y-82260186D01*
X171980347Y-82215957D01*
X171979364Y-82215547D01*
X171881930Y-82179561D01*
X171880914Y-82179233D01*
X171780551Y-82151489D01*
X171779523Y-82151250D01*
X171676230Y-82131750D01*
X171675213Y-82131601D01*
X171568990Y-82120343D01*
X171568002Y-82120277D01*
X171468310Y-82117523D01*
X171167459Y-80997459D01*
X172287523Y-81298310D01*
G37*
%TD.AperFunction*%
D22*
X184959574Y-83820000D02*
X184501095Y-84084331D01*
X184491500Y-84075470D01*
X184490538Y-84074665D01*
X184472530Y-84061065D01*
X184471517Y-84060375D01*
X184451958Y-84048375D01*
X184450930Y-84047808D01*
X184429821Y-84037408D01*
X184428806Y-84036961D01*
X184406147Y-84028161D01*
X184405169Y-84027827D01*
X184380960Y-84020627D01*
X184380038Y-84020390D01*
X184354278Y-84014790D01*
X184353420Y-84014634D01*
X184326110Y-84010634D01*
X184325322Y-84010544D01*
X184296462Y-84008144D01*
X184295744Y-84008104D01*
X184277700Y-84007629D01*
X184277700Y-83632371D01*
X184295744Y-83631896D01*
X184296462Y-83631856D01*
X184325322Y-83629456D01*
X184326110Y-83629366D01*
X184353420Y-83625366D01*
X184354278Y-83625210D01*
X184380038Y-83619610D01*
X184380960Y-83619373D01*
X184405169Y-83612173D01*
X184406147Y-83611839D01*
X184428806Y-83603039D01*
X184429821Y-83602592D01*
X184450930Y-83592192D01*
X184451958Y-83591625D01*
X184471517Y-83579625D01*
X184472530Y-83578935D01*
X184490538Y-83565335D01*
X184491500Y-83564530D01*
X184501095Y-83555669D01*
X184959574Y-83820000D01*
%TA.AperFunction,Conductor*%
D21*
G36*
X184959574Y-83820000D02*
G01*
X184501095Y-84084331D01*
X184491500Y-84075470D01*
X184490538Y-84074665D01*
X184472530Y-84061065D01*
X184471517Y-84060375D01*
X184451958Y-84048375D01*
X184450930Y-84047808D01*
X184429821Y-84037408D01*
X184428806Y-84036961D01*
X184406147Y-84028161D01*
X184405169Y-84027827D01*
X184380960Y-84020627D01*
X184380038Y-84020390D01*
X184354278Y-84014790D01*
X184353420Y-84014634D01*
X184326110Y-84010634D01*
X184325322Y-84010544D01*
X184296462Y-84008144D01*
X184295744Y-84008104D01*
X184277700Y-84007629D01*
X184277700Y-83632371D01*
X184295744Y-83631896D01*
X184296462Y-83631856D01*
X184325322Y-83629456D01*
X184326110Y-83629366D01*
X184353420Y-83625366D01*
X184354278Y-83625210D01*
X184380038Y-83619610D01*
X184380960Y-83619373D01*
X184405169Y-83612173D01*
X184406147Y-83611839D01*
X184428806Y-83603039D01*
X184429821Y-83602592D01*
X184450930Y-83592192D01*
X184451958Y-83591625D01*
X184471517Y-83579625D01*
X184472530Y-83578935D01*
X184490538Y-83565335D01*
X184491500Y-83564530D01*
X184501095Y-83555669D01*
X184959574Y-83820000D01*
G37*
%TD.AperFunction*%
D22*
X172287523Y-78758310D02*
X172290277Y-78858002D01*
X172290343Y-78858990D01*
X172301601Y-78965213D01*
X172301750Y-78966230D01*
X172321250Y-79069523D01*
X172321489Y-79070551D01*
X172349233Y-79170914D01*
X172349561Y-79171930D01*
X172385547Y-79269364D01*
X172385957Y-79270347D01*
X172430186Y-79364851D01*
X172430670Y-79365782D01*
X172483142Y-79457357D01*
X172483683Y-79458220D01*
X172544398Y-79546865D01*
X172544981Y-79547649D01*
X172613938Y-79633365D01*
X172614545Y-79634065D01*
X172683382Y-79707883D01*
X172417883Y-79973382D01*
X172344065Y-79904545D01*
X172343365Y-79903938D01*
X172257649Y-79834981D01*
X172256865Y-79834398D01*
X172168220Y-79773683D01*
X172167357Y-79773142D01*
X172075782Y-79720670D01*
X172074851Y-79720186D01*
X171980347Y-79675957D01*
X171979364Y-79675547D01*
X171881930Y-79639561D01*
X171880914Y-79639233D01*
X171780551Y-79611489D01*
X171779523Y-79611250D01*
X171676230Y-79591750D01*
X171675213Y-79591601D01*
X171568990Y-79580343D01*
X171568002Y-79580277D01*
X171468310Y-79577523D01*
X171167459Y-78457459D01*
X172287523Y-78758310D01*
%TA.AperFunction,Conductor*%
D21*
G36*
X172287523Y-78758310D02*
G01*
X172290277Y-78858002D01*
X172290343Y-78858990D01*
X172301601Y-78965213D01*
X172301750Y-78966230D01*
X172321250Y-79069523D01*
X172321489Y-79070551D01*
X172349233Y-79170914D01*
X172349561Y-79171930D01*
X172385547Y-79269364D01*
X172385957Y-79270347D01*
X172430186Y-79364851D01*
X172430670Y-79365782D01*
X172483142Y-79457357D01*
X172483683Y-79458220D01*
X172544398Y-79546865D01*
X172544981Y-79547649D01*
X172613938Y-79633365D01*
X172614545Y-79634065D01*
X172683382Y-79707883D01*
X172417883Y-79973382D01*
X172344065Y-79904545D01*
X172343365Y-79903938D01*
X172257649Y-79834981D01*
X172256865Y-79834398D01*
X172168220Y-79773683D01*
X172167357Y-79773142D01*
X172075782Y-79720670D01*
X172074851Y-79720186D01*
X171980347Y-79675957D01*
X171979364Y-79675547D01*
X171881930Y-79639561D01*
X171880914Y-79639233D01*
X171780551Y-79611489D01*
X171779523Y-79611250D01*
X171676230Y-79591750D01*
X171675213Y-79591601D01*
X171568990Y-79580343D01*
X171568002Y-79580277D01*
X171468310Y-79577523D01*
X171167459Y-78457459D01*
X172287523Y-78758310D01*
G37*
%TD.AperFunction*%
D22*
X186229574Y-82245000D02*
X185771095Y-82509331D01*
X185761500Y-82500470D01*
X185760538Y-82499665D01*
X185742530Y-82486065D01*
X185741517Y-82485375D01*
X185721958Y-82473375D01*
X185720930Y-82472808D01*
X185699821Y-82462408D01*
X185698806Y-82461961D01*
X185676147Y-82453161D01*
X185675169Y-82452827D01*
X185650960Y-82445627D01*
X185650038Y-82445390D01*
X185624278Y-82439790D01*
X185623420Y-82439634D01*
X185596110Y-82435634D01*
X185595322Y-82435544D01*
X185566462Y-82433144D01*
X185565744Y-82433104D01*
X185547700Y-82432629D01*
X185547700Y-82057371D01*
X185565744Y-82056896D01*
X185566462Y-82056856D01*
X185595322Y-82054456D01*
X185596110Y-82054366D01*
X185623420Y-82050366D01*
X185624278Y-82050210D01*
X185650038Y-82044610D01*
X185650960Y-82044373D01*
X185675169Y-82037173D01*
X185676147Y-82036839D01*
X185698806Y-82028039D01*
X185699821Y-82027592D01*
X185720930Y-82017192D01*
X185721958Y-82016625D01*
X185741517Y-82004625D01*
X185742530Y-82003935D01*
X185760538Y-81990335D01*
X185761500Y-81989530D01*
X185771095Y-81980669D01*
X186229574Y-82245000D01*
%TA.AperFunction,Conductor*%
D21*
G36*
X186229574Y-82245000D02*
G01*
X185771095Y-82509331D01*
X185761500Y-82500470D01*
X185760538Y-82499665D01*
X185742530Y-82486065D01*
X185741517Y-82485375D01*
X185721958Y-82473375D01*
X185720930Y-82472808D01*
X185699821Y-82462408D01*
X185698806Y-82461961D01*
X185676147Y-82453161D01*
X185675169Y-82452827D01*
X185650960Y-82445627D01*
X185650038Y-82445390D01*
X185624278Y-82439790D01*
X185623420Y-82439634D01*
X185596110Y-82435634D01*
X185595322Y-82435544D01*
X185566462Y-82433144D01*
X185565744Y-82433104D01*
X185547700Y-82432629D01*
X185547700Y-82057371D01*
X185565744Y-82056896D01*
X185566462Y-82056856D01*
X185595322Y-82054456D01*
X185596110Y-82054366D01*
X185623420Y-82050366D01*
X185624278Y-82050210D01*
X185650038Y-82044610D01*
X185650960Y-82044373D01*
X185675169Y-82037173D01*
X185676147Y-82036839D01*
X185698806Y-82028039D01*
X185699821Y-82027592D01*
X185720930Y-82017192D01*
X185721958Y-82016625D01*
X185741517Y-82004625D01*
X185742530Y-82003935D01*
X185760538Y-81990335D01*
X185761500Y-81989530D01*
X185771095Y-81980669D01*
X186229574Y-82245000D01*
G37*
%TD.AperFunction*%
D22*
X172287523Y-76218310D02*
X172290277Y-76318002D01*
X172290343Y-76318990D01*
X172301601Y-76425213D01*
X172301750Y-76426230D01*
X172321250Y-76529523D01*
X172321489Y-76530551D01*
X172349233Y-76630914D01*
X172349561Y-76631930D01*
X172385547Y-76729364D01*
X172385957Y-76730347D01*
X172430186Y-76824851D01*
X172430670Y-76825782D01*
X172483142Y-76917357D01*
X172483683Y-76918220D01*
X172544398Y-77006865D01*
X172544981Y-77007649D01*
X172613938Y-77093365D01*
X172614545Y-77094065D01*
X172683382Y-77167883D01*
X172417883Y-77433382D01*
X172344065Y-77364545D01*
X172343365Y-77363938D01*
X172257649Y-77294981D01*
X172256865Y-77294398D01*
X172168220Y-77233683D01*
X172167357Y-77233142D01*
X172075782Y-77180670D01*
X172074851Y-77180186D01*
X171980347Y-77135957D01*
X171979364Y-77135547D01*
X171881930Y-77099561D01*
X171880914Y-77099233D01*
X171780551Y-77071489D01*
X171779523Y-77071250D01*
X171676230Y-77051750D01*
X171675213Y-77051601D01*
X171568990Y-77040343D01*
X171568002Y-77040277D01*
X171468310Y-77037523D01*
X171167459Y-75917459D01*
X172287523Y-76218310D01*
%TA.AperFunction,Conductor*%
D21*
G36*
X172287523Y-76218310D02*
G01*
X172290277Y-76318002D01*
X172290343Y-76318990D01*
X172301601Y-76425213D01*
X172301750Y-76426230D01*
X172321250Y-76529523D01*
X172321489Y-76530551D01*
X172349233Y-76630914D01*
X172349561Y-76631930D01*
X172385547Y-76729364D01*
X172385957Y-76730347D01*
X172430186Y-76824851D01*
X172430670Y-76825782D01*
X172483142Y-76917357D01*
X172483683Y-76918220D01*
X172544398Y-77006865D01*
X172544981Y-77007649D01*
X172613938Y-77093365D01*
X172614545Y-77094065D01*
X172683382Y-77167883D01*
X172417883Y-77433382D01*
X172344065Y-77364545D01*
X172343365Y-77363938D01*
X172257649Y-77294981D01*
X172256865Y-77294398D01*
X172168220Y-77233683D01*
X172167357Y-77233142D01*
X172075782Y-77180670D01*
X172074851Y-77180186D01*
X171980347Y-77135957D01*
X171979364Y-77135547D01*
X171881930Y-77099561D01*
X171880914Y-77099233D01*
X171780551Y-77071489D01*
X171779523Y-77071250D01*
X171676230Y-77051750D01*
X171675213Y-77051601D01*
X171568990Y-77040343D01*
X171568002Y-77040277D01*
X171468310Y-77037523D01*
X171167459Y-75917459D01*
X172287523Y-76218310D01*
G37*
%TD.AperFunction*%
D22*
X184959574Y-80645000D02*
X184501095Y-80909331D01*
X184491500Y-80900470D01*
X184490538Y-80899665D01*
X184472530Y-80886065D01*
X184471517Y-80885375D01*
X184451958Y-80873375D01*
X184450930Y-80872808D01*
X184429821Y-80862408D01*
X184428806Y-80861961D01*
X184406147Y-80853161D01*
X184405169Y-80852827D01*
X184380960Y-80845627D01*
X184380038Y-80845390D01*
X184354278Y-80839790D01*
X184353420Y-80839634D01*
X184326110Y-80835634D01*
X184325322Y-80835544D01*
X184296462Y-80833144D01*
X184295744Y-80833104D01*
X184277700Y-80832629D01*
X184277700Y-80457371D01*
X184295744Y-80456896D01*
X184296462Y-80456856D01*
X184325322Y-80454456D01*
X184326110Y-80454366D01*
X184353420Y-80450366D01*
X184354278Y-80450210D01*
X184380038Y-80444610D01*
X184380960Y-80444373D01*
X184405169Y-80437173D01*
X184406147Y-80436839D01*
X184428806Y-80428039D01*
X184429821Y-80427592D01*
X184450930Y-80417192D01*
X184451958Y-80416625D01*
X184471517Y-80404625D01*
X184472530Y-80403935D01*
X184490538Y-80390335D01*
X184491500Y-80389530D01*
X184501095Y-80380669D01*
X184959574Y-80645000D01*
%TA.AperFunction,Conductor*%
D21*
G36*
X184959574Y-80645000D02*
G01*
X184501095Y-80909331D01*
X184491500Y-80900470D01*
X184490538Y-80899665D01*
X184472530Y-80886065D01*
X184471517Y-80885375D01*
X184451958Y-80873375D01*
X184450930Y-80872808D01*
X184429821Y-80862408D01*
X184428806Y-80861961D01*
X184406147Y-80853161D01*
X184405169Y-80852827D01*
X184380960Y-80845627D01*
X184380038Y-80845390D01*
X184354278Y-80839790D01*
X184353420Y-80839634D01*
X184326110Y-80835634D01*
X184325322Y-80835544D01*
X184296462Y-80833144D01*
X184295744Y-80833104D01*
X184277700Y-80832629D01*
X184277700Y-80457371D01*
X184295744Y-80456896D01*
X184296462Y-80456856D01*
X184325322Y-80454456D01*
X184326110Y-80454366D01*
X184353420Y-80450366D01*
X184354278Y-80450210D01*
X184380038Y-80444610D01*
X184380960Y-80444373D01*
X184405169Y-80437173D01*
X184406147Y-80436839D01*
X184428806Y-80428039D01*
X184429821Y-80427592D01*
X184450930Y-80417192D01*
X184451958Y-80416625D01*
X184471517Y-80404625D01*
X184472530Y-80403935D01*
X184490538Y-80390335D01*
X184491500Y-80389530D01*
X184501095Y-80380669D01*
X184959574Y-80645000D01*
G37*
%TD.AperFunction*%
D22*
X203687543Y-67324811D02*
X203688436Y-67356816D01*
X203688503Y-67357811D01*
X203692817Y-67398187D01*
X203692968Y-67399210D01*
X203700436Y-67438498D01*
X203700677Y-67439529D01*
X203711302Y-67477731D01*
X203711632Y-67478749D01*
X203725412Y-67515863D01*
X203725824Y-67516845D01*
X203742759Y-67552872D01*
X203743243Y-67553800D01*
X203763334Y-67588740D01*
X203763875Y-67589598D01*
X203787121Y-67623451D01*
X203787701Y-67624230D01*
X203814103Y-67656996D01*
X203814706Y-67657692D01*
X203835895Y-67680402D01*
X203570402Y-67945895D01*
X203547692Y-67924706D01*
X203546996Y-67924103D01*
X203514230Y-67897701D01*
X203513451Y-67897121D01*
X203479598Y-67873875D01*
X203478740Y-67873334D01*
X203443800Y-67853243D01*
X203442872Y-67852759D01*
X203406845Y-67835824D01*
X203405863Y-67835412D01*
X203368749Y-67821632D01*
X203367731Y-67821302D01*
X203329529Y-67810677D01*
X203328498Y-67810436D01*
X203289210Y-67802968D01*
X203288187Y-67802817D01*
X203247811Y-67798503D01*
X203246816Y-67798436D01*
X203214811Y-67797543D01*
X203041203Y-67151203D01*
X203687543Y-67324811D01*
%TA.AperFunction,Conductor*%
D21*
G36*
X203687543Y-67324811D02*
G01*
X203688436Y-67356816D01*
X203688503Y-67357811D01*
X203692817Y-67398187D01*
X203692968Y-67399210D01*
X203700436Y-67438498D01*
X203700677Y-67439529D01*
X203711302Y-67477731D01*
X203711632Y-67478749D01*
X203725412Y-67515863D01*
X203725824Y-67516845D01*
X203742759Y-67552872D01*
X203743243Y-67553800D01*
X203763334Y-67588740D01*
X203763875Y-67589598D01*
X203787121Y-67623451D01*
X203787701Y-67624230D01*
X203814103Y-67656996D01*
X203814706Y-67657692D01*
X203835895Y-67680402D01*
X203570402Y-67945895D01*
X203547692Y-67924706D01*
X203546996Y-67924103D01*
X203514230Y-67897701D01*
X203513451Y-67897121D01*
X203479598Y-67873875D01*
X203478740Y-67873334D01*
X203443800Y-67853243D01*
X203442872Y-67852759D01*
X203406845Y-67835824D01*
X203405863Y-67835412D01*
X203368749Y-67821632D01*
X203367731Y-67821302D01*
X203329529Y-67810677D01*
X203328498Y-67810436D01*
X203289210Y-67802968D01*
X203288187Y-67802817D01*
X203247811Y-67798503D01*
X203246816Y-67798436D01*
X203214811Y-67797543D01*
X203041203Y-67151203D01*
X203687543Y-67324811D01*
G37*
%TD.AperFunction*%
D22*
X208655934Y-72495454D02*
X208656634Y-72496061D01*
X208742350Y-72565018D01*
X208743134Y-72565601D01*
X208831779Y-72626316D01*
X208832642Y-72626857D01*
X208924217Y-72679329D01*
X208925148Y-72679813D01*
X209019652Y-72724042D01*
X209020635Y-72724452D01*
X209118069Y-72760438D01*
X209119085Y-72760766D01*
X209219448Y-72788510D01*
X209220476Y-72788749D01*
X209323769Y-72808249D01*
X209324786Y-72808398D01*
X209431009Y-72819656D01*
X209431997Y-72819722D01*
X209531690Y-72822477D01*
X209832541Y-73942541D01*
X208712477Y-73641690D01*
X208709722Y-73541997D01*
X208709656Y-73541009D01*
X208698398Y-73434786D01*
X208698249Y-73433769D01*
X208678749Y-73330476D01*
X208678510Y-73329448D01*
X208650766Y-73229085D01*
X208650438Y-73228069D01*
X208614452Y-73130635D01*
X208614042Y-73129652D01*
X208569813Y-73035148D01*
X208569329Y-73034217D01*
X208516857Y-72942642D01*
X208516316Y-72941779D01*
X208455601Y-72853134D01*
X208455018Y-72852350D01*
X208386061Y-72766634D01*
X208385454Y-72765934D01*
X208316618Y-72692117D01*
X208582117Y-72426618D01*
X208655934Y-72495454D01*
%TA.AperFunction,Conductor*%
D21*
G36*
X208655934Y-72495454D02*
G01*
X208656634Y-72496061D01*
X208742350Y-72565018D01*
X208743134Y-72565601D01*
X208831779Y-72626316D01*
X208832642Y-72626857D01*
X208924217Y-72679329D01*
X208925148Y-72679813D01*
X209019652Y-72724042D01*
X209020635Y-72724452D01*
X209118069Y-72760438D01*
X209119085Y-72760766D01*
X209219448Y-72788510D01*
X209220476Y-72788749D01*
X209323769Y-72808249D01*
X209324786Y-72808398D01*
X209431009Y-72819656D01*
X209431997Y-72819722D01*
X209531690Y-72822477D01*
X209832541Y-73942541D01*
X208712477Y-73641690D01*
X208709722Y-73541997D01*
X208709656Y-73541009D01*
X208698398Y-73434786D01*
X208698249Y-73433769D01*
X208678749Y-73330476D01*
X208678510Y-73329448D01*
X208650766Y-73229085D01*
X208650438Y-73228069D01*
X208614452Y-73130635D01*
X208614042Y-73129652D01*
X208569813Y-73035148D01*
X208569329Y-73034217D01*
X208516857Y-72942642D01*
X208516316Y-72941779D01*
X208455601Y-72853134D01*
X208455018Y-72852350D01*
X208386061Y-72766634D01*
X208385454Y-72765934D01*
X208316618Y-72692117D01*
X208582117Y-72426618D01*
X208655934Y-72495454D01*
G37*
%TD.AperFunction*%
M02*
