%TF.GenerationSoftware,KiCad,Pcbnew,(5.1.7)-1*%
%TF.CreationDate,2021-01-12T16:12:08+01:00*%
%TF.ProjectId,slckb,736c636b-622e-46b6-9963-61645f706362,rev?*%
%TF.SameCoordinates,Original*%
%TF.FileFunction,Legend,Bot*%
%TF.FilePolarity,Positive*%
%FSLAX46Y46*%
G04 Gerber Fmt 4.6, Leading zero omitted, Abs format (unit mm)*
G04 Created by KiCad (PCBNEW (5.1.7)-1) date 2021-01-12 16:12:08*
%MOMM*%
%LPD*%
G01*
G04 APERTURE LIST*
%ADD10C,0.120000*%
%ADD11C,0.150000*%
G04 APERTURE END LIST*
D10*
X178530000Y-71640000D02*
X182150000Y-71640000D01*
X178530000Y-65520000D02*
X178530000Y-71640000D01*
X182150000Y-65520000D02*
X178530000Y-65520000D01*
X182150000Y-71640000D02*
X182150000Y-65520000D01*
D11*
X183344761Y-67246666D02*
X183392380Y-67389523D01*
X183392380Y-67627619D01*
X183344761Y-67722857D01*
X183297142Y-67770476D01*
X183201904Y-67818095D01*
X183106666Y-67818095D01*
X183011428Y-67770476D01*
X182963809Y-67722857D01*
X182916190Y-67627619D01*
X182868571Y-67437142D01*
X182820952Y-67341904D01*
X182773333Y-67294285D01*
X182678095Y-67246666D01*
X182582857Y-67246666D01*
X182487619Y-67294285D01*
X182440000Y-67341904D01*
X182392380Y-67437142D01*
X182392380Y-67675238D01*
X182440000Y-67818095D01*
X182392380Y-68151428D02*
X183392380Y-68389523D01*
X182678095Y-68580000D01*
X183392380Y-68770476D01*
X182392380Y-69008571D01*
X182487619Y-69341904D02*
X182440000Y-69389523D01*
X182392380Y-69484761D01*
X182392380Y-69722857D01*
X182440000Y-69818095D01*
X182487619Y-69865714D01*
X182582857Y-69913333D01*
X182678095Y-69913333D01*
X182820952Y-69865714D01*
X183392380Y-69294285D01*
X183392380Y-69913333D01*
M02*
